MontserratZ-Bold.ufo
<glyph name="exclam" format="2">
  <advance width="289"/>
  <unicode hex="0021"/>
  <outline>
    <contour>
      <point x="82.6869" y="243.263" type="line"/>
      <point x="52.1672" y="700" type="line"/>
      <point x="237.699" y="700" type="line"/>
      <point x="206.576" y="243.263" type="line"/>
    </contour>
    <contour>
      <point x="144.933" y="-7.58663" type="qcurve" smooth="yes"/>
      <point x="103.223" y="-7.58663"/>
      <point x="48.5304" y="45.9164"/>
      <point x="48.5304" y="82.8496" type="qcurve" smooth="yes"/>
      <point x="48.5304" y="120.783"/>
      <point x="103.223" y="172.492"/>
      <point x="144.933" y="172.492" type="qcurve" smooth="yes"/>
      <point x="187.643" y="172.492"/>
      <point x="240.733" y="120.783"/>
      <point x="240.733" y="82.8496" type="qcurve" smooth="yes"/>
      <point x="240.733" y="45.9164"/>
      <point x="187.643" y="-7.58663"/>
    </contour>
  </outline>
</glyph>
<glyph name="numbersign" format="2">
  <advance width="720"/>
  <unicode hex="0023"/>
  <outline>
    <contour>
      <point x="390.48" y="0" type="line"/>
      <point x="476.877" y="700" type="line"/>
      <point x="589.213" y="700" type="line"/>
      <point x="502.816" y="0" type="line"/>
    </contour>
    <contour>
      <point x="20.2401" y="159.927" type="line"/>
      <point x="20.2401" y="268.9" type="line"/>
      <point x="666.453" y="268.9" type="line"/>
      <point x="666.453" y="159.927" type="line"/>
    </contour>
    <contour>
      <point x="130.877" y="0" type="line"/>
      <point x="217.877" y="700" type="line"/>
      <point x="330.213" y="700" type="line"/>
      <point x="243.213" y="0" type="line"/>
    </contour>
    <contour>
      <point x="53.6368" y="431.1" type="line"/>
      <point x="53.6368" y="540.073" type="line"/>
      <point x="699.246" y="540.073" type="line"/>
      <point x="699.85" y="431.1" type="line"/>
    </contour>
  </outline>
</glyph>
<glyph name="ampersand" format="2">
  <advance width="728"/>
  <unicode hex="0026"/>
  <outline>
    <contour>
      <point x="302.916" y="-11.7766" type="qcurve" smooth="yes"/>
      <point x="226.157" y="-11.7766"/>
      <point x="105.62" y="37.6033"/>
      <point x="36.2568" y="124.173"/>
      <point x="36.2568" y="179.76" type="qcurve" smooth="yes"/>
      <point x="36.2568" y="232.33"/>
      <point x="82.4301" y="315.296"/>
      <point x="181.587" y="387.503"/>
      <point x="259.363" y="422.726" type="qcurve" smooth="yes"/>
      <point x="315.397" y="448.967"/>
      <point x="379.033" y="489.413"/>
      <point x="405.447" y="525.653"/>
      <point x="405.447" y="545.084" type="qcurve" smooth="yes"/>
      <point x="405.447" y="570.737"/>
      <point x="369.967" y="602.804"/>
      <point x="336.296" y="602.804" type="qcurve" smooth="yes"/>
      <point x="300.023" y="602.804"/>
      <point x="259.939" y="567.134"/>
      <point x="259.939" y="539.274" type="qcurve" smooth="yes"/>
      <point x="259.939" y="524.05"/>
      <point x="272.146" y="495.413"/>
      <point x="305.956" y="457.777"/>
      <point x="336.766" y="428.553" type="qcurve" smooth="yes"/>
      <point x="705.973" y="86.5927" type="line"/>
      <point x="621.173" y="-11.7933" type="line"/>
      <point x="214.067" y="366.084" type="line" smooth="yes"/>
      <point x="179.464" y="397.704"/>
      <point x="137.274" y="454.1"/>
      <point x="117.687" y="508.48"/>
      <point x="117.687" y="536.877" type="qcurve" smooth="yes"/>
      <point x="117.687" y="588.05"/>
      <point x="171.637" y="665.81"/>
      <point x="270.157" y="708.983"/>
      <point x="335.9" y="708.983" type="qcurve" smooth="yes"/>
      <point x="396.85" y="708.983"/>
      <point x="486.369" y="670.207"/>
      <point x="536.526" y="598.05"/>
      <point x="536.526" y="548.274" type="qcurve" smooth="yes"/>
      <point x="536.526" y="504.497"/>
      <point x="492.956" y="431.324"/>
      <point x="399.799" y="367.324"/>
      <point x="325.213" y="334.1" type="qcurve" smooth="yes"/>
      <point x="274.353" y="310.653"/>
      <point x="214.699" y="267.793"/>
      <point x="189.079" y="223.743"/>
      <point x="189.079" y="196.916" type="qcurve" smooth="yes"/>
      <point x="189.079" y="171.866"/>
      <point x="219.733" y="132.403"/>
      <point x="275.626" y="110.369"/>
      <point x="313.883" y="110.369" type="qcurve" smooth="yes"/>
      <point x="375.123" y="110.369"/>
      <point x="476.76" y="167.369"/>
      <point x="548.173" y="279.593"/>
      <point x="562.983" y="360.626" type="qcurve"/>
      <point x="688.476" y="321.71" type="line"/>
      <point x="667.286" y="219.916"/>
      <point x="558.956" y="70.1733"/>
      <point x="400.66" y="-11.7766"/>
    </contour>
  </outline>
</glyph>
<glyph name="parenleft" format="2">
  <advance width="357"/>
  <unicode hex="0028"/>
  <outline>
    <contour>
      <point x="198.1" y="-194" type="line"/>
      <point x="137.72" y="-103.397"/>
      <point x="72.9437" y="136.397"/>
      <point x="72.9437" y="274" type="qcurve" smooth="yes"/>
      <point x="72.9437" y="411.603"/>
      <point x="137.72" y="652.603"/>
      <point x="198.1" y="742" type="qcurve"/>
      <point x="347.129" y="742" type="line"/>
      <point x="283.749" y="629.24"/>
      <point x="225.766" y="400.43"/>
      <point x="225.766" y="274" type="qcurve" smooth="yes"/>
      <point x="225.766" y="147.57"/>
      <point x="283.749" y="-81.2401"/>
      <point x="347.129" y="-194" type="qcurve"/>
    </contour>
  </outline>
</glyph>
<glyph name="parenright" format="2">
  <advance width="358"/>
  <unicode hex="0029"/>
  <outline>
    <contour>
      <point x="159.369" y="-194" type="qcurve"/>
      <point x="10.3404" y="-194" type="line"/>
      <point x="74.7203" y="-81.2401"/>
      <point x="132.307" y="147.57"/>
      <point x="132.307" y="274" type="qcurve" smooth="yes"/>
      <point x="132.307" y="400.43"/>
      <point x="74.7203" y="629.24"/>
      <point x="10.3404" y="742" type="qcurve"/>
      <point x="159.369" y="742" type="line"/>
      <point x="220.749" y="652.603"/>
      <point x="285.129" y="411.603"/>
      <point x="285.129" y="274" type="qcurve" smooth="yes"/>
      <point x="285.129" y="136.397"/>
      <point x="220.749" y="-103.397"/>
    </contour>
  </outline>
</glyph>
<glyph name="asterisk" format="2">
  <advance width="434"/>
  <unicode hex="002A"/>
  <outline>
    <contour>
      <point x="420.543" y="603.514" type="line"/>
      <point x="288.319" y="531.29" type="line"/>
      <point x="288.319" y="557.447" type="line"/>
      <point x="420.543" y="485.223" type="line"/>
      <point x="372.056" y="403.391" type="line"/>
      <point x="248.006" y="477.407" type="line"/>
      <point x="261.989" y="485.597" type="line"/>
      <point x="263.783" y="346.737" type="line"/>
      <point x="169.603" y="346.737" type="line"/>
      <point x="171.397" y="485.597" type="line"/>
      <point x="185.38" y="477.407" type="line"/>
      <point x="61.3298" y="403.391" type="line"/>
      <point x="13.2401" y="485.223" type="line"/>
      <point x="146.067" y="557.447" type="line"/>
      <point x="146.067" y="531.29" type="line"/>
      <point x="13.2401" y="603.514" type="line"/>
      <point x="61.3298" y="685.95" type="line"/>
      <point x="185.38" y="611.33" type="line"/>
      <point x="171.397" y="603.14" type="line"/>
      <point x="169.603" y="742" type="line"/>
      <point x="263.783" y="742" type="line"/>
      <point x="261.989" y="603.14" type="line"/>
      <point x="248.006" y="611.33" type="line"/>
      <point x="372.056" y="685.95" type="line"/>
    </contour>
  </outline>
</glyph>
<glyph name="plus" format="2">
  <advance width="599"/>
  <unicode hex="002B"/>
  <outline>
    <contour>
      <point x="235.084" y="118.877" type="line"/>
      <point x="235.084" y="581.123" type="line"/>
      <point x="364.403" y="581.123" type="line"/>
      <point x="364.403" y="118.877" type="line"/>
    </contour>
    <contour>
      <point x="61.6368" y="289.134" type="line"/>
      <point x="61.6368" y="410.866" type="line"/>
      <point x="537.85" y="410.866" type="line"/>
      <point x="537.85" y="289.134" type="line"/>
    </contour>
  </outline>
</glyph>
<glyph name="hyphen" format="2">
  <advance width="386"/>
  <unicode hex="002D"/>
  <outline>
    <contour>
      <point x="51.6368" y="219.084" type="line"/>
      <point x="51.6368" y="343.833" type="line"/>
      <point x="334.743" y="343.833" type="line"/>
      <point x="334.743" y="219.084" type="line"/>
    </contour>
  </outline>
</glyph>
<glyph name="period" format="2">
  <advance width="262"/>
  <unicode hex="002E"/>
  <outline>
    <contour>
      <point x="131.486" y="-7.58663" type="qcurve" smooth="yes"/>
      <point x="90.5699" y="-7.58663"/>
      <point x="33.8769" y="47.3131"/>
      <point x="33.8769" y="89.8328" type="qcurve" smooth="yes"/>
      <point x="33.8769" y="133.353"/>
      <point x="90.5699" y="186.459"/>
      <point x="131.486" y="186.459" type="qcurve" smooth="yes"/>
      <point x="171.799" y="186.459"/>
      <point x="228.492" y="133.353"/>
      <point x="228.492" y="89.8328" type="qcurve" smooth="yes"/>
      <point x="228.492" y="47.3131"/>
      <point x="171.799" y="-7.58663"/>
    </contour>
  </outline>
</glyph>
<glyph name="slash" format="2">
  <advance width="392"/>
  <unicode hex="002F"/>
  <outline>
    <contour>
      <point x="-33.3632" y="-100" type="line"/>
      <point x="296.637" y="842" type="line"/>
      <point x="435.699" y="842" type="line"/>
      <point x="105.699" y="-100" type="line"/>
    </contour>
  </outline>
</glyph>
<glyph name="zero" format="2">
  <advance width="679"/>
  <unicode hex="0030"/>
  <outline>
    <contour>
      <point x="339.363" y="-11.7766" type="qcurve" smooth="yes"/>
      <point x="253" y="-11.7766"/>
      <point x="117.24" y="73.0167"/>
      <point x="39.2568" y="234.603"/>
      <point x="39.2568" y="350" type="qcurve" smooth="yes"/>
      <point x="39.2568" y="465.397"/>
      <point x="117.24" y="626.983"/>
      <point x="253" y="711.777"/>
      <point x="339.363" y="711.777" type="qcurve" smooth="yes"/>
      <point x="425.726" y="711.777"/>
      <point x="561.486" y="626.983"/>
      <point x="639.47" y="465.397"/>
      <point x="639.47" y="350" type="qcurve" smooth="yes"/>
      <point x="639.47" y="234.603"/>
      <point x="561.486" y="73.0167"/>
      <point x="425.726" y="-11.7766"/>
    </contour>
    <contour>
      <point x="339.363" y="124.733" type="qcurve" smooth="yes"/>
      <point x="379.86" y="124.733"/>
      <point x="441.201" y="171.213"/>
      <point x="476.077" y="270.933"/>
      <point x="476.077" y="350" type="qcurve" smooth="yes"/>
      <point x="476.077" y="429.464"/>
      <point x="441.201" y="528.787"/>
      <point x="379.86" y="575.267"/>
      <point x="339.363" y="575.267" type="qcurve" smooth="yes"/>
      <point x="299.47" y="575.267"/>
      <point x="237.526" y="528.787"/>
      <point x="202.649" y="429.464"/>
      <point x="202.649" y="350" type="qcurve" smooth="yes"/>
      <point x="202.649" y="270.933"/>
      <point x="237.526" y="171.213"/>
      <point x="299.47" y="124.733"/>
    </contour>
  </outline>
</glyph>
<glyph name="one" format="2">
  <advance width="392"/>
  <unicode hex="0031"/>
  <outline>
    <contour>
      <point x="146.72" y="0" type="line"/>
      <point x="146.72" y="640.324" type="line"/>
      <point x="216.95" y="569.664" type="line"/>
      <point x="6.81003" y="569.664" type="line"/>
      <point x="6.81003" y="700" type="line"/>
      <point x="309.113" y="700" type="line"/>
      <point x="309.113" y="0" type="line"/>
    </contour>
  </outline>
</glyph>
<glyph name="two" format="2">
  <advance width="590"/>
  <unicode hex="0032"/>
  <outline>
    <contour>
      <point x="32.8267" y="0" type="line"/>
      <point x="32.8267" y="104.576" type="line"/>
      <point x="303.324" y="359.693" type="line" smooth="yes"/>
      <point x="334.564" y="389.33"/>
      <point x="365.407" y="434.793"/>
      <point x="375.821" y="472.653"/>
      <point x="375.821" y="489.48" type="qcurve" smooth="yes"/>
      <point x="375.821" y="530.564"/>
      <point x="319.497" y="576.457"/>
      <point x="264.38" y="576.457" type="qcurve" smooth="yes"/>
      <point x="219.503" y="576.457"/>
      <point x="144.799" y="541.647"/>
      <point x="119.146" y="506.027" type="qcurve"/>
      <point x="1.48023" y="581.754" type="line"/>
      <point x="41.2903" y="641.687"/>
      <point x="184.843" y="711.777"/>
      <point x="279.14" y="711.777" type="qcurve" smooth="yes"/>
      <point x="357.313" y="711.777"/>
      <point x="474.453" y="661.397"/>
      <point x="539.213" y="568.827"/>
      <point x="539.213" y="505.447" type="qcurve" smooth="yes"/>
      <point x="539.213" y="471.447"/>
      <point x="521.609" y="404.05"/>
      <point x="470.816" y="329.653"/>
      <point x="421.626" y="283.653" type="qcurve" smooth="yes"/>
      <point x="197.839" y="73.2462" type="line"/>
      <point x="167.476" y="132.319" type="line"/>
      <point x="562.453" y="132.319" type="line"/>
      <point x="562.453" y="0" type="line"/>
    </contour>
  </outline>
</glyph>
<glyph name="three" format="2">
  <advance width="592"/>
  <unicode hex="0033"/>
  <outline>
    <contour>
      <point x="265.777" y="-11.7766" type="qcurve" smooth="yes"/>
      <point x="192.57" y="-11.7766"/>
      <point x="49.3967" y="27.4635"/>
      <point x="-1.17326" y="63.2903" type="qcurve"/>
      <point x="61.9331" y="187.213" type="line"/>
      <point x="102.106" y="157.593"/>
      <point x="207.743" y="123.543"/>
      <point x="262" y="123.543" type="qcurve" smooth="yes"/>
      <point x="322.514" y="123.543"/>
      <point x="392.821" y="171.66"/>
      <point x="392.821" y="213.743" type="qcurve" smooth="yes"/>
      <point x="392.821" y="253.637"/>
      <point x="330.687" y="300.357"/>
      <point x="261.553" y="300.357" type="qcurve" smooth="yes"/>
      <point x="188.464" y="300.357" type="line"/>
      <point x="188.464" y="406.743" type="line"/>
      <point x="382.737" y="628.15" type="line"/>
      <point x="401.324" y="569.664" type="line"/>
      <point x="33.6201" y="569.664" type="line"/>
      <point x="33.6201" y="700" type="line"/>
      <point x="524.246" y="700" type="line"/>
      <point x="524.246" y="595.424" type="line"/>
      <point x="329.973" y="374.017" type="line"/>
      <point x="248.347" y="421.123" type="line"/>
      <point x="294.66" y="421.123" type="line" smooth="yes"/>
      <point x="424.246" y="421.123"/>
      <point x="556.213" y="304.933"/>
      <point x="556.213" y="214.347" type="qcurve" smooth="yes"/>
      <point x="556.213" y="154.95"/>
      <point x="494.04" y="51.5866"/>
      <point x="365.71" y="-11.7766"/>
    </contour>
  </outline>
</glyph>
<glyph name="four" format="2">
  <advance width="689"/>
  <unicode hex="0034"/>
  <outline>
    <contour>
      <point x="30.8435" y="147.15" type="line"/>
      <point x="30.8435" y="255.52" type="line"/>
      <point x="361.027" y="700" type="line"/>
      <point x="531.23" y="700" type="line"/>
      <point x="208.426" y="255.52" type="line"/>
      <point x="129.196" y="279.47" type="line"/>
      <point x="680.246" y="279.47" type="line"/>
      <point x="680.246" y="147.15" type="line"/>
    </contour>
    <contour>
      <point x="408.324" y="0" type="line"/>
      <point x="408.324" y="147.15" type="line"/>
      <point x="412.91" y="279.47" type="line"/>
      <point x="412.91" y="410" type="line"/>
      <point x="566.129" y="410" type="line"/>
      <point x="566.129" y="0" type="line"/>
    </contour>
  </outline>
</glyph>
<glyph name="five" format="2">
  <advance width="595"/>
  <unicode hex="0035"/>
  <outline>
    <contour>
      <point x="277.38" y="-11.7766" type="qcurve" smooth="yes"/>
      <point x="204.173" y="-11.7766"/>
      <point x="61" y="27.4635"/>
      <point x="10.4301" y="63.2903" type="qcurve"/>
      <point x="73.5365" y="187.213" type="line"/>
      <point x="113.71" y="157.593"/>
      <point x="218.95" y="123.543"/>
      <point x="273.207" y="123.543" type="qcurve" smooth="yes"/>
      <point x="333.72" y="123.543"/>
      <point x="404.424" y="172.056"/>
      <point x="404.424" y="214.743" type="qcurve" smooth="yes"/>
      <point x="404.424" y="242.413"/>
      <point x="375.564" y="283.514"/>
      <point x="304.62" y="305.77"/>
      <point x="241.106" y="305.77" type="qcurve" smooth="yes"/>
      <point x="62.2401" y="305.77" type="line"/>
      <point x="97.8435" y="700" type="line"/>
      <point x="525.436" y="700" type="line"/>
      <point x="525.436" y="569.664" type="line"/>
      <point x="156.106" y="569.664" type="line"/>
      <point x="240.113" y="643.514" type="line"/>
      <point x="214.889" y="362.86" type="line"/>
      <point x="130.883" y="436.71" type="line"/>
      <point x="278.799" y="436.71" type="line" smooth="yes"/>
      <point x="382.799" y="436.71"/>
      <point x="509.609" y="379.726"/>
      <point x="567.816" y="281.743"/>
      <point x="567.816" y="219.743" type="qcurve" smooth="yes"/>
      <point x="567.816" y="158.347"/>
      <point x="505.643" y="52.5866"/>
      <point x="377.313" y="-11.7766"/>
    </contour>
  </outline>
</glyph>
<glyph name="six" format="2">
  <advance width="637"/>
  <unicode hex="0036"/>
  <outline>
    <contour>
      <point x="352.33" y="-11.7766" type="qcurve" smooth="yes"/>
      <point x="255.95" y="-11.7766"/>
      <point x="115.207" y="67.6368"/>
      <point x="39.2568" y="221.843"/>
      <point x="39.2568" y="334.637" type="qcurve" smooth="yes"/>
      <point x="39.2568" y="455.827"/>
      <point x="130.017" y="624"/>
      <point x="291.14" y="711.777"/>
      <point x="396.486" y="711.777" type="qcurve" smooth="yes"/>
      <point x="451.85" y="711.777"/>
      <point x="554.179" y="687.603"/>
      <point x="590.559" y="664.017" type="qcurve"/>
      <point x="530.9" y="544.871" type="line"/>
      <point x="501.71" y="565.061"/>
      <point x="435.693" y="580.061"/>
      <point x="399.676" y="580.061" type="qcurve" smooth="yes"/>
      <point x="309.369" y="580.061"/>
      <point x="202.649" y="469.72"/>
      <point x="202.649" y="362.173" type="qcurve" smooth="yes"/>
      <point x="202.649" y="344.157"/>
      <point x="204.459" y="300.073"/>
      <point x="208.682" y="277.833" type="qcurve"/>
      <point x="164.336" y="319.85" type="line"/>
      <point x="182.526" y="358.676"/>
      <point x="243.163" y="411.71"/>
      <point x="326.213" y="438.52"/>
      <point x="376.419" y="438.52" type="qcurve" smooth="yes"/>
      <point x="444.04" y="438.52"/>
      <point x="552.436" y="384.726"/>
      <point x="617.023" y="287.14"/>
      <point x="617.023" y="220.553" type="qcurve" smooth="yes"/>
      <point x="617.023" y="149.777"/>
      <point x="546.453" y="45.2067"/>
      <point x="426.503" y="-11.7766"/>
    </contour>
    <contour>
      <point x="342.967" y="108.989" type="qcurve" smooth="yes"/>
      <point x="377.24" y="108.989"/>
      <point x="430.15" y="134.436"/>
      <point x="459.614" y="181.52"/>
      <point x="459.614" y="213.173" type="qcurve" smooth="yes"/>
      <point x="459.614" y="261.257"/>
      <point x="394.877" y="317.754"/>
      <point x="340.553" y="317.754" type="qcurve" smooth="yes"/>
      <point x="305.073" y="317.754"/>
      <point x="251.353" y="290.704"/>
      <point x="220.286" y="243.62"/>
      <point x="220.286" y="212.57" type="qcurve" smooth="yes"/>
      <point x="220.286" y="183.33"/>
      <point x="249.543" y="136.246"/>
      <point x="304.47" y="108.989"/>
    </contour>
  </outline>
</glyph>
<glyph name="seven" format="2">
  <advance width="620"/>
  <unicode hex="0037"/>
  <outline>
    <contour>
      <point x="151.324" y="0" type="line"/>
      <point x="432.821" y="638.324" type="line"/>
      <point x="475.307" y="567.681" type="line"/>
      <point x="98.0563" y="567.681" type="line"/>
      <point x="169.543" y="643.91" type="line"/>
      <point x="169.543" y="453.614" type="line"/>
      <point x="25.8267" y="453.614" type="line"/>
      <point x="25.8267" y="700" type="line"/>
      <point x="586.816" y="700" type="line"/>
      <point x="586.816" y="595.424" type="line"/>
      <point x="326.666" y="0" type="line"/>
    </contour>
  </outline>
</glyph>
<glyph name="eight" format="2">
  <advance width="660"/>
  <unicode hex="0038"/>
  <outline>
    <contour>
      <point x="329.347" y="-11.7766" type="qcurve" smooth="yes"/>
      <point x="240.57" y="-11.7766"/>
      <point x="108.62" y="40.81"/>
      <point x="35.2568" y="137.587"/>
      <point x="35.2568" y="203.173" type="qcurve" smooth="yes"/>
      <point x="35.2568" y="268.157"/>
      <point x="107.603" y="358.726"/>
      <point x="239.95" y="406.313"/>
      <point x="329.347" y="406.313" type="qcurve" smooth="yes"/>
      <point x="418.743" y="406.313"/>
      <point x="551.693" y="358.726"/>
      <point x="624.643" y="267.553"/>
      <point x="624.643" y="203.173" type="qcurve" smooth="yes"/>
      <point x="624.643" y="137.587"/>
      <point x="550.676" y="40.81"/>
      <point x="418.123" y="-11.7766"/>
    </contour>
    <contour>
      <point x="329.347" y="107.403" type="qcurve" smooth="yes"/>
      <point x="389.894" y="107.403"/>
      <point x="461.251" y="161.486"/>
      <point x="461.251" y="208.157" type="qcurve" smooth="yes"/>
      <point x="461.251" y="254.827"/>
      <point x="389.894" y="308.307"/>
      <point x="329.347" y="308.307" type="qcurve" smooth="yes"/>
      <point x="268.799" y="308.307"/>
      <point x="198.649" y="254.827"/>
      <point x="198.649" y="208.157" type="qcurve" smooth="yes"/>
      <point x="198.649" y="161.486"/>
      <point x="268.799" y="107.403"/>
    </contour>
    <contour>
      <point x="329.347" y="323.687" type="qcurve" smooth="yes"/>
      <point x="247.95" y="323.687"/>
      <point x="127.207" y="368.274"/>
      <point x="60.2568" y="453.05"/>
      <point x="60.2568" y="512.43" type="qcurve" smooth="yes"/>
      <point x="60.2568" y="574.017"/>
      <point x="128.223" y="662.793"/>
      <point x="249.777" y="711.777"/>
      <point x="329.347" y="711.777" type="qcurve" smooth="yes"/>
      <point x="409.52" y="711.777"/>
      <point x="531.073" y="662.793"/>
      <point x="599.643" y="574.017"/>
      <point x="599.643" y="512.43" type="qcurve" smooth="yes"/>
      <point x="599.643" y="453.05"/>
      <point x="532.693" y="368.274"/>
      <point x="411.14" y="323.687"/>
    </contour>
    <contour>
      <point x="329.347" y="418.9" type="qcurve" smooth="yes"/>
      <point x="379.894" y="418.9"/>
      <point x="439.044" y="465.38"/>
      <point x="439.044" y="505.447" type="qcurve" smooth="yes"/>
      <point x="439.044" y="547.117"/>
      <point x="378.084" y="592.597"/>
      <point x="329.347" y="592.597" type="qcurve" smooth="yes"/>
      <point x="280.609" y="592.597"/>
      <point x="220.856" y="547.117"/>
      <point x="220.856" y="505.447" type="qcurve" smooth="yes"/>
      <point x="220.856" y="465.38"/>
      <point x="279.403" y="418.9"/>
    </contour>
  </outline>
</glyph>
<glyph name="nine" format="2">
  <advance width="637"/>
  <unicode hex="0039"/>
  <outline>
    <contour>
      <point x="285.14" y="711.777" type="qcurve" smooth="yes"/>
      <point x="382.123" y="711.777"/>
      <point x="522.263" y="632.363"/>
      <point x="598.213" y="478.553"/>
      <point x="598.213" y="365.363" type="qcurve" smooth="yes"/>
      <point x="598.213" y="244.173"/>
      <point x="507.453" y="76"/>
      <point x="347.33" y="-11.7766"/>
      <point x="240.983" y="-11.7766" type="qcurve" smooth="yes"/>
      <point x="185.62" y="-11.7766"/>
      <point x="83.8936" y="12.3967"/>
      <point x="46.9103" y="35.9833" type="qcurve"/>
      <point x="106.57" y="155.129" type="line"/>
      <point x="135.76" y="134.939"/>
      <point x="202.38" y="119.939"/>
      <point x="237.793" y="119.939" type="qcurve" smooth="yes"/>
      <point x="328.1" y="119.939"/>
      <point x="434.821" y="230.28"/>
      <point x="434.821" y="337.827" type="qcurve" smooth="yes"/>
      <point x="434.821" y="355.843"/>
      <point x="433.011" y="399.927"/>
      <point x="428.787" y="422.167" type="qcurve"/>
      <point x="473.134" y="380.15" type="line"/>
      <point x="455.944" y="341.324"/>
      <point x="394.307" y="288.29"/>
      <point x="311.86" y="261.48"/>
      <point x="261.05" y="261.48" type="qcurve" smooth="yes"/>
      <point x="194.033" y="261.48"/>
      <point x="85.0334" y="315.274"/>
      <point x="20.4468" y="413.257"/>
      <point x="20.4468" y="479.447" type="qcurve" smooth="yes"/>
      <point x="20.4468" y="550.827"/>
      <point x="91.0167" y="654.793"/>
      <point x="211.57" y="711.777"/>
    </contour>
    <contour>
      <point x="294.503" y="591.011" type="qcurve" smooth="yes"/>
      <point x="260.23" y="591.011"/>
      <point x="207.716" y="565.564"/>
      <point x="177.856" y="519.084"/>
      <point x="177.856" y="486.827" type="qcurve" smooth="yes"/>
      <point x="177.856" y="438.743"/>
      <point x="242.989" y="382.246"/>
      <point x="296.916" y="382.246" type="qcurve" smooth="yes"/>
      <point x="332.397" y="382.246"/>
      <point x="387.117" y="409.296"/>
      <point x="417.184" y="456.983"/>
      <point x="417.184" y="487.43" type="qcurve" smooth="yes"/>
      <point x="417.184" y="517.274"/>
      <point x="388.324" y="563.754"/>
      <point x="333.603" y="591.011"/>
    </contour>
  </outline>
</glyph>
<glyph name="less" format="2">
  <advance width="599"/>
  <unicode hex="003C"/>
  <outline>
    <contour>
      <point x="537.85" y="104.357" type="line"/>
      <point x="61.6368" y="285.134" type="line"/>
      <point x="61.6368" y="414.866" type="line"/>
      <point x="537.85" y="595.643" type="line"/>
      <point x="537.85" y="471.497" type="line"/>
      <point x="108.743" y="314.877" type="line"/>
      <point x="108.743" y="385.123" type="line"/>
      <point x="537.85" y="228.503" type="line"/>
    </contour>
  </outline>
</glyph>
<glyph name="equal" format="2">
  <advance width="599"/>
  <unicode hex="003D"/>
  <outline>
    <contour>
      <point x="61.6368" y="413.1" type="line"/>
      <point x="61.6368" y="534.833" type="line"/>
      <point x="537.85" y="534.833" type="line"/>
      <point x="537.85" y="413.1" type="line"/>
    </contour>
    <contour>
      <point x="61.6368" y="165.167" type="line"/>
      <point x="61.6368" y="286.9" type="line"/>
      <point x="537.85" y="286.9" type="line"/>
      <point x="537.85" y="165.167" type="line"/>
    </contour>
  </outline>
</glyph>
<glyph name="greater" format="2">
  <advance width="599"/>
  <unicode hex="003E"/>
  <outline>
    <contour>
      <point x="61.6368" y="104.357" type="line"/>
      <point x="61.6368" y="228.503" type="line"/>
      <point x="491.347" y="385.123" type="line"/>
      <point x="491.347" y="314.877" type="line"/>
      <point x="61.6368" y="471.497" type="line"/>
      <point x="61.6368" y="595.643" type="line"/>
      <point x="537.85" y="414.866" type="line"/>
      <point x="537.85" y="285.134" type="line"/>
    </contour>
  </outline>
</glyph>
<glyph name="question" format="2">
  <advance width="589"/>
  <unicode hex="003F"/>
  <outline>
    <contour>
      <point x="217.257" y="243.263" type="line"/>
      <point x="217.257" y="278.09"/>
      <point x="239.877" y="331.52"/>
      <point x="274.91" y="373.743"/>
      <point x="315.15" y="409.57"/>
      <point x="350.184" y="443"/>
      <point x="372.804" y="479.447"/>
      <point x="372.804" y="501.084" type="qcurve" smooth="yes"/>
      <point x="372.804" y="537.357"/>
      <point x="313.894" y="580.664"/>
      <point x="265.38" y="580.664" type="qcurve" smooth="yes"/>
      <point x="217.693" y="580.664"/>
      <point x="144.196" y="542.251"/>
      <point x="120.353" y="506.631" type="qcurve"/>
      <point x="-0.93314" y="577.53" type="line"/>
      <point x="39.4802" y="639.274"/>
      <point x="180.81" y="711.777"/>
      <point x="282.106" y="711.777" type="qcurve" smooth="yes"/>
      <point x="357.486" y="711.777"/>
      <point x="471.436" y="668.777"/>
      <point x="536.196" y="586.793"/>
      <point x="536.196" y="527.413" type="qcurve" smooth="yes"/>
      <point x="536.196" y="487.603"/>
      <point x="511.989" y="428.397"/>
      <point x="473.783" y="383.587"/>
      <point x="430.766" y="345.777"/>
      <point x="392.559" y="309.95"/>
      <point x="368.353" y="269.503"/>
      <point x="368.353" y="243.263" type="qcurve"/>
    </contour>
    <contour>
      <point x="293.106" y="-7.58663" type="qcurve" smooth="yes"/>
      <point x="251.397" y="-7.58663"/>
      <point x="197.307" y="45.9164"/>
      <point x="197.307" y="82.8496" type="qcurve" smooth="yes"/>
      <point x="197.307" y="120.783"/>
      <point x="251.397" y="172.492"/>
      <point x="293.106" y="172.492" type="qcurve" smooth="yes"/>
      <point x="335.816" y="172.492"/>
      <point x="388.906" y="120.783"/>
      <point x="388.906" y="82.8496" type="qcurve" smooth="yes"/>
      <point x="388.906" y="45.9164"/>
      <point x="335.816" y="-7.58663"/>
    </contour>
  </outline>
</glyph>
<glyph name="at" format="2">
  <advance width="1035"/>
  <unicode hex="0040"/>
  <outline>
    <contour>
      <point x="519.38" y="-205.777" type="qcurve" smooth="yes"/>
      <point x="411.207" y="-205.777"/>
      <point x="234.637" y="-136.983"/>
      <point x="107.653" y="-12.7933"/>
      <point x="39.2568" y="155"/>
      <point x="39.2568" y="253.603" type="qcurve" smooth="yes"/>
      <point x="39.2568" y="351.81"/>
      <point x="107.653" y="518.207"/>
      <point x="235.637" y="641.793"/>
      <point x="414.207" y="710.38"/>
      <point x="523.38" y="710.38" type="qcurve" smooth="yes"/>
      <point x="628.363" y="710.38"/>
      <point x="801.743" y="645.19"/>
      <point x="927.536" y="527.397"/>
      <point x="995.933" y="367.983"/>
      <point x="995.933" y="274.363" type="qcurve" smooth="yes"/>
      <point x="995.933" y="185.397"/>
      <point x="944.603" y="59.0167"/>
      <point x="852.687" y="-7.18997"/>
      <point x="791.1" y="-7.18997" type="qcurve" smooth="yes"/>
      <point x="722.977" y="-7.18997"/>
      <point x="642.664" y="72.9331"/>
      <point x="642.664" y="149.85" type="qcurve" smooth="yes"/>
      <point x="642.664" y="195.587" type="line"/>
      <point x="645.681" y="249.827" type="line"/>
      <point x="636.681" y="395.04" type="line"/>
      <point x="636.681" y="491.067" type="line"/>
      <point x="772.57" y="491.067" type="line"/>
      <point x="772.57" y="167.056" type="line" smooth="yes"/>
      <point x="772.57" y="131.23"/>
      <point x="801" y="103.006"/>
      <point x="820.62" y="103.006" type="qcurve" smooth="yes"/>
      <point x="843.67" y="103.006"/>
      <point x="876.927" y="138.676"/>
      <point x="894.547" y="214.157"/>
      <point x="894.547" y="271.967" type="qcurve" smooth="yes"/>
      <point x="894.547" y="348.413"/>
      <point x="841.72" y="474.084"/>
      <point x="742.67" y="565.53"/>
      <point x="606.413" y="614.754"/>
      <point x="523.38" y="614.754" type="qcurve" smooth="yes"/>
      <point x="439.743" y="614.754"/>
      <point x="302.28" y="561.134"/>
      <point x="204.04" y="464.1"/>
      <point x="150.816" y="331.843"/>
      <point x="150.816" y="253.603" type="qcurve" smooth="yes"/>
      <point x="150.816" y="173.967"/>
      <point x="203.04" y="40.7097"/>
      <point x="300.28" y="-56.3237"/>
      <point x="436.14" y="-109.547"/>
      <point x="519.38" y="-109.547" type="qcurve" smooth="yes"/>
      <point x="566.967" y="-109.547"/>
      <point x="668.57" y="-88.5471"/>
      <point x="715.95" y="-65.5471" type="qcurve"/>
      <point x="747.693" y="-158.38" type="line"/>
      <point x="702.09" y="-180.983"/>
      <point x="578.536" y="-205.777"/>
    </contour>
    <contour>
      <point x="482.91" y="-7.18997" type="qcurve" smooth="yes"/>
      <point x="418.653" y="-7.18997"/>
      <point x="313.81" y="56.4301"/>
      <point x="251.603" y="170.843"/>
      <point x="251.603" y="246.033" type="qcurve" smooth="yes"/>
      <point x="251.603" y="321.223"/>
      <point x="313.413" y="434.637"/>
      <point x="418.257" y="497.653"/>
      <point x="482.91" y="497.653" type="qcurve" smooth="yes"/>
      <point x="549.324" y="497.653"/>
      <point x="643.201" y="438.067"/>
      <point x="693.267" y="325.86"/>
      <point x="693.267" y="246.033" type="qcurve" smooth="yes"/>
      <point x="693.267" y="166.603"/>
      <point x="644.994" y="53"/>
      <point x="552.117" y="-7.18997"/>
    </contour>
    <contour>
      <point x="514.38" y="108.179" type="qcurve" smooth="yes"/>
      <point x="550.464" y="108.179"/>
      <point x="606.597" y="140.643"/>
      <point x="639.474" y="202.76"/>
      <point x="639.474" y="246.033" type="qcurve" smooth="yes"/>
      <point x="639.474" y="289.91"/>
      <point x="606.597" y="350.424"/>
      <point x="550.464" y="382.284"/>
      <point x="514.38" y="382.284" type="qcurve" smooth="yes"/>
      <point x="478.09" y="382.284"/>
      <point x="421.559" y="349.821"/>
      <point x="390.286" y="288.704"/>
      <point x="390.286" y="246.033" type="qcurve" smooth="yes"/>
      <point x="390.286" y="203.363"/>
      <point x="421.559" y="141.85"/>
      <point x="478.09" y="108.179"/>
    </contour>
  </outline>
</glyph>
<glyph name="C" format="2">
  <advance width="733"/>
  <unicode hex="0043"/>
  <anchor x="420.413" y="701" name="t.uni0308"/>
  <anchor x="387.777" y="0" name="b.uni0324_3"/>
  <outline>
    <contour>
      <point x="418.397" y="-11.7766" type="qcurve" smooth="yes"/>
      <point x="336.81" y="-11.7766"/>
      <point x="198.033" y="41.2234"/>
      <point x="96.0501" y="138.62"/>
      <point x="39.2568" y="270.81"/>
      <point x="39.2568" y="350" type="qcurve" smooth="yes"/>
      <point x="39.2568" y="429.19"/>
      <point x="96.0501" y="561.38"/>
      <point x="198.637" y="658.777"/>
      <point x="337.413" y="711.777"/>
      <point x="419" y="711.777" type="qcurve" smooth="yes"/>
      <point x="509.933" y="711.777"/>
      <point x="657.47" y="648.827"/>
      <point x="707.056" y="588.067" type="qcurve"/>
      <point x="603.307" y="491.871" type="line"/>
      <point x="567.48" y="532.681"/>
      <point x="479.207" y="574.474"/>
      <point x="426.777" y="574.474" type="qcurve" smooth="yes"/>
      <point x="377.71" y="574.474"/>
      <point x="295.989" y="542.027"/>
      <point x="236.096" y="482.15"/>
      <point x="203.046" y="399.653"/>
      <point x="203.046" y="350" type="qcurve" smooth="yes"/>
      <point x="203.046" y="300.347"/>
      <point x="236.096" y="217.85"/>
      <point x="295.989" y="157.973"/>
      <point x="377.71" y="125.526"/>
      <point x="426.777" y="125.526" type="qcurve" smooth="yes"/>
      <point x="479.207" y="125.526"/>
      <point x="567.48" y="167.319"/>
      <point x="603.307" y="208.733" type="qcurve"/>
      <point x="707.056" y="112.536" type="line"/>
      <point x="657.47" y="52.1733"/>
      <point x="509.933" y="-11.7766"/>
    </contour>
  </outline>
</glyph>
<glyph name="D" format="2">
  <advance width="826"/>
  <unicode hex="0044"/>
  <anchor x="350.553" y="700" name="t.uni0308"/>
  <anchor x="207.81" y="355" name="t.uni0307_1"/>
  <anchor x="351.95" y="0" name="b.uni0324_3"/>
  <outline>
    <contour>
      <point x="82.9437" y="0" type="line"/>
      <point x="82.9437" y="700" type="line"/>
      <point x="400.793" y="700" type="line" smooth="yes"/>
      <point x="515.38" y="700"/>
      <point x="689.157" y="613.19"/>
      <point x="786.743" y="456.587"/>
      <point x="786.743" y="350.397" type="qcurve" smooth="yes"/>
      <point x="786.743" y="243.81"/>
      <point x="689.157" y="86.81"/>
      <point x="515.38" y="0"/>
      <point x="400.793" y="0" type="qcurve" smooth="yes"/>
    </contour>
    <contour>
      <point x="245.336" y="132.716" type="line"/>
      <point x="393.207" y="132.716" type="line" smooth="yes"/>
      <point x="463.117" y="132.716"/>
      <point x="565.871" y="185.799"/>
      <point x="622.954" y="283.726"/>
      <point x="622.954" y="350.397" type="qcurve" smooth="yes"/>
      <point x="622.954" y="417.274"/>
      <point x="565.871" y="514.201"/>
      <point x="463.117" y="567.284"/>
      <point x="393.207" y="567.284" type="qcurve" smooth="yes"/>
      <point x="245.336" y="567.284" type="line"/>
    </contour>
  </outline>
</glyph>
<glyph name="E" format="2">
  <advance width="671"/>
  <unicode hex="0045"/>
  <anchor x="337.777" y="700" name="t.uni0308"/>
  <anchor x="332.95" y="0" name="b.uni0324_3"/>
  <anchor x="649.257" y="0" name="m.uni0328_4"/>
  <outline>
    <contour>
      <point x="231.973" y="418.28" type="line"/>
      <point x="569.313" y="418.28" type="line"/>
      <point x="569.313" y="292.324" type="line"/>
      <point x="231.973" y="292.324" type="line"/>
    </contour>
    <contour>
      <point x="243.749" y="130.336" type="line"/>
      <point x="625.123" y="130.336" type="line"/>
      <point x="625.123" y="0" type="line"/>
      <point x="82.9437" y="0" type="line"/>
      <point x="82.9437" y="700" type="line"/>
      <point x="611.52" y="700" type="line"/>
      <point x="611.52" y="569.664" type="line"/>
      <point x="243.749" y="569.664" type="line"/>
    </contour>
  </outline>
</glyph>
<glyph name="F" format="2">
  <advance width="639"/>
  <unicode hex="0046"/>
  <outline>
    <contour>
      <point x="232.956" y="385.106" type="line"/>
      <point x="569.313" y="385.106" type="line"/>
      <point x="569.313" y="254.77" type="line"/>
      <point x="232.956" y="254.77" type="line"/>
    </contour>
    <contour>
      <point x="245.336" y="0" type="line"/>
      <point x="82.9437" y="0" type="line"/>
      <point x="82.9437" y="700" type="line"/>
      <point x="611.52" y="700" type="line"/>
      <point x="611.52" y="569.664" type="line"/>
      <point x="245.336" y="569.664" type="line"/>
    </contour>
  </outline>
</glyph>
<glyph name="H" format="2">
  <advance width="808"/>
  <unicode hex="0048"/>
  <anchor x="400.19" y="700" name="t.uni0308"/>
  <anchor x="400.19" y="586.86" name="t.uni0307_1"/>
  <anchor x="400.19" y="0" name="b.uni0324_3"/>
  <outline>
    <contour>
      <point x="562.887" y="700" type="line"/>
      <point x="725.28" y="700" type="line"/>
      <point x="725.28" y="0" type="line"/>
      <point x="562.887" y="0" type="line"/>
    </contour>
    <contour>
      <point x="245.336" y="0" type="line"/>
      <point x="82.9437" y="0" type="line"/>
      <point x="82.9437" y="700" type="line"/>
      <point x="245.336" y="700" type="line"/>
    </contour>
    <contour>
      <point x="574.664" y="286.96" type="line"/>
      <point x="232.956" y="286.96" type="line"/>
      <point x="232.956" y="423.643" type="line"/>
      <point x="574.664" y="423.643" type="line"/>
    </contour>
  </outline>
</glyph>
<glyph name="I" format="2">
  <advance width="328"/>
  <unicode hex="0049"/>
  <anchor x="183.447" y="700" name="t.uni0308"/>
  <anchor x="183.447" y="0" name="b.uni0324_3"/>
  <anchor x="329.804" y="0" name="m.uni0328_4"/>
  <outline>
    <contour>
      <point x="82.9437" y="0" type="line"/>
      <point x="82.9437" y="700" type="line"/>
      <point x="245.336" y="700" type="line"/>
      <point x="245.336" y="0" type="line"/>
    </contour>
  </outline>
</glyph>
<glyph name="J" format="2">
  <advance width="541"/>
  <unicode hex="004A"/>
  <anchor x="309.117" y="700" name="t.uni0308"/>
  <outline>
    <contour>
      <point x="212.28" y="-11.7766" type="qcurve" smooth="yes"/>
      <point x="141.14" y="-11.7766"/>
      <point x="22.4134" y="40.6201"/>
      <point x="-16.1565" y="90.4134" type="qcurve"/>
      <point x="74.0395" y="197.576" type="line"/>
      <point x="102.643" y="159.956"/>
      <point x="166.9" y="121.336"/>
      <point x="204.347" y="121.336" type="qcurve" smooth="yes"/>
      <point x="303.274" y="121.336"/>
      <point x="303.274" y="237.296" type="qcurve" smooth="yes"/>
      <point x="303.274" y="569.664" type="line"/>
      <point x="57.4301" y="569.664" type="line"/>
      <point x="57.4301" y="700" type="line"/>
      <point x="464.476" y="700" type="line"/>
      <point x="464.476" y="246.47" type="line" smooth="yes"/>
      <point x="464.476" y="116.347"/>
      <point x="335.783" y="-11.7766"/>
    </contour>
  </outline>
</glyph>
<glyph name="L" format="2">
  <advance width="604"/>
  <unicode hex="004C"/>
  <anchor x="183.447" y="700" name="t.uni0308"/>
  <anchor x="497.274" y="464.53" name="t.periodcentered.loclCAT"/>
  <anchor x="183.447" y="411.464" name="t.uni0307_1"/>
  <anchor x="416.967" y="700" name="t.uni031B_2"/>
  <anchor x="340.777" y="0" name="b.uni0324_3"/>
  <outline>
    <contour>
      <point x="82.9437" y="0" type="line"/>
      <point x="82.9437" y="700" type="line"/>
      <point x="245.336" y="700" type="line"/>
      <point x="245.336" y="132.319" type="line"/>
      <point x="595.726" y="132.319" type="line"/>
      <point x="595.726" y="0" type="line"/>
    </contour>
  </outline>
</glyph>
<glyph name="O" format="2">
  <advance width="844"/>
  <unicode hex="004F"/>
  <anchor x="425.81" y="700" name="t.uni0308"/>
  <anchor x="425.81" y="350" name="t.uni0307_1"/>
  <anchor x="569.486" y="700" name="t.uni031B_2"/>
  <anchor x="425.81" y="0" name="b.uni0324_3"/>
  <anchor x="567.514" y="0" name="m.uni0328_4"/>
  <outline>
    <contour>
      <point x="422.587" y="-11.7766" type="qcurve" smooth="yes"/>
      <point x="339.603" y="-11.7766"/>
      <point x="199.43" y="42.2234"/>
      <point x="96.4468" y="140.017"/>
      <point x="39.2568" y="272.207"/>
      <point x="39.2568" y="350" type="qcurve" smooth="yes"/>
      <point x="39.2568" y="428.19"/>
      <point x="96.4468" y="559.983"/>
      <point x="199.43" y="657.777"/>
      <point x="339.603" y="711.777"/>
      <point x="422.19" y="711.777" type="qcurve" smooth="yes"/>
      <point x="505.173" y="711.777"/>
      <point x="644.347" y="658.38"/>
      <point x="747.33" y="560.587"/>
      <point x="804.52" y="428.793"/>
      <point x="804.52" y="350" type="qcurve" smooth="yes"/>
      <point x="804.52" y="271.603"/>
      <point x="747.33" y="139.413"/>
      <point x="644.347" y="41.6201"/>
      <point x="505.173" y="-11.7766"/>
    </contour>
    <contour>
      <point x="422.19" y="125.526" type="qcurve" smooth="yes"/>
      <point x="469.067" y="125.526"/>
      <point x="548.391" y="157.973"/>
      <point x="607.681" y="218.056"/>
      <point x="640.731" y="300.553"/>
      <point x="640.731" y="350" type="qcurve" smooth="yes"/>
      <point x="640.731" y="400.05"/>
      <point x="607.681" y="481.944"/>
      <point x="548.391" y="542.027"/>
      <point x="469.067" y="574.474"/>
      <point x="422.19" y="574.474" type="qcurve" smooth="yes"/>
      <point x="375.313" y="574.474"/>
      <point x="295.386" y="542.027"/>
      <point x="236.096" y="481.944"/>
      <point x="203.046" y="400.05"/>
      <point x="203.046" y="350" type="qcurve" smooth="yes"/>
      <point x="203.046" y="300.553"/>
      <point x="236.096" y="218.056"/>
      <point x="295.386" y="157.973"/>
      <point x="375.313" y="125.526"/>
    </contour>
  </outline>
</glyph>
<glyph name="P" format="2">
  <advance width="732"/>
  <unicode hex="0050"/>
  <outline>
    <contour>
      <point x="82.9437" y="0" type="line"/>
      <point x="82.9437" y="700" type="line"/>
      <point x="385.553" y="700" type="line" smooth="yes"/>
      <point x="479.933" y="700"/>
      <point x="616.296" y="639.017"/>
      <point x="690.073" y="524.843"/>
      <point x="690.073" y="446.257" type="qcurve" smooth="yes"/>
      <point x="690.073" y="368.274"/>
      <point x="616.296" y="254.497"/>
      <point x="479.933" y="193.117"/>
      <point x="385.553" y="193.117" type="qcurve" smooth="yes"/>
      <point x="172.916" y="193.117" type="line"/>
      <point x="245.336" y="265.76" type="line"/>
      <point x="245.336" y="0" type="line"/>
    </contour>
    <contour>
      <point x="245.336" y="248.207" type="line"/>
      <point x="172.916" y="325.04" type="line"/>
      <point x="377.19" y="325.04" type="line" smooth="yes"/>
      <point x="451.53" y="325.04"/>
      <point x="526.284" y="388.95"/>
      <point x="526.284" y="446.257" type="qcurve" smooth="yes"/>
      <point x="526.284" y="504.167"/>
      <point x="451.53" y="568.077"/>
      <point x="377.19" y="568.077" type="qcurve" smooth="yes"/>
      <point x="172.916" y="568.077" type="line"/>
      <point x="245.336" y="644.91" type="line"/>
    </contour>
  </outline>
</glyph>
<glyph name="Q" format="2">
  <advance width="844"/>
  <unicode hex="0051"/>
  <anchor x="426.81" y="700" name="t.uni0308"/>
  <outline>
    <contour>
      <point x="422.19" y="-11.7766" type="qcurve" smooth="yes"/>
      <point x="339.603" y="-11.7766"/>
      <point x="199.43" y="42.2234"/>
      <point x="96.4468" y="140.017"/>
      <point x="39.2568" y="272.207"/>
      <point x="39.2568" y="350" type="qcurve" smooth="yes"/>
      <point x="39.2568" y="428.19"/>
      <point x="96.4468" y="559.983"/>
      <point x="199.43" y="657.777"/>
      <point x="339.603" y="711.777"/>
      <point x="422.19" y="711.777" type="qcurve" smooth="yes"/>
      <point x="505.173" y="711.777"/>
      <point x="644.347" y="658.38"/>
      <point x="747.33" y="560.587"/>
      <point x="804.52" y="428.793"/>
      <point x="804.52" y="350" type="qcurve" smooth="yes"/>
      <point x="804.52" y="271.603"/>
      <point x="747.33" y="139.413"/>
      <point x="644.347" y="41.6201"/>
      <point x="505.173" y="-11.7766"/>
    </contour>
    <contour>
      <point x="651.19" y="-160.71" type="qcurve" smooth="yes"/>
      <point x="610.033" y="-160.71"/>
      <point x="536.894" y="-142.916"/>
      <point x="465.737" y="-102.536"/>
      <point x="389.391" y="-35.19"/>
      <point x="343.631" y="14.5699" type="qcurve"/>
      <point x="514.023" y="57.6763" type="line"/>
      <point x="541.04" y="20.6763"/>
      <point x="586.503" y="-22.9437"/>
      <point x="630.363" y="-41.3571"/>
      <point x="654.38" y="-41.3571" type="qcurve" smooth="yes"/>
      <point x="718.447" y="-41.3571"/>
      <point x="767.67" y="11.4863" type="qcurve"/>
      <point x="840.106" y="-75.3298" type="line"/>
      <point x="768.726" y="-160.71"/>
    </contour>
    <contour>
      <point x="422.19" y="125.526" type="qcurve" smooth="yes"/>
      <point x="469.067" y="125.526"/>
      <point x="548.391" y="157.973"/>
      <point x="607.681" y="218.056"/>
      <point x="640.731" y="300.553"/>
      <point x="640.731" y="350" type="qcurve" smooth="yes"/>
      <point x="640.731" y="400.05"/>
      <point x="607.681" y="481.944"/>
      <point x="548.391" y="542.027"/>
      <point x="469.067" y="574.474"/>
      <point x="422.19" y="574.474" type="qcurve" smooth="yes"/>
      <point x="375.313" y="574.474"/>
      <point x="295.386" y="542.027"/>
      <point x="236.096" y="481.944"/>
      <point x="203.046" y="400.05"/>
      <point x="203.046" y="350" type="qcurve" smooth="yes"/>
      <point x="203.046" y="300.553"/>
      <point x="236.096" y="218.056"/>
      <point x="295.386" y="157.973"/>
      <point x="375.313" y="125.526"/>
    </contour>
  </outline>
</glyph>
<glyph name="R" format="2">
  <advance width="735"/>
  <unicode hex="0052"/>
  <anchor x="382.62" y="700" name="t.uni0308"/>
  <anchor x="382.62" y="0" name="b.uni0324_3"/>
  <outline>
    <contour>
      <point x="82.9437" y="0" type="line"/>
      <point x="82.9437" y="700" type="line"/>
      <point x="385.553" y="700" type="line" smooth="yes"/>
      <point x="479.933" y="700"/>
      <point x="616.296" y="639.017"/>
      <point x="690.073" y="524.843"/>
      <point x="690.073" y="446.257" type="qcurve" smooth="yes"/>
      <point x="690.073" y="368.274"/>
      <point x="616.296" y="255.497"/>
      <point x="479.933" y="195.307"/>
      <point x="385.553" y="195.307" type="qcurve" smooth="yes"/>
      <point x="172.916" y="195.307" type="line"/>
      <point x="245.336" y="265.76" type="line"/>
      <point x="245.336" y="0" type="line"/>
    </contour>
    <contour>
      <point x="528.491" y="0" type="line"/>
      <point x="352.871" y="254.397" type="line"/>
      <point x="526.246" y="254.397" type="line"/>
      <point x="703.263" y="0" type="line"/>
    </contour>
    <contour>
      <point x="245.336" y="248.207" type="line"/>
      <point x="172.916" y="324.436" type="line"/>
      <point x="377.19" y="324.436" type="line" smooth="yes"/>
      <point x="451.53" y="324.436"/>
      <point x="526.284" y="388.95"/>
      <point x="526.284" y="446.257" type="qcurve" smooth="yes"/>
      <point x="526.284" y="504.167"/>
      <point x="451.53" y="568.077"/>
      <point x="377.19" y="568.077" type="qcurve" smooth="yes"/>
      <point x="172.916" y="568.077" type="line"/>
      <point x="245.336" y="644.91" type="line"/>
    </contour>
  </outline>
</glyph>
<glyph name="T" format="2">
  <advance width="618"/>
  <unicode hex="0054"/>
  <anchor x="340.877" y="700" name="t.uni0308"/>
  <anchor x="340.877" y="302.933" name="t.uni0307_1"/>
  <anchor x="340.877" y="0" name="b.uni0324_3"/>
  <outline>
    <contour>
      <point x="227.704" y="0" type="line"/>
      <point x="227.704" y="567.681" type="line"/>
      <point x="4" y="567.681" type="line"/>
      <point x="4" y="700" type="line"/>
      <point x="613.799" y="700" type="line"/>
      <point x="613.799" y="567.681" type="line"/>
      <point x="390.096" y="567.681" type="line"/>
      <point x="390.096" y="0" type="line"/>
    </contour>
  </outline>
</glyph>
<glyph name="U" format="2">
  <advance width="788"/>
  <unicode hex="0055"/>
  <anchor x="393.397" y="700" name="t.uni0308"/>
  <anchor x="631.553" y="700" name="t.uni031B_2"/>
  <anchor x="393.397" y="0" name="b.uni0324_3"/>
  <anchor x="629.653" y="0" name="m.uni0328_4"/>
  <outline>
    <contour>
      <point x="393.81" y="-11.7766" type="qcurve" smooth="yes"/>
      <point x="244.877" y="-11.7766"/>
      <point x="76.9437" y="153.777"/>
      <point x="76.9437" y="308.363" type="qcurve" smooth="yes"/>
      <point x="76.9437" y="700" type="line"/>
      <point x="239.336" y="700" type="line"/>
      <point x="239.336" y="313.553" type="line" smooth="yes"/>
      <point x="239.336" y="214.246"/>
      <point x="321.47" y="125.526"/>
      <point x="395.207" y="125.526" type="qcurve" smooth="yes"/>
      <point x="469.34" y="125.526"/>
      <point x="551.077" y="214.246"/>
      <point x="551.077" y="313.553" type="qcurve" smooth="yes"/>
      <point x="551.077" y="700" type="line"/>
      <point x="710.676" y="700" type="line"/>
      <point x="710.676" y="308.363" type="line" smooth="yes"/>
      <point x="710.676" y="153.777"/>
      <point x="542.743" y="-11.7766"/>
    </contour>
  </outline>
</glyph>
<glyph name="V" format="2">
  <advance width="746"/>
  <unicode hex="0056"/>
  <outline>
    <contour>
      <point x="293.29" y="0" type="line"/>
      <point x="-9.34651" y="700" type="line"/>
      <point x="166.219" y="700" type="line"/>
      <point x="429.543" y="80.0395" type="line"/>
      <point x="326.81" y="80.0395" type="line"/>
      <point x="594.72" y="700" type="line"/>
      <point x="755.526" y="700" type="line"/>
      <point x="453.492" y="0" type="line"/>
    </contour>
  </outline>
</glyph>
<glyph name="W" format="2">
  <advance width="1163"/>
  <unicode hex="0057"/>
  <anchor x="619.894" y="700" name="t.uni0308"/>
  <anchor x="619.894" y="0" name="b.uni0324_3"/>
  <outline>
    <contour>
      <point x="251.497" y="0" type="line"/>
      <point x="22.0669" y="700" type="line"/>
      <point x="189.649" y="700" type="line"/>
      <point x="388.749" y="80.0395" type="line"/>
      <point x="304.76" y="80.0395" type="line"/>
      <point x="513.05" y="700" type="line"/>
      <point x="663.079" y="700" type="line"/>
      <point x="862.593" y="80.0395" type="line"/>
      <point x="781.793" y="80.0395" type="line"/>
      <point x="986.48" y="700" type="line"/>
      <point x="1141.1" y="700" type="line"/>
      <point x="911.666" y="0" type="line"/>
      <point x="738.307" y="0" type="line"/>
      <point x="560.933" y="544.334" type="line"/>
      <point x="607.213" y="544.334" type="line"/>
      <point x="425.459" y="0" type="line"/>
    </contour>
  </outline>
</glyph>
<glyph name="X" format="2">
  <advance width="714"/>
  <unicode hex="0058"/>
  <outline>
    <contour>
      <point x="3.46352" y="0" type="line"/>
      <point x="304" y="415.486" type="line"/>
      <point x="303.603" y="296.944" type="line"/>
      <point x="16.0836" y="700" type="line"/>
      <point x="199.632" y="700" type="line"/>
      <point x="398.559" y="419.486" type="line"/>
      <point x="321.76" y="418.486" type="line"/>
      <point x="518.497" y="700" type="line"/>
      <point x="694.062" y="700" type="line"/>
      <point x="407.749" y="304.134" type="line"/>
      <point x="407.749" y="419.866" type="line"/>
      <point x="710.872" y="0" type="line"/>
      <point x="524.134" y="0" type="line"/>
      <point x="317.967" y="296.737" type="line"/>
      <point x="391.973" y="297.134" type="line"/>
      <point x="189.202" y="0" type="line"/>
    </contour>
  </outline>
</glyph>
<glyph name="Z" format="2">
  <advance width="671"/>
  <unicode hex="005A"/>
  <anchor x="361.843" y="700" name="t.uni0308"/>
  <anchor x="358.827" y="0" name="b.uni0324_3"/>
  <outline>
    <contour>
      <point x="38.0334" y="0" type="line"/>
      <point x="38.0334" y="104.576" type="line"/>
      <point x="471.474" y="626.754" type="line"/>
      <point x="490.821" y="567.681" type="line"/>
      <point x="46.2234" y="567.681" type="line"/>
      <point x="46.2234" y="700" type="line"/>
      <point x="635.47" y="700" type="line"/>
      <point x="635.47" y="595.424" type="line"/>
      <point x="202.632" y="73.2462" type="line"/>
      <point x="182.682" y="132.319" type="line"/>
      <point x="649.66" y="132.319" type="line"/>
      <point x="649.66" y="0" type="line"/>
    </contour>
  </outline>
</glyph>
<glyph name="bracketleft" format="2">
  <advance width="368"/>
  <unicode hex="005B"/>
  <outline>
    <contour>
      <point x="82.9437" y="-194" type="line"/>
      <point x="82.9437" y="742" type="line"/>
      <point x="353.543" y="742" type="line"/>
      <point x="353.543" y="620.267" type="line"/>
      <point x="238.956" y="620.267" type="line"/>
      <point x="238.956" y="-72.2674" type="line"/>
      <point x="353.543" y="-72.2674" type="line"/>
      <point x="353.543" y="-194" type="line"/>
    </contour>
  </outline>
</glyph>
<glyph name="backslash" format="2">
  <advance width="392"/>
  <unicode hex="005C"/>
  <outline>
    <contour>
      <point x="425.699" y="-100" type="line"/>
      <point x="286.637" y="-100" type="line"/>
      <point x="-43.3632" y="842" type="line"/>
      <point x="95.6991" y="842" type="line"/>
    </contour>
  </outline>
</glyph>
<glyph name="bracketright" format="2">
  <advance width="368"/>
  <unicode hex="005D"/>
  <outline>
    <contour>
      <point x="285.426" y="-194" type="line"/>
      <point x="14.8267" y="-194" type="line"/>
      <point x="14.8267" y="-72.2674" type="line"/>
      <point x="129.413" y="-72.2674" type="line"/>
      <point x="129.413" y="620.267" type="line"/>
      <point x="14.8267" y="620.267" type="line"/>
      <point x="14.8267" y="742" type="line"/>
      <point x="285.426" y="742" type="line"/>
    </contour>
  </outline>
</glyph>
<glyph name="asciicircum" format="2">
  <advance width="600"/>
  <unicode hex="005E"/>
  <outline>
    <contour>
      <point x="57.117" y="140.81" type="line"/>
      <point x="237.894" y="559.19" type="line"/>
      <point x="362.799" y="559.19" type="line"/>
      <point x="542.973" y="140.81" type="line"/>
      <point x="423.05" y="140.81" type="line"/>
      <point x="266.43" y="518.257" type="line"/>
      <point x="333.66" y="518.257" type="line"/>
      <point x="177.04" y="140.81" type="line"/>
    </contour>
  </outline>
</glyph>
<glyph name="b" format="2">
  <advance width="690"/>
  <unicode hex="0062"/>
  <outline>
    <contour>
      <point x="389.66" y="-7.58663" type="qcurve" smooth="yes"/>
      <point x="319.486" y="-7.58663"/>
      <point x="217.23" y="51.81"/>
      <point x="162.956" y="174.793"/>
      <point x="162.956" y="269.173" type="qcurve" smooth="yes"/>
      <point x="162.956" y="363.76"/>
      <point x="219.626" y="485.743"/>
      <point x="322.28" y="545.536"/>
      <point x="389.66" y="545.536" type="qcurve" smooth="yes"/>
      <point x="465.883" y="545.536"/>
      <point x="587.09" y="477.536"/>
      <point x="657.883" y="353.553"/>
      <point x="657.883" y="269.173" type="qcurve" smooth="yes"/>
      <point x="657.883" y="184.793"/>
      <point x="587.09" y="60.81"/>
      <point x="465.883" y="-7.58663"/>
    </contour>
    <contour>
      <point x="72.3237" y="0" type="line"/>
      <point x="72.3237" y="742" type="line"/>
      <point x="228.336" y="742" type="line"/>
      <point x="228.336" y="429.353" type="line"/>
      <point x="218.336" y="269.777" type="line"/>
      <point x="220.956" y="110.201" type="line"/>
      <point x="220.956" y="0" type="line"/>
    </contour>
    <contour>
      <point x="362.81" y="120.146" type="qcurve" smooth="yes"/>
      <point x="401.687" y="120.146"/>
      <point x="463.407" y="155.609"/>
      <point x="500.077" y="223.313"/>
      <point x="500.077" y="269.173" type="qcurve" smooth="yes"/>
      <point x="500.077" y="316.033"/>
      <point x="463.407" y="382.34"/>
      <point x="401.687" y="417.804"/>
      <point x="362.81" y="417.804" type="qcurve" smooth="yes"/>
      <point x="323.933" y="417.804"/>
      <point x="262.213" y="382.34"/>
      <point x="225.543" y="316.033"/>
      <point x="225.543" y="269.173" type="qcurve" smooth="yes"/>
      <point x="225.543" y="223.313"/>
      <point x="262.213" y="155.609"/>
      <point x="323.933" y="120.146"/>
    </contour>
  </outline>
</glyph>
<glyph name="d" format="2">
  <advance width="692"/>
  <unicode hex="0064"/>
  <anchor x="493.207" y="643.017" name="t.uni0307_1"/>
  <anchor x="745.497" y="742" name="t.uni031B_2"/>
  <anchor x="395.274" y="0" name="b.uni0324_3"/>
  <outline>
    <contour>
      <point x="302.67" y="-7.58663" type="qcurve" smooth="yes"/>
      <point x="227.447" y="-7.58663"/>
      <point x="105.24" y="60.81"/>
      <point x="34.4468" y="184.793"/>
      <point x="34.4468" y="269.173" type="qcurve" smooth="yes"/>
      <point x="34.4468" y="353.553"/>
      <point x="105.24" y="477.536"/>
      <point x="227.447" y="545.536"/>
      <point x="302.67" y="545.536" type="qcurve" smooth="yes"/>
      <point x="371.05" y="545.536"/>
      <point x="472.704" y="485.743"/>
      <point x="529.374" y="363.76"/>
      <point x="529.374" y="269.173" type="qcurve" smooth="yes"/>
      <point x="529.374" y="174.793"/>
      <point x="475.1" y="51.81"/>
      <point x="373.843" y="-7.58663"/>
    </contour>
    <contour>
      <point x="329.52" y="120.146" type="qcurve" smooth="yes"/>
      <point x="368.397" y="120.146"/>
      <point x="430.117" y="155.609"/>
      <point x="466.787" y="223.313"/>
      <point x="466.787" y="269.173" type="qcurve" smooth="yes"/>
      <point x="466.787" y="316.033"/>
      <point x="430.117" y="382.34"/>
      <point x="368.397" y="417.804"/>
      <point x="329.52" y="417.804" type="qcurve" smooth="yes"/>
      <point x="290.643" y="417.804"/>
      <point x="228.923" y="382.34"/>
      <point x="192.252" y="316.033"/>
      <point x="192.252" y="269.173" type="qcurve" smooth="yes"/>
      <point x="192.252" y="223.313"/>
      <point x="228.923" y="155.609"/>
      <point x="290.643" y="120.146"/>
    </contour>
    <contour>
      <point x="471.374" y="0" type="line"/>
      <point x="471.374" y="110.201" type="line"/>
      <point x="473.994" y="269.777" type="line"/>
      <point x="463.994" y="429.353" type="line"/>
      <point x="463.994" y="742" type="line"/>
      <point x="620.006" y="742" type="line"/>
      <point x="620.006" y="0" type="line"/>
    </contour>
  </outline>
</glyph>
<glyph name="e" format="2">
  <advance width="631"/>
  <unicode hex="0065"/>
  <anchor x="336.05" y="556.05" name="t.uni0308"/>
  <anchor x="336.05" y="0" name="b.uni0324_3"/>
  <anchor x="571.704" y="0" name="m.uni0328_4"/>
  <outline>
    <contour>
      <point x="338.726" y="-7.58663" type="qcurve" smooth="yes"/>
      <point x="246.57" y="-7.58663"/>
      <point x="108.43" y="64"/>
      <point x="32.4635" y="189.38"/>
      <point x="32.4635" y="269.173" type="qcurve" smooth="yes"/>
      <point x="32.4635" y="349.76"/>
      <point x="106.827" y="474.743"/>
      <point x="236.967" y="545.536"/>
      <point x="318.933" y="545.536" type="qcurve" smooth="yes"/>
      <point x="398.123" y="545.536"/>
      <point x="524.866" y="478.52"/>
      <point x="598.816" y="353.726"/>
      <point x="598.816" y="266.76" type="qcurve" smooth="yes"/>
      <point x="598.816" y="257.777"/>
      <point x="597.419" y="234.81"/>
      <point x="596.419" y="225.223" type="qcurve"/>
      <point x="159.129" y="225.223" type="line"/>
      <point x="159.129" y="316.123" type="line"/>
      <point x="513.827" y="316.123" type="line"/>
      <point x="453.564" y="288.933" type="line"/>
      <point x="454.167" y="330.587"/>
      <point x="419.704" y="393.084"/>
      <point x="359.793" y="428.34"/>
      <point x="319.726" y="428.34" type="qcurve" smooth="yes"/>
      <point x="279.66" y="428.34"/>
      <point x="218.749" y="393.084"/>
      <point x="185.286" y="329.983"/>
      <point x="185.286" y="287.123" type="qcurve" smooth="yes"/>
      <point x="185.286" y="262.777" type="line" smooth="yes"/>
      <point x="185.286" y="218.726"/>
      <point x="224.146" y="152.436"/>
      <point x="295.453" y="116.576"/>
      <point x="343.313" y="116.576" type="qcurve" smooth="yes"/>
      <point x="386.14" y="116.576"/>
      <point x="450.827" y="142.609"/>
      <point x="478.43" y="169.246" type="qcurve"/>
      <point x="561.436" y="79.2067" type="line"/>
      <point x="523.85" y="36.81"/>
      <point x="412.28" y="-7.58663"/>
    </contour>
  </outline>
</glyph>
<glyph name="f" format="2">
  <advance width="387"/>
  <unicode hex="0066"/>
  <outline>
    <contour>
      <point x="91.2903" y="0" type="line"/>
      <point x="91.2903" y="550.167" type="line" smooth="yes"/>
      <point x="91.2903" y="641.084"/>
      <point x="198.983" y="749.587"/>
      <point x="299.09" y="749.587" type="qcurve" smooth="yes"/>
      <point x="332.676" y="749.587"/>
      <point x="396.023" y="735.983"/>
      <point x="418.006" y="721.38" type="qcurve"/>
      <point x="377.28" y="608.424" type="line"/>
      <point x="364.47" y="617.044"/>
      <point x="331.833" y="627.457"/>
      <point x="314.213" y="627.457" type="qcurve" smooth="yes"/>
      <point x="279.956" y="627.457"/>
      <point x="242.716" y="588.407"/>
      <point x="242.716" y="548.77" type="qcurve" smooth="yes"/>
      <point x="242.716" y="498.637" type="line"/>
      <point x="247.302" y="431.581" type="line"/>
      <point x="247.302" y="0" type="line"/>
    </contour>
    <contour>
      <point x="7.84346" y="406.301" type="line"/>
      <point x="7.84346" y="526.05" type="line"/>
      <point x="381.023" y="526.05" type="line"/>
      <point x="381.023" y="406.301" type="line"/>
    </contour>
  </outline>
</glyph>
<glyph name="g" format="2">
  <advance width="700"/>
  <unicode hex="0067"/>
  <anchor x="365.257" y="556.05" name="t.uni0308"/>
  <outline>
    <contour>
      <point x="324.983" y="-201.587" type="qcurve" smooth="yes"/>
      <point x="248.81" y="-201.587"/>
      <point x="108.017" y="-164.57"/>
      <point x="60.6368" y="-128.157" type="qcurve"/>
      <point x="122.76" y="-15.7872" type="line"/>
      <point x="157.173" y="-43.8039"/>
      <point x="261.603" y="-77.0273"/>
      <point x="313.447" y="-77.0273" type="qcurve" smooth="yes"/>
      <point x="396.117" y="-77.0273"/>
      <point x="471.201" y="-2.94375"/>
      <point x="471.201" y="70.1565" type="qcurve" smooth="yes"/>
      <point x="471.201" y="150.547" type="line"/>
      <point x="481.201" y="286.157" type="line"/>
      <point x="478.581" y="422.369" type="line"/>
      <point x="478.581" y="537.95" type="line"/>
      <point x="627.213" y="537.95" type="line"/>
      <point x="627.213" y="89.693" type="line" smooth="yes"/>
      <point x="627.213" y="-59.6535"/>
      <point x="470.52" y="-201.587"/>
    </contour>
    <contour>
      <point x="300.894" y="25.7766" type="qcurve" smooth="yes"/>
      <point x="226.464" y="25.7766"/>
      <point x="104.653" y="90.7766"/>
      <point x="32.4635" y="207.57"/>
      <point x="32.4635" y="286.157" type="qcurve" smooth="yes"/>
      <point x="32.4635" y="364.743"/>
      <point x="104.653" y="481.536"/>
      <point x="226.464" y="545.536"/>
      <point x="300.894" y="545.536" type="qcurve" smooth="yes"/>
      <point x="369.48" y="545.536"/>
      <point x="472.547" y="490.743"/>
      <point x="531.027" y="375.553"/>
      <point x="531.027" y="286.157" type="qcurve" smooth="yes"/>
      <point x="531.027" y="196.76"/>
      <point x="472.547" y="81.5699"/>
      <point x="369.48" y="25.7766"/>
    </contour>
    <contour>
      <point x="331.933" y="153.509" type="qcurve" smooth="yes"/>
      <point x="373.413" y="153.509"/>
      <point x="437.134" y="186.973"/>
      <point x="473.201" y="246.883"/>
      <point x="473.201" y="286.157" type="qcurve" smooth="yes"/>
      <point x="473.201" y="325.827"/>
      <point x="437.134" y="385.34"/>
      <point x="373.413" y="417.804"/>
      <point x="331.933" y="417.804" type="qcurve" smooth="yes"/>
      <point x="291.453" y="417.804"/>
      <point x="226.733" y="385.34"/>
      <point x="190.269" y="325.827"/>
      <point x="190.269" y="286.157" type="qcurve" smooth="yes"/>
      <point x="190.269" y="246.883"/>
      <point x="226.733" y="186.973"/>
      <point x="291.453" y="153.509"/>
    </contour>
  </outline>
</glyph>
<glyph name="h" format="2">
  <advance width="691"/>
  <unicode hex="0068"/>
  <anchor x="173.257" y="742" name="t.uni0308"/>
  <anchor x="220.637" y="643.017" name="t.uni0307_1"/>
  <anchor x="331.72" y="556.05" name="t.uni031B_2"/>
  <anchor x="360.43" y="0" name="b.uni0324_3"/>
  <outline>
    <contour>
      <point x="398.626" y="545.536" type="qcurve" smooth="yes"/>
      <point x="462.833" y="545.536"/>
      <point x="563.626" y="495.14"/>
      <point x="622.023" y="390.157"/>
      <point x="622.023" y="307.777" type="qcurve" smooth="yes"/>
      <point x="622.023" y="0" type="line"/>
      <point x="466.011" y="0" type="line"/>
      <point x="466.011" y="284.464" type="line" smooth="yes"/>
      <point x="466.011" y="349.34"/>
      <point x="408.894" y="411.044"/>
      <point x="357.38" y="411.044" type="qcurve" smooth="yes"/>
      <point x="319.9" y="411.044"/>
      <point x="260.989" y="379.787"/>
      <point x="228.336" y="316.1"/>
      <point x="228.336" y="266.05" type="qcurve" smooth="yes"/>
      <point x="228.336" y="0" type="line"/>
      <point x="72.3237" y="0" type="line"/>
      <point x="72.3237" y="742" type="line"/>
      <point x="228.336" y="742" type="line"/>
      <point x="228.336" y="388.81" type="line"/>
      <point x="193.04" y="433.603" type="line"/>
      <point x="222.023" y="488.363"/>
      <point x="329.816" y="545.536"/>
    </contour>
  </outline>
</glyph>
<glyph name="k" format="2">
  <advance width="660"/>
  <unicode hex="006B"/>
  <anchor x="173.257" y="742" name="t.uni0308"/>
  <anchor x="326.72" y="556.05" name="t.uni031B_2"/>
  <anchor x="327.223" y="0" name="b.uni0324_3"/>
  <outline>
    <contour>
      <point x="200.989" y="109.91" type="line"/>
      <point x="204.783" y="300.492" type="line"/>
      <point x="455.927" y="537.95" type="line"/>
      <point x="642.079" y="537.95" type="line"/>
      <point x="400.526" y="292.843" type="line"/>
      <point x="320.106" y="226.581" type="line"/>
    </contour>
    <contour>
      <point x="72.3237" y="0" type="line"/>
      <point x="72.3237" y="742" type="line"/>
      <point x="228.336" y="742" type="line"/>
      <point x="228.336" y="0" type="line"/>
    </contour>
    <contour>
      <point x="472.754" y="0" type="line"/>
      <point x="291.38" y="225.597" type="line"/>
      <point x="388.749" y="347.123" type="line"/>
      <point x="661.889" y="0" type="line"/>
    </contour>
  </outline>
</glyph>
<glyph name="l" format="2">
  <advance width="301"/>
  <unicode hex="006C"/>
  <anchor x="173.257" y="742" name="t.uni0308"/>
  <anchor x="459.441" y="376.033" name="t.periodcentered.loclCAT"/>
  <anchor x="173.257" y="376.033" name="t.uni0307_1"/>
  <anchor x="374.96" y="742" name="t.uni031B_2"/>
  <anchor x="173.257" y="0" name="b.uni0324_3"/>
  <outline>
    <contour>
      <point x="72.3237" y="0" type="line"/>
      <point x="72.3237" y="742" type="line"/>
      <point x="228.336" y="742" type="line"/>
      <point x="228.336" y="0" type="line"/>
    </contour>
  </outline>
</glyph>
<glyph name="m" format="2">
  <advance width="1049"/>
  <unicode hex="006D"/>
  <anchor x="514.173" y="0" name="b.uni0324_3"/>
  <outline>
    <contour>
      <point x="761.33" y="545.536" type="qcurve" smooth="yes"/>
      <point x="825.14" y="545.536"/>
      <point x="924.14" y="495.14"/>
      <point x="980.536" y="390.157"/>
      <point x="980.536" y="307.777" type="qcurve" smooth="yes"/>
      <point x="980.536" y="0" type="line"/>
      <point x="824.524" y="0" type="line"/>
      <point x="824.524" y="284.464" type="line" smooth="yes"/>
      <point x="824.524" y="349.34"/>
      <point x="770.614" y="411.044"/>
      <point x="722.497" y="411.044" type="qcurve" smooth="yes"/>
      <point x="688.017" y="411.044"/>
      <point x="634.296" y="380.184"/>
      <point x="604.436" y="318.48"/>
      <point x="604.436" y="270.017" type="qcurve" smooth="yes"/>
      <point x="604.436" y="0" type="line"/>
      <point x="448.424" y="0" type="line"/>
      <point x="448.424" y="284.464" type="line" smooth="yes"/>
      <point x="448.424" y="349.34"/>
      <point x="395.307" y="411.044"/>
      <point x="346.397" y="411.044" type="qcurve" smooth="yes"/>
      <point x="311.916" y="411.044"/>
      <point x="258.196" y="380.184"/>
      <point x="228.336" y="318.48"/>
      <point x="228.336" y="270.017" type="qcurve" smooth="yes"/>
      <point x="228.336" y="0" type="line"/>
      <point x="72.3237" y="0" type="line"/>
      <point x="72.3237" y="537.95" type="line"/>
      <point x="220.956" y="537.95" type="line"/>
      <point x="220.956" y="391.207" type="line"/>
      <point x="192.643" y="434" type="line"/>
      <point x="220.626" y="488.76"/>
      <point x="324.023" y="545.536"/>
      <point x="389.833" y="545.536" type="qcurve" smooth="yes"/>
      <point x="463.643" y="545.536"/>
      <point x="574.643" y="471.14"/>
      <point x="593.04" y="393.76" type="qcurve"/>
      <point x="537.916" y="408.983" type="line"/>
      <point x="564.9" y="471.553"/>
      <point x="683.52" y="545.536"/>
    </contour>
  </outline>
</glyph>
<glyph name="p" format="2">
  <advance width="690"/>
  <unicode hex="0070"/>
  <anchor x="360.793" y="556.05" name="t.uni0308"/>
  <anchor x="426.67" y="0" name="b.uni0324_3"/>
  <outline>
    <contour>
      <point x="389.66" y="-7.58663" type="qcurve" smooth="yes"/>
      <point x="322.28" y="-7.58663"/>
      <point x="219.626" y="52.2067"/>
      <point x="162.956" y="174.793"/>
      <point x="162.956" y="268.777" type="qcurve" smooth="yes"/>
      <point x="162.956" y="364.157"/>
      <point x="217.23" y="486.14"/>
      <point x="319.486" y="545.536"/>
      <point x="389.66" y="545.536" type="qcurve" smooth="yes"/>
      <point x="465.883" y="545.536"/>
      <point x="587.09" y="477.14"/>
      <point x="657.883" y="353.157"/>
      <point x="657.883" y="268.777" type="qcurve" smooth="yes"/>
      <point x="657.883" y="184.397"/>
      <point x="587.09" y="60.4134"/>
      <point x="465.883" y="-7.58663"/>
    </contour>
    <contour>
      <point x="72.3237" y="-194" type="line"/>
      <point x="72.3237" y="537.95" type="line"/>
      <point x="220.956" y="537.95" type="line"/>
      <point x="220.956" y="427.749" type="line"/>
      <point x="218.336" y="268.173" type="line"/>
      <point x="228.336" y="108.597" type="line"/>
      <point x="228.336" y="-194" type="line"/>
    </contour>
    <contour>
      <point x="362.81" y="120.146" type="qcurve" smooth="yes"/>
      <point x="401.687" y="120.146"/>
      <point x="463.407" y="155.609"/>
      <point x="500.077" y="222.916"/>
      <point x="500.077" y="268.777" type="qcurve" smooth="yes"/>
      <point x="500.077" y="315.637"/>
      <point x="463.407" y="382.34"/>
      <point x="401.687" y="417.804"/>
      <point x="362.81" y="417.804" type="qcurve" smooth="yes"/>
      <point x="323.933" y="417.804"/>
      <point x="262.213" y="382.34"/>
      <point x="225.543" y="315.637"/>
      <point x="225.543" y="268.777" type="qcurve" smooth="yes"/>
      <point x="225.543" y="222.916"/>
      <point x="262.213" y="155.609"/>
      <point x="323.933" y="120.146"/>
    </contour>
  </outline>
</glyph>
<glyph name="q" format="2">
  <advance width="690"/>
  <unicode hex="0071"/>
  <anchor x="348.05" y="556.05" name="t.uni0308"/>
  <anchor x="283.777" y="0" name="b.uni0324_3"/>
  <outline>
    <contour>
      <point x="300.687" y="-7.58663" type="qcurve" smooth="yes"/>
      <point x="225.464" y="-7.58663"/>
      <point x="103.257" y="60.4134"/>
      <point x="32.4635" y="184.397"/>
      <point x="32.4635" y="268.777" type="qcurve" smooth="yes"/>
      <point x="32.4635" y="353.157"/>
      <point x="103.257" y="477.14"/>
      <point x="225.464" y="545.536"/>
      <point x="300.687" y="545.536" type="qcurve" smooth="yes"/>
      <point x="371.86" y="545.536"/>
      <point x="473.117" y="486.14"/>
      <point x="527.391" y="364.157"/>
      <point x="527.391" y="268.777" type="qcurve" smooth="yes"/>
      <point x="527.391" y="174.793"/>
      <point x="470.72" y="52.2067"/>
      <point x="369.067" y="-7.58663"/>
    </contour>
    <contour>
      <point x="327.536" y="120.146" type="qcurve" smooth="yes"/>
      <point x="366.413" y="120.146"/>
      <point x="428.134" y="155.609"/>
      <point x="464.804" y="222.916"/>
      <point x="464.804" y="268.777" type="qcurve" smooth="yes"/>
      <point x="464.804" y="315.637"/>
      <point x="428.134" y="382.34"/>
      <point x="366.413" y="417.804"/>
      <point x="327.536" y="417.804" type="qcurve" smooth="yes"/>
      <point x="288.66" y="417.804"/>
      <point x="226.939" y="382.34"/>
      <point x="190.269" y="315.637"/>
      <point x="190.269" y="268.777" type="qcurve" smooth="yes"/>
      <point x="190.269" y="222.916"/>
      <point x="226.939" y="155.609"/>
      <point x="288.66" y="120.146"/>
    </contour>
    <contour>
      <point x="462.011" y="-194" type="line"/>
      <point x="462.011" y="108.597" type="line"/>
      <point x="472.011" y="268.173" type="line"/>
      <point x="469.391" y="427.749" type="line"/>
      <point x="469.391" y="537.95" type="line"/>
      <point x="618.023" y="537.95" type="line"/>
      <point x="618.023" y="-194" type="line"/>
    </contour>
  </outline>
</glyph>
<glyph name="r" format="2">
  <advance width="431"/>
  <unicode hex="0072"/>
  <anchor x="249.827" y="556.05" name="t.uni0308"/>
  <anchor x="173.257" y="0" name="b.uni0324_3"/>
  <outline>
    <contour>
      <point x="72.3237" y="0" type="line"/>
      <point x="72.3237" y="537.95" type="line"/>
      <point x="220.956" y="537.95" type="line"/>
      <point x="220.956" y="385.62" type="line"/>
      <point x="200.436" y="429.603" type="line"/>
      <point x="224.23" y="486.967"/>
      <point x="330.006" y="545.536"/>
      <point x="406.403" y="545.536" type="qcurve"/>
      <point x="406.403" y="401.647" type="line"/>
      <point x="396.23" y="403.044"/>
      <point x="379.866" y="404.441"/>
      <point x="371.486" y="404.441" type="qcurve" smooth="yes"/>
      <point x="306.609" y="404.441"/>
      <point x="228.336" y="330.927"/>
      <point x="228.336" y="253.86" type="qcurve" smooth="yes"/>
      <point x="228.336" y="0" type="line"/>
    </contour>
  </outline>
</glyph>
<glyph name="t" format="2">
  <advance width="435"/>
  <unicode hex="0074"/>
  <anchor x="202.48" y="681.464" name="t.uni0308"/>
  <anchor x="216.653" y="247.726" name="t.uni0307_1"/>
  <anchor x="375.547" y="742" name="t.uni031B_2"/>
  <anchor x="282.447" y="0" name="b.uni0324_3"/>
  <outline>
    <contour>
      <point x="292.28" y="-7.58663" type="qcurve" smooth="yes"/>
      <point x="196.777" y="-7.58663"/>
      <point x="91.2903" y="88.7432"/>
      <point x="91.2903" y="184.85" type="qcurve" smooth="yes"/>
      <point x="91.2903" y="657.33" type="line"/>
      <point x="247.302" y="657.33" type="line"/>
      <point x="247.302" y="187.453" type="line" smooth="yes"/>
      <point x="247.302" y="153.403"/>
      <point x="282.749" y="115.749"/>
      <point x="313.609" y="115.749" type="qcurve" smooth="yes"/>
      <point x="351.056" y="115.749"/>
      <point x="377.28" y="135.576" type="qcurve"/>
      <point x="418.609" y="25.6368" type="line"/>
      <point x="395.023" y="8.82674"/>
      <point x="328.056" y="-7.58663"/>
    </contour>
    <contour>
      <point x="7.84346" y="406.301" type="line"/>
      <point x="7.84346" y="526.05" type="line"/>
      <point x="381.023" y="526.05" type="line"/>
      <point x="381.023" y="406.301" type="line"/>
    </contour>
  </outline>
</glyph>
<glyph name="u" format="2">
  <advance width="687"/>
  <unicode hex="0075"/>
  <anchor x="352.827" y="556.05" name="t.uni0308"/>
  <anchor x="533.793" y="556.05" name="t.uni031B_2"/>
  <anchor x="352.827" y="0" name="b.uni0324_3"/>
  <anchor x="673.944" y="0" name="m.uni0328_4"/>
  <outline>
    <contour>
      <point x="299.117" y="-7.58663" type="qcurve" smooth="yes"/>
      <point x="231.704" y="-7.58663"/>
      <point x="127.307" y="43.6033"/>
      <point x="68.5137" y="151.173"/>
      <point x="68.5137" y="234.14" type="qcurve" smooth="yes"/>
      <point x="68.5137" y="537.95" type="line"/>
      <point x="224.526" y="537.95" type="line"/>
      <point x="224.526" y="257.453" type="line" smooth="yes"/>
      <point x="224.526" y="189.799"/>
      <point x="281.833" y="126.906"/>
      <point x="333.536" y="126.906" type="qcurve" smooth="yes"/>
      <point x="369.827" y="126.906"/>
      <point x="425.944" y="158.163"/>
      <point x="458.201" y="222.85"/>
      <point x="458.201" y="271.9" type="qcurve" smooth="yes"/>
      <point x="458.201" y="537.95" type="line"/>
      <point x="614.213" y="537.95" type="line"/>
      <point x="614.213" y="0" type="line"/>
      <point x="465.581" y="0" type="line"/>
      <point x="465.581" y="148.347" type="line"/>
      <point x="493.497" y="104.743" type="line"/>
      <point x="465.704" y="49.19"/>
      <point x="361.117" y="-7.58663"/>
    </contour>
  </outline>
</glyph>
<glyph name="w" format="2">
  <advance width="937"/>
  <unicode hex="0077"/>
  <anchor x="508.91" y="554.843" name="t.uni0308"/>
  <anchor x="508.91" y="0" name="b.uni0324_3"/>
  <outline>
    <contour>
      <point x="194.86" y="0" type="line"/>
      <point x="0.636773" y="537.95" type="line"/>
      <point x="148.269" y="537.95" type="line"/>
      <point x="309.163" y="75.2462" type="line"/>
      <point x="238.743" y="75.2462" type="line"/>
      <point x="406.637" y="537.95" type="line"/>
      <point x="538.906" y="537.95" type="line"/>
      <point x="701.609" y="75.2462" type="line"/>
      <point x="632.38" y="75.2462" type="line"/>
      <point x="798.274" y="537.95" type="line"/>
      <point x="935.939" y="537.95" type="line"/>
      <point x="741.113" y="0" type="line"/>
      <point x="590.497" y="0" type="line"/>
      <point x="447.14" y="397.251" type="line"/>
      <point x="492.626" y="397.251" type="line"/>
      <point x="345.476" y="0" type="line"/>
    </contour>
  </outline>
</glyph>
<glyph name="x" format="2">
  <advance width="595"/>
  <unicode hex="0078"/>
  <outline>
    <contour>
      <point x="3.6702" y="0" type="line"/>
      <point x="245.38" y="315.676" type="line"/>
      <point x="242.397" y="229.72" type="line"/>
      <point x="11.4802" y="537.95" type="line"/>
      <point x="186.236" y="537.95" type="line"/>
      <point x="331.973" y="337.04" type="line"/>
      <point x="266.33" y="334.866" type="line"/>
      <point x="416.827" y="537.95" type="line"/>
      <point x="583.236" y="537.95" type="line"/>
      <point x="350.716" y="232.877" type="line"/>
      <point x="351.319" y="317.453" type="line"/>
      <point x="591.252" y="0" type="line"/>
      <point x="413.704" y="0" type="line"/>
      <point x="260.95" y="213.514" type="line"/>
      <point x="326.386" y="204.737" type="line"/>
      <point x="174.459" y="0" type="line"/>
    </contour>
  </outline>
</glyph>
<glyph name="y" format="2">
  <advance width="598"/>
  <unicode hex="0079"/>
  <anchor x="332.307" y="556.05" name="t.uni0308"/>
  <anchor x="575.871" y="0" name="b.uni0324_3"/>
  <outline>
    <contour>
      <point x="139.833" y="-201.587" type="qcurve" smooth="yes"/>
      <point x="98.4529" y="-201.587"/>
      <point x="16.3131" y="-175.793"/>
      <point x="-10.4802" y="-152.587" type="qcurve"/>
      <point x="47.0228" y="-41.6307" type="line"/>
      <point x="65.2295" y="-57.6474"/>
      <point x="111.85" y="-76.0608"/>
      <point x="135.47" y="-76.0608" type="qcurve" smooth="yes"/>
      <point x="167.883" y="-76.0608"/>
      <point x="207.123" y="-45.0273"/>
      <point x="222.553" y="-9.16715" type="qcurve" smooth="yes"/>
      <point x="250.983" y="56.6763" type="line"/>
      <point x="263.363" y="73.8496" type="line"/>
      <point x="456.464" y="537.95" type="line"/>
      <point x="605.906" y="537.95" type="line"/>
      <point x="363.409" y="-33.3237" type="line"/>
      <point x="337.029" y="-98.0669"/>
      <point x="270.096" y="-171.81"/>
      <point x="188.783" y="-201.587"/>
    </contour>
    <contour>
      <point x="232.05" y="-20.7766" type="line"/>
      <point x="-7.75988" y="537.95" type="line"/>
      <point x="153.046" y="537.95" type="line"/>
      <point x="339.369" y="87.8161" type="line"/>
    </contour>
  </outline>
</glyph>
<glyph name="z" format="2">
  <advance width="543"/>
  <unicode hex="007A"/>
  <anchor x="302.067" y="556.05" name="t.uni0308"/>
  <anchor x="299.05" y="0" name="b.uni0324_3"/>
  <outline>
    <contour>
      <point x="35.4301" y="0" type="line"/>
      <point x="35.4301" y="94.4028" type="line"/>
      <point x="352.977" y="469.687" type="line"/>
      <point x="380.324" y="418.201" type="line"/>
      <point x="42.2234" y="418.201" type="line"/>
      <point x="42.2234" y="537.95" type="line"/>
      <point x="506.006" y="537.95" type="line"/>
      <point x="506.006" y="443.547" type="line"/>
      <point x="188.459" y="68.2629" type="line"/>
      <point x="159.906" y="119.749" type="line"/>
      <point x="515.196" y="119.749" type="line"/>
      <point x="515.196" y="0" type="line"/>
    </contour>
  </outline>
</glyph>
<glyph name="braceleft" format="2">
  <advance width="391"/>
  <unicode hex="007B"/>
  <outline>
    <contour>
      <point x="318.403" y="-194" type="line" smooth="yes"/>
      <point x="224.726" y="-194"/>
      <point x="129.447" y="-101.307"/>
      <point x="129.447" y="-15.3906" type="qcurve" smooth="yes"/>
      <point x="129.447" y="165.514" type="line" smooth="yes"/>
      <point x="129.447" y="190.324"/>
      <point x="105.447" y="212.53"/>
      <point x="85.2401" y="212.53" type="qcurve" smooth="yes"/>
      <point x="51.6368" y="212.53" type="line"/>
      <point x="51.6368" y="335.47" type="line"/>
      <point x="85.2401" y="335.47" type="line" smooth="yes"/>
      <point x="105.447" y="335.47"/>
      <point x="129.447" y="358.676"/>
      <point x="129.447" y="382.486" type="qcurve" smooth="yes"/>
      <point x="129.447" y="563.391" type="line" smooth="yes"/>
      <point x="129.447" y="649.91"/>
      <point x="224.726" y="742"/>
      <point x="318.403" y="742" type="qcurve" smooth="yes"/>
      <point x="376.113" y="742" type="line"/>
      <point x="376.113" y="620.267" type="line"/>
      <point x="358.269" y="620.267" type="line" smooth="yes"/>
      <point x="322.062" y="620.267"/>
      <point x="285.459" y="581.854"/>
      <point x="285.459" y="546.441" type="qcurve" smooth="yes"/>
      <point x="285.459" y="385.676" type="line" smooth="yes"/>
      <point x="285.459" y="341.536"/>
      <point x="261.302" y="292"/>
      <point x="210.403" y="269.62"/>
      <point x="170.28" y="265.017" type="qcurve"/>
      <point x="170.28" y="282.983" type="line"/>
      <point x="210.403" y="278.983"/>
      <point x="261.302" y="256"/>
      <point x="285.459" y="206.464"/>
      <point x="285.459" y="162.324" type="qcurve" smooth="yes"/>
      <point x="285.459" y="1.5593" type="line" smooth="yes"/>
      <point x="285.459" y="-33.8541"/>
      <point x="322.062" y="-72.2674"/>
      <point x="358.269" y="-72.2674" type="qcurve" smooth="yes"/>
      <point x="376.113" y="-72.2674" type="line"/>
      <point x="376.113" y="-194" type="line"/>
    </contour>
  </outline>
</glyph>
<glyph name="bar" format="2">
  <advance width="309"/>
  <unicode hex="007C"/>
  <outline>
    <contour>
      <point x="82.9437" y="-194" type="line"/>
      <point x="82.9437" y="742" type="line"/>
      <point x="225.593" y="742" type="line"/>
      <point x="225.593" y="-194" type="line"/>
    </contour>
  </outline>
</glyph>
<glyph name="braceright" format="2">
  <advance width="391"/>
  <unicode hex="007D"/>
  <outline>
    <contour>
      <point x="72.5365" y="-194" type="qcurve" smooth="yes"/>
      <point x="14.8267" y="-194" type="line"/>
      <point x="14.8267" y="-72.2674" type="line"/>
      <point x="32.6702" y="-72.2674" type="line" smooth="yes"/>
      <point x="69.4802" y="-72.2674"/>
      <point x="106.084" y="-33.8541"/>
      <point x="106.084" y="1.5593" type="qcurve" smooth="yes"/>
      <point x="106.084" y="162.324" type="line" smooth="yes"/>
      <point x="106.084" y="206.464"/>
      <point x="130.637" y="256"/>
      <point x="181.14" y="278.983"/>
      <point x="220.66" y="282.983" type="qcurve"/>
      <point x="220.66" y="265.017" type="line"/>
      <point x="181.14" y="269.62"/>
      <point x="130.637" y="292"/>
      <point x="106.084" y="341.536"/>
      <point x="106.084" y="385.676" type="qcurve" smooth="yes"/>
      <point x="106.084" y="546.441" type="line" smooth="yes"/>
      <point x="106.084" y="581.854"/>
      <point x="69.4802" y="620.267"/>
      <point x="32.6702" y="620.267" type="qcurve" smooth="yes"/>
      <point x="14.8267" y="620.267" type="line"/>
      <point x="14.8267" y="742" type="line"/>
      <point x="72.5365" y="742" type="line" smooth="yes"/>
      <point x="166.816" y="742"/>
      <point x="262.096" y="649.91"/>
      <point x="262.096" y="563.391" type="qcurve" smooth="yes"/>
      <point x="262.096" y="382.486" type="line" smooth="yes"/>
      <point x="262.096" y="358.676"/>
      <point x="286.096" y="335.47"/>
      <point x="305.699" y="335.47" type="qcurve" smooth="yes"/>
      <point x="339.302" y="335.47" type="line"/>
      <point x="339.302" y="212.53" type="line"/>
      <point x="305.699" y="212.53" type="line" smooth="yes"/>
      <point x="286.096" y="212.53"/>
      <point x="262.096" y="190.324"/>
      <point x="262.096" y="165.514" type="qcurve" smooth="yes"/>
      <point x="262.096" y="-15.3906" type="line" smooth="yes"/>
      <point x="262.096" y="-101.307"/>
      <point x="166.816" y="-194"/>
    </contour>
  </outline>
</glyph>
<glyph name="asciitilde" format="2">
  <advance width="599"/>
  <unicode hex="007E"/>
  <outline>
    <contour>
      <point x="399.95" y="250.687" type="qcurve" smooth="yes"/>
      <point x="364.743" y="250.687"/>
      <point x="310.933" y="277.307"/>
      <point x="267.123" y="311.134"/>
      <point x="229.106" y="337.754"/>
      <point x="209.09" y="337.754" type="qcurve" smooth="yes"/>
      <point x="181.66" y="337.754"/>
      <point x="149.23" y="296.307"/>
      <point x="147.23" y="260.274" type="qcurve"/>
      <point x="49.6535" y="260.274" type="line"/>
      <point x="51.6535" y="354.62"/>
      <point x="135.19" y="451.106"/>
      <point x="199.536" y="451.106" type="qcurve" smooth="yes"/>
      <point x="234.743" y="451.106"/>
      <point x="288.95" y="424.486"/>
      <point x="332.363" y="390.66"/>
      <point x="370.38" y="364.04"/>
      <point x="390.397" y="364.04" type="qcurve" smooth="yes"/>
      <point x="418.43" y="364.04"/>
      <point x="451.257" y="406.09"/>
      <point x="452.257" y="442.123" type="qcurve"/>
      <point x="549.833" y="442.123" type="line"/>
      <point x="548.23" y="347.777"/>
      <point x="464.9" y="250.687"/>
    </contour>
  </outline>
</glyph>
<glyph name="exclamdown" format="2">
  <advance width="289"/>
  <unicode hex="00A1"/>
  <outline>
    <contour>
      <point x="206.576" y="294.687" type="line"/>
      <point x="237.699" y="-154" type="line"/>
      <point x="52.1672" y="-154" type="line"/>
      <point x="82.6869" y="294.687" type="line"/>
    </contour>
    <contour>
      <point x="144.933" y="545.536" type="qcurve" smooth="yes"/>
      <point x="187.643" y="545.536"/>
      <point x="240.733" y="492.43"/>
      <point x="240.733" y="454.497" type="qcurve" smooth="yes"/>
      <point x="240.733" y="417.167"/>
      <point x="187.643" y="365.457"/>
      <point x="144.933" y="365.457" type="qcurve" smooth="yes"/>
      <point x="103.223" y="365.457"/>
      <point x="48.5304" y="417.167"/>
      <point x="48.5304" y="454.497" type="qcurve" smooth="yes"/>
      <point x="48.5304" y="492.43"/>
      <point x="103.223" y="545.536"/>
    </contour>
  </outline>
</glyph>
<glyph name="cent" format="2">
  <advance width="591"/>
  <unicode hex="00A2"/>
  <outline>
    <contour>
      <point x="273.257" y="-120" type="line"/>
      <point x="273.257" y="657.95" type="line"/>
      <point x="372.626" y="657.95" type="line"/>
      <point x="372.626" y="-120" type="line"/>
    </contour>
    <contour>
      <point x="331.933" y="-7.58663" type="qcurve" smooth="yes"/>
      <point x="245.173" y="-7.58663"/>
      <point x="109.43" y="63.2067"/>
      <point x="32.4635" y="188.587"/>
      <point x="32.4635" y="269.173" type="qcurve" smooth="yes"/>
      <point x="32.4635" y="350.363"/>
      <point x="109.43" y="474.743"/>
      <point x="245.173" y="545.536"/>
      <point x="331.933" y="545.536" type="qcurve" smooth="yes"/>
      <point x="416.85" y="545.536"/>
      <point x="543.163" y="475.223"/>
      <point x="572.576" y="409.48" type="qcurve"/>
      <point x="452.48" y="343.994" type="line"/>
      <point x="430.653" y="381.994"/>
      <point x="367.777" y="417.804"/>
      <point x="330.933" y="417.804" type="qcurve" smooth="yes"/>
      <point x="291.453" y="417.804"/>
      <point x="227.336" y="382.34"/>
      <point x="190.269" y="316.033"/>
      <point x="190.269" y="269.173" type="qcurve" smooth="yes"/>
      <point x="190.269" y="222.313"/>
      <point x="227.336" y="155.609"/>
      <point x="291.453" y="120.146"/>
      <point x="330.933" y="120.146" type="qcurve" smooth="yes"/>
      <point x="367.777" y="120.146"/>
      <point x="430.653" y="155.353"/>
      <point x="452.48" y="193.956" type="qcurve"/>
      <point x="572.576" y="128.47" type="line"/>
      <point x="543.163" y="63.3298"/>
      <point x="416.85" y="-7.58663"/>
    </contour>
  </outline>
</glyph>
<glyph name="sterling" format="2">
  <advance width="668"/>
  <unicode hex="00A3"/>
  <outline>
    <contour>
      <point x="130.257" y="16.9833" type="line"/>
      <point x="130.257" y="425.34" type="line" smooth="yes"/>
      <point x="130.257" y="514.67"/>
      <point x="207.017" y="643"/>
      <point x="352.536" y="711.777"/>
      <point x="455.28" y="711.777" type="qcurve" smooth="yes"/>
      <point x="516.676" y="711.777"/>
      <point x="616.833" y="688.777"/>
      <point x="656.04" y="665.76" type="qcurve"/>
      <point x="606.743" y="537.837" type="line"/>
      <point x="574.726" y="558.061"/>
      <point x="497.453" y="574.474"/>
      <point x="456.576" y="574.474" type="qcurve" smooth="yes"/>
      <point x="376.906" y="574.474"/>
      <point x="292.649" y="500.787"/>
      <point x="292.649" y="427.927" type="qcurve" smooth="yes"/>
      <point x="292.649" y="16.9833" type="line"/>
    </contour>
    <contour>
      <point x="30" y="0" type="line"/>
      <point x="30" y="130.336" type="line"/>
      <point x="636.47" y="130.336" type="line"/>
      <point x="636.47" y="0" type="line"/>
    </contour>
    <contour>
      <point x="30" y="301.497" type="line"/>
      <point x="30" y="398.503" type="line"/>
      <point x="532.816" y="398.503" type="line"/>
      <point x="532.816" y="301.497" type="line"/>
    </contour>
  </outline>
</glyph>
<glyph name="currency" format="2">
  <advance width="700"/>
  <unicode hex="00A4"/>
  <outline>
    <contour>
      <point x="136.464" y="441.134" type="line"/>
      <point x="25.2401" y="552.357" type="line"/>
      <point x="112.23" y="642.967" type="line"/>
      <point x="224.056" y="531.743" type="line"/>
    </contour>
    <contour>
      <point x="112.23" y="-7.96657" type="line"/>
      <point x="25.2401" y="82.6429" type="line"/>
      <point x="136.464" y="193.866" type="line"/>
      <point x="224.056" y="103.257" type="line"/>
    </contour>
    <contour>
      <point x="586.77" y="-7.96657" type="line"/>
      <point x="474.944" y="103.257" type="line"/>
      <point x="562.536" y="193.866" type="line"/>
      <point x="674.363" y="82.6429" type="line"/>
    </contour>
    <contour>
      <point x="562.536" y="441.134" type="line"/>
      <point x="474.944" y="531.743" type="line"/>
      <point x="586.77" y="642.967" type="line"/>
      <point x="674.363" y="552.357" type="line"/>
    </contour>
    <contour>
      <point x="349.603" y="61.7599" type="qcurve" smooth="yes"/>
      <point x="295.793" y="61.7599"/>
      <point x="199.777" y="102.363"/>
      <point x="127.76" y="173.173"/>
      <point x="86.5532" y="267.38"/>
      <point x="86.5532" y="320.587" type="qcurve" smooth="yes"/>
      <point x="86.5532" y="374.793"/>
      <point x="127.76" y="468.603"/>
      <point x="199.777" y="540.017"/>
      <point x="295.793" y="580.62"/>
      <point x="349.603" y="580.62" type="qcurve" smooth="yes"/>
      <point x="404.413" y="580.62"/>
      <point x="500.033" y="540.017"/>
      <point x="572.447" y="468.603"/>
      <point x="613.257" y="374.793"/>
      <point x="613.257" y="320.587" type="qcurve" smooth="yes"/>
      <point x="613.257" y="267.38"/>
      <point x="572.05" y="173.173"/>
      <point x="500.033" y="102.363"/>
      <point x="404.413" y="61.7599"/>
    </contour>
    <contour>
      <point x="349.603" y="185.476" type="qcurve" smooth="yes"/>
      <point x="388.497" y="185.476"/>
      <point x="452.251" y="222.163"/>
      <point x="491.144" y="283.503"/>
      <point x="491.144" y="320.587" type="qcurve" smooth="yes"/>
      <point x="491.144" y="358.274"/>
      <point x="452.251" y="420.217"/>
      <point x="388.497" y="457.301"/>
      <point x="349.603" y="457.301" type="qcurve" smooth="yes"/>
      <point x="311.313" y="457.301"/>
      <point x="247.559" y="420.217"/>
      <point x="209.666" y="358.274"/>
      <point x="209.666" y="320.587" type="qcurve" smooth="yes"/>
      <point x="209.666" y="283.503"/>
      <point x="247.559" y="222.163"/>
      <point x="311.313" y="185.476"/>
    </contour>
  </outline>
</glyph>
<glyph name="yen" format="2">
  <advance width="736"/>
  <unicode hex="00A5"/>
  <outline>
    <contour>
      <point x="286.91" y="0" type="line"/>
      <point x="286.91" y="305.793" type="line"/>
      <point x="324.017" y="204.011" type="line"/>
      <point x="-14.3298" y="700" type="line"/>
      <point x="158.632" y="700" type="line"/>
      <point x="424.146" y="313.313" type="line"/>
      <point x="322.017" y="313.313" type="line"/>
      <point x="588.927" y="700" type="line"/>
      <point x="750.543" y="700" type="line"/>
      <point x="412.989" y="204.011" type="line"/>
      <point x="449.302" y="305.793" type="line"/>
      <point x="449.302" y="0" type="line"/>
    </contour>
    <contour>
      <point x="99.7599" y="90.1672" type="line"/>
      <point x="99.7599" y="173.207" type="line"/>
      <point x="636.453" y="173.207" type="line"/>
      <point x="636.453" y="90.1672" type="line"/>
    </contour>
    <contour>
      <point x="99.7599" y="228.167" type="line"/>
      <point x="99.7599" y="311.207" type="line"/>
      <point x="636.453" y="311.207" type="line"/>
      <point x="636.453" y="228.167" type="line"/>
    </contour>
  </outline>
</glyph>
<glyph name="brokenbar" format="2">
  <advance width="309"/>
  <unicode hex="00A6"/>
  <outline>
    <contour>
      <point x="82.9437" y="392" type="line"/>
      <point x="82.9437" y="742" type="line"/>
      <point x="225.593" y="742" type="line"/>
      <point x="225.593" y="392" type="line"/>
    </contour>
    <contour>
      <point x="82.9437" y="-194" type="line"/>
      <point x="82.9437" y="156" type="line"/>
      <point x="225.593" y="156" type="line"/>
      <point x="225.593" y="-194" type="line"/>
    </contour>
  </outline>
</glyph>
<glyph name="section" format="2">
  <advance width="522"/>
  <unicode hex="00A7"/>
  <outline>
    <contour>
      <point x="373.486" y="146.207" type="qcurve"/>
      <point x="287.603" y="220.453" type="line"/>
      <point x="318.86" y="227.85"/>
      <point x="358.15" y="266.71"/>
      <point x="358.15" y="294.173" type="qcurve" smooth="yes"/>
      <point x="358.15" y="317.413"/>
      <point x="324.34" y="344.067"/>
      <point x="269.324" y="359.894"/>
      <point x="203.704" y="374.307"/>
      <point x="137.687" y="394.307"/>
      <point x="82.6702" y="428.497"/>
      <point x="48.8602" y="485.084"/>
      <point x="48.8602" y="529.48" type="qcurve" smooth="yes"/>
      <point x="48.8602" y="581.464"/>
      <point x="106.447" y="661.62"/>
      <point x="219.587" y="707.587"/>
      <point x="301.71" y="707.587" type="qcurve" smooth="yes"/>
      <point x="331.916" y="707.587"/>
      <point x="406.486" y="697.38"/>
      <point x="477.833" y="676.173"/>
      <point x="501.609" y="660.173" type="qcurve"/>
      <point x="456.503" y="550.994" type="line"/>
      <point x="418.123" y="574.597"/>
      <point x="335.726" y="594.011"/>
      <point x="292.916" y="594.011" type="qcurve" smooth="yes"/>
      <point x="237.246" y="594.011"/>
      <point x="186.526" y="562.34"/>
      <point x="186.526" y="535.067" type="qcurve" smooth="yes"/>
      <point x="186.526" y="514.827"/>
      <point x="219.336" y="490.173"/>
      <point x="274.353" y="475.347"/>
      <point x="339.973" y="460.933"/>
      <point x="405.593" y="439.933"/>
      <point x="460.609" y="403.14"/>
      <point x="493.419" y="343.743"/>
      <point x="493.419" y="298.347" type="qcurve" smooth="yes"/>
      <point x="493.419" y="247.743"/>
      <point x="430.023" y="165.983"/>
    </contour>
    <contour>
      <point x="243.123" y="-107.587" type="qcurve" smooth="yes"/>
      <point x="202.536" y="-107.587"/>
      <point x="117.967" y="-92.3799"/>
      <point x="45.2067" y="-65.9666"/>
      <point x="21.4301" y="-48.7599" type="qcurve"/>
      <point x="66.5365" y="61.0228" type="line"/>
      <point x="101.313" y="36.8161"/>
      <point x="199.503" y="5.98939"/>
      <point x="244.743" y="5.98939" type="qcurve" smooth="yes"/>
      <point x="288.62" y="5.98939"/>
      <point x="335.944" y="38.0563"/>
      <point x="335.944" y="64.9331" type="qcurve" smooth="yes"/>
      <point x="335.944" y="87.5699"/>
      <point x="302.134" y="112.62"/>
      <point x="248.117" y="128.05"/>
      <point x="182.1" y="141.464"/>
      <point x="115.877" y="161.067"/>
      <point x="61.8602" y="195.067"/>
      <point x="28.0501" y="252.067"/>
      <point x="28.0501" y="295.67" type="qcurve" smooth="yes"/>
      <point x="28.0501" y="352.464"/>
      <point x="91.8435" y="434.413"/>
      <point x="147.983" y="454.19" type="qcurve"/>
      <point x="232.66" y="379.944" type="line"/>
      <point x="202.006" y="372.944"/>
      <point x="163.319" y="334.29"/>
      <point x="163.319" y="306.827" type="qcurve" smooth="yes"/>
      <point x="163.319" y="283.587"/>
      <point x="197.129" y="256.933"/>
      <point x="252.146" y="240.503"/>
      <point x="318.766" y="226.693"/>
      <point x="384.783" y="206.693"/>
      <point x="439.799" y="171.9"/>
      <point x="473.609" y="114.313"/>
      <point x="473.609" y="69.9164" type="qcurve" smooth="yes"/>
      <point x="473.609" y="18.9331"/>
      <point x="418.816" y="-61.6201"/>
      <point x="315.66" y="-107.587"/>
    </contour>
  </outline>
</glyph>
<glyph name="copyright" format="2">
  <advance width="785"/>
  <unicode hex="00A9"/>
  <outline>
    <contour>
      <point x="391.257" y="-3" type="qcurve" smooth="yes"/>
      <point x="316.257" y="-3"/>
      <point x="188.257" y="51"/>
      <point x="92.2568" y="148"/>
      <point x="39.2568" y="276"/>
      <point x="39.2568" y="350" type="qcurve" smooth="yes"/>
      <point x="39.2568" y="424"/>
      <point x="93.2568" y="552"/>
      <point x="189.257" y="649"/>
      <point x="318.257" y="703"/>
      <point x="393.257" y="703" type="qcurve" smooth="yes"/>
      <point x="468.257" y="703"/>
      <point x="597.257" y="650"/>
      <point x="692.257" y="554"/>
      <point x="745.257" y="427"/>
      <point x="745.257" y="352" type="qcurve" smooth="yes"/>
      <point x="745.257" y="277"/>
      <point x="691.257" y="148"/>
      <point x="594.257" y="51"/>
      <point x="466.257" y="-3"/>
    </contour>
    <contour>
      <point x="391.257" y="62.073" type="qcurve" smooth="yes"/>
      <point x="452.084" y="62.073"/>
      <point x="556.134" y="106.693"/>
      <point x="633.374" y="185.33"/>
      <point x="676.597" y="290.777"/>
      <point x="676.597" y="352" type="qcurve" smooth="yes"/>
      <point x="676.597" y="413.223"/>
      <point x="634.374" y="517.67"/>
      <point x="558.53" y="594.704"/>
      <point x="455.084" y="637.927"/>
      <point x="393.257" y="637.927" type="qcurve" smooth="yes"/>
      <point x="331.43" y="637.927"/>
      <point x="226.777" y="594.307"/>
      <point x="150.14" y="515.67"/>
      <point x="107.916" y="410.827"/>
      <point x="107.916" y="350" type="qcurve" smooth="yes"/>
      <point x="107.916" y="289.173"/>
      <point x="150.14" y="184.33"/>
      <point x="226.38" y="105.693"/>
      <point x="330.43" y="62.073"/>
    </contour>
    <contour>
      <point x="404.24" y="147.777" type="qcurve" smooth="yes"/>
      <point x="342.447" y="147.777"/>
      <point x="246.05" y="199.38"/>
      <point x="191.257" y="290.793"/>
      <point x="191.257" y="350" type="qcurve" smooth="yes"/>
      <point x="191.257" y="409.207"/>
      <point x="246.05" y="500.62"/>
      <point x="342.447" y="552.223"/>
      <point x="404.24" y="552.223" type="qcurve" smooth="yes"/>
      <point x="464" y="552.223"/>
      <point x="553.57" y="501.274"/>
      <point x="574.587" y="457.324" type="qcurve"/>
      <point x="485.201" y="403.787" type="line"/>
      <point x="470.374" y="428.804"/>
      <point x="428.687" y="451.027"/>
      <point x="403.24" y="451.027" type="qcurve" smooth="yes"/>
      <point x="376.967" y="451.027"/>
      <point x="334.056" y="426.564"/>
      <point x="308.196" y="381.464"/>
      <point x="308.196" y="350" type="qcurve" smooth="yes"/>
      <point x="308.196" y="318.536"/>
      <point x="334.056" y="273.436"/>
      <point x="376.967" y="248.973"/>
      <point x="403.24" y="248.973" type="qcurve" smooth="yes"/>
      <point x="428.687" y="248.973"/>
      <point x="470.374" y="271.196"/>
      <point x="485.201" y="296.213" type="qcurve"/>
      <point x="574.587" y="243.883" type="line"/>
      <point x="553.57" y="199.726"/>
      <point x="464" y="147.777"/>
    </contour>
  </outline>
</glyph>
<glyph name="ordfeminine" format="2">
  <advance width="412"/>
  <unicode hex="00AA"/>
  <outline>
    <contour>
      <point x="260.894" y="424.223" type="line"/>
      <point x="260.894" y="486.05" type="line"/>
      <point x="252.91" y="499.24" type="line"/>
      <point x="252.91" y="610.653" type="line" smooth="yes"/>
      <point x="252.91" y="641.704"/>
      <point x="215.274" y="671.737"/>
      <point x="175.653" y="671.737" type="qcurve" smooth="yes"/>
      <point x="149.62" y="671.737"/>
      <point x="95.5866" y="655.72"/>
      <point x="76.7766" y="641.307" type="qcurve"/>
      <point x="40.2401" y="708.967" type="line"/>
      <point x="68.6201" y="728.173"/>
      <point x="151.397" y="749.587"/>
      <point x="190.793" y="749.587" type="qcurve" smooth="yes"/>
      <point x="272.536" y="749.587"/>
      <point x="360.66" y="679.62"/>
      <point x="360.66" y="605.67" type="qcurve" smooth="yes"/>
      <point x="360.66" y="424.223" type="line"/>
    </contour>
    <contour>
      <point x="155.653" y="419.43" type="qcurve" smooth="yes"/>
      <point x="92.2568" y="419.43"/>
      <point x="27.8602" y="476.413"/>
      <point x="27.8602" y="517.207" type="qcurve" smooth="yes"/>
      <point x="27.8602" y="560.983"/>
      <point x="98.4134" y="612.793"/>
      <point x="174.983" y="612.793" type="qcurve" smooth="yes"/>
      <point x="265.1" y="612.793" type="line"/>
      <point x="265.1" y="556.257" type="line"/>
      <point x="191.14" y="556.257" type="line" smooth="yes"/>
      <point x="158.676" y="556.257"/>
      <point x="129.626" y="538.223"/>
      <point x="129.626" y="521.397" type="qcurve" smooth="yes"/>
      <point x="129.626" y="504.157"/>
      <point x="158.693" y="485.726"/>
      <point x="183.553" y="485.726" type="qcurve" smooth="yes"/>
      <point x="208.62" y="485.726"/>
      <point x="244.29" y="504.76"/>
      <point x="252.91" y="523.38" type="qcurve"/>
      <point x="267.687" y="477.157" type="line"/>
      <point x="258.48" y="450.81"/>
      <point x="201.257" y="419.43"/>
    </contour>
  </outline>
</glyph>
<glyph name="logicalnot" format="2">
  <advance width="599"/>
  <unicode hex="00AC"/>
  <outline>
    <contour>
      <point x="537.85" y="411.47" type="line"/>
      <point x="537.85" y="114.91" type="line"/>
      <point x="408.53" y="114.91" type="line"/>
      <point x="408.53" y="289.737" type="line"/>
      <point x="61.6368" y="289.737" type="line"/>
      <point x="61.6368" y="411.47" type="line"/>
    </contour>
  </outline>
</glyph>
<glyph name="registered" format="2">
  <advance width="785"/>
  <unicode hex="00AE"/>
  <outline>
    <contour>
      <point x="391.257" y="-3" type="qcurve" smooth="yes"/>
      <point x="316.257" y="-3"/>
      <point x="188.257" y="51"/>
      <point x="92.2568" y="148"/>
      <point x="39.2568" y="276"/>
      <point x="39.2568" y="350" type="qcurve" smooth="yes"/>
      <point x="39.2568" y="424"/>
      <point x="93.2568" y="552"/>
      <point x="189.257" y="649"/>
      <point x="318.257" y="703"/>
      <point x="393.257" y="703" type="qcurve" smooth="yes"/>
      <point x="468.257" y="703"/>
      <point x="597.257" y="650"/>
      <point x="692.257" y="554"/>
      <point x="745.257" y="427"/>
      <point x="745.257" y="352" type="qcurve" smooth="yes"/>
      <point x="745.257" y="277"/>
      <point x="691.257" y="148"/>
      <point x="594.257" y="51"/>
      <point x="466.257" y="-3"/>
    </contour>
    <contour>
      <point x="484.821" y="155.967" type="line"/>
      <point x="388.597" y="304" type="line"/>
      <point x="492.967" y="304" type="line"/>
      <point x="589.19" y="155.967" type="line"/>
    </contour>
    <contour>
      <point x="391.257" y="62.073" type="qcurve" smooth="yes"/>
      <point x="452.084" y="62.073"/>
      <point x="556.134" y="106.693"/>
      <point x="633.374" y="185.33"/>
      <point x="676.597" y="290.777"/>
      <point x="676.597" y="352" type="qcurve" smooth="yes"/>
      <point x="676.597" y="413.223"/>
      <point x="634.374" y="517.67"/>
      <point x="558.53" y="594.704"/>
      <point x="455.084" y="637.927"/>
      <point x="393.257" y="637.927" type="qcurve" smooth="yes"/>
      <point x="331.43" y="637.927"/>
      <point x="226.777" y="594.307"/>
      <point x="150.14" y="515.67"/>
      <point x="107.916" y="410.827"/>
      <point x="107.916" y="350" type="qcurve" smooth="yes"/>
      <point x="107.916" y="289.173"/>
      <point x="150.14" y="184.33"/>
      <point x="226.38" y="105.693"/>
      <point x="330.43" y="62.073"/>
    </contour>
    <contour>
      <point x="238.927" y="155.967" type="line"/>
      <point x="238.927" y="544.033" type="line"/>
      <point x="407.67" y="544.033" type="line" smooth="yes"/>
      <point x="487.447" y="544.033"/>
      <point x="576.827" y="469.24"/>
      <point x="576.827" y="406.447" type="qcurve" smooth="yes"/>
      <point x="576.827" y="339.464"/>
      <point x="487.447" y="268.257"/>
      <point x="407.67" y="268.257" type="qcurve" smooth="yes"/>
      <point x="342.503" y="268.257" type="line"/>
      <point x="342.503" y="155.967" type="line"/>
    </contour>
    <contour>
      <point x="341.9" y="345.536" type="line"/>
      <point x="401.084" y="345.536" type="line" smooth="yes"/>
      <point x="436.167" y="345.536"/>
      <point x="475.061" y="377.793"/>
      <point x="475.061" y="406.447" type="qcurve" smooth="yes"/>
      <point x="475.061" y="435.1"/>
      <point x="436.167" y="466.754"/>
      <point x="401.084" y="466.754" type="qcurve" smooth="yes"/>
      <point x="341.9" y="466.754" type="line"/>
    </contour>
  </outline>
</glyph>
<glyph name="degree" format="2">
  <advance width="418"/>
  <unicode hex="00B0"/>
  <outline>
    <contour>
      <point x="208.603" y="365.894" type="qcurve" smooth="yes"/>
      <point x="160.017" y="365.894"/>
      <point x="80.0501" y="411.48"/>
      <point x="33.2735" y="489.257"/>
      <point x="33.2735" y="537.24" type="qcurve" smooth="yes"/>
      <point x="33.2735" y="585.223"/>
      <point x="80.0501" y="663"/>
      <point x="160.017" y="708.587"/>
      <point x="208.603" y="708.587" type="qcurve" smooth="yes"/>
      <point x="257.587" y="708.587"/>
      <point x="337.157" y="663"/>
      <point x="383.933" y="585.223"/>
      <point x="383.933" y="537.24" type="qcurve" smooth="yes"/>
      <point x="383.933" y="489.257"/>
      <point x="337.157" y="411.48"/>
      <point x="257.587" y="365.894"/>
    </contour>
    <contour>
      <point x="208.603" y="443.347" type="qcurve" smooth="yes"/>
      <point x="235.43" y="443.347"/>
      <point x="277.274" y="468.57"/>
      <point x="301.497" y="510.413"/>
      <point x="301.497" y="537.24" type="qcurve" smooth="yes"/>
      <point x="301.497" y="564.067"/>
      <point x="277.274" y="606.514"/>
      <point x="235.43" y="631.134"/>
      <point x="208.603" y="631.134" type="qcurve" smooth="yes"/>
      <point x="182.38" y="631.134"/>
      <point x="139.933" y="606.514"/>
      <point x="115.71" y="564.67"/>
      <point x="115.71" y="537.24" type="qcurve" smooth="yes"/>
      <point x="115.71" y="509.81"/>
      <point x="139.933" y="467.967"/>
      <point x="182.38" y="443.347"/>
    </contour>
  </outline>
</glyph>
<glyph name="plusminus" format="2">
  <advance width="599"/>
  <unicode hex="00B1"/>
  <outline>
    <contour>
      <point x="61.6368" y="0" type="line"/>
      <point x="61.6368" y="121.733" type="line"/>
      <point x="537.85" y="121.733" type="line"/>
      <point x="537.85" y="0" type="line"/>
    </contour>
    <contour>
      <point x="235.084" y="208.453" type="line"/>
      <point x="235.084" y="653.543" type="line"/>
      <point x="364.403" y="653.543" type="line"/>
      <point x="364.403" y="208.453" type="line"/>
    </contour>
    <contour>
      <point x="61.6368" y="371.916" type="line"/>
      <point x="61.6368" y="490.079" type="line"/>
      <point x="537.85" y="490.079" type="line"/>
      <point x="537.85" y="371.916" type="line"/>
    </contour>
  </outline>
</glyph>
<glyph name="paragraph" format="2">
  <advance width="686"/>
  <unicode hex="00B6"/>
  <outline>
    <contour>
      <point x="227.793" y="-100" type="line"/>
      <point x="227.793" y="359.547" type="line"/>
      <point x="166.793" y="360.944"/>
      <point x="70.0167" y="407.927"/>
      <point x="14.0334" y="493.497"/>
      <point x="14.0334" y="551.274" type="qcurve" smooth="yes"/>
      <point x="14.0334" y="609.653"/>
      <point x="73.6033" y="695.62"/>
      <point x="181.553" y="742"/>
      <point x="253.52" y="742" type="qcurve" smooth="yes"/>
      <point x="603.012" y="742" type="line"/>
      <point x="603.012" y="-100" type="line"/>
      <point x="475.916" y="-100" type="line"/>
      <point x="475.916" y="629.234" type="line"/>
      <point x="354.889" y="629.234" type="line"/>
      <point x="354.889" y="-100" type="line"/>
    </contour>
  </outline>
</glyph>
<glyph name="periodcentered" format="2">
  <advance width="302"/>
  <unicode hex="00B7"/>
  <outline>
    <contour>
      <point x="151.486" y="183.737" type="qcurve" smooth="yes"/>
      <point x="109.777" y="183.737"/>
      <point x="53.8769" y="238.24"/>
      <point x="53.8769" y="282.157" type="qcurve" smooth="yes"/>
      <point x="53.8769" y="326.073"/>
      <point x="109.777" y="379.179"/>
      <point x="151.486" y="379.179" type="qcurve" smooth="yes"/>
      <point x="194.196" y="379.179"/>
      <point x="248.492" y="326.073"/>
      <point x="248.492" y="282.157" type="qcurve" smooth="yes"/>
      <point x="248.492" y="238.24"/>
      <point x="194.196" y="183.737"/>
    </contour>
  </outline>
</glyph>
<glyph name="ordmasculine" format="2">
  <advance width="427"/>
  <unicode hex="00BA"/>
  <outline>
    <contour>
      <point x="214.57" y="419.43" type="qcurve" smooth="yes"/>
      <point x="158.793" y="419.43"/>
      <point x="73.4301" y="461.827"/>
      <point x="24.4468" y="537.017"/>
      <point x="24.4468" y="584.81" type="qcurve" smooth="yes"/>
      <point x="24.4468" y="633"/>
      <point x="73.4301" y="707.19"/>
      <point x="158.793" y="749.587"/>
      <point x="213.57" y="749.587" type="qcurve" smooth="yes"/>
      <point x="269.347" y="749.587"/>
      <point x="354.313" y="707.19"/>
      <point x="402.693" y="633"/>
      <point x="402.693" y="584.81" type="qcurve" smooth="yes"/>
      <point x="402.693" y="537.017"/>
      <point x="354.313" y="461.827"/>
      <point x="269.347" y="419.43"/>
    </contour>
    <contour>
      <point x="213.57" y="502.28" type="qcurve" smooth="yes"/>
      <point x="250.653" y="502.28"/>
      <point x="296.944" y="547.363"/>
      <point x="296.944" y="584.81" type="qcurve" smooth="yes"/>
      <point x="296.944" y="623.257"/>
      <point x="250.653" y="666.737"/>
      <point x="213.57" y="666.737" type="qcurve" smooth="yes"/>
      <point x="177.09" y="666.737"/>
      <point x="130.196" y="623.257"/>
      <point x="130.196" y="584.81" type="qcurve" smooth="yes"/>
      <point x="130.196" y="547.363"/>
      <point x="177.09" y="502.28"/>
    </contour>
  </outline>
</glyph>
<glyph name="questiondown" format="2">
  <advance width="589"/>
  <unicode hex="00BF"/>
  <outline>
    <contour>
      <point x="306.397" y="-165.38" type="qcurve" smooth="yes"/>
      <point x="231.413" y="-165.38"/>
      <point x="116.464" y="-122.38"/>
      <point x="52.307" y="-41"/>
      <point x="52.307" y="16.5699" type="qcurve" smooth="yes"/>
      <point x="52.307" y="55.7766"/>
      <point x="76.5137" y="113.777"/>
      <point x="115.324" y="157.38"/>
      <point x="157.134" y="194.587"/>
      <point x="195.944" y="229.207"/>
      <point x="220.15" y="269.05"/>
      <point x="220.15" y="294.687" type="qcurve"/>
      <point x="371.246" y="294.687" type="line"/>
      <point x="371.246" y="260.464"/>
      <point x="348.626" y="208.24"/>
      <point x="313.593" y="166.62"/>
      <point x="273.353" y="131.397"/>
      <point x="238.319" y="97.9666"/>
      <point x="215.699" y="61.5198"/>
      <point x="215.699" y="39.883" type="qcurve" smooth="yes"/>
      <point x="215.699" y="7.83285"/>
      <point x="274.609" y="-34.2674"/>
      <point x="323.123" y="-34.2674" type="qcurve" smooth="yes"/>
      <point x="371.413" y="-34.2674"/>
      <point x="444.91" y="5.14593"/>
      <point x="468.15" y="39.766" type="qcurve"/>
      <point x="589.436" y="-31.1337" type="line"/>
      <point x="549.023" y="-92.8769"/>
      <point x="407.693" y="-165.38"/>
    </contour>
    <contour>
      <point x="295.397" y="365.457" type="qcurve" smooth="yes"/>
      <point x="253.687" y="365.457"/>
      <point x="199.597" y="417.167"/>
      <point x="199.597" y="454.497" type="qcurve" smooth="yes"/>
      <point x="199.597" y="492.43"/>
      <point x="253.687" y="545.536"/>
      <point x="295.397" y="545.536" type="qcurve" smooth="yes"/>
      <point x="338.106" y="545.536"/>
      <point x="391.196" y="492.43"/>
      <point x="391.196" y="454.497" type="qcurve" smooth="yes"/>
      <point x="391.196" y="417.167"/>
      <point x="338.106" y="365.457"/>
    </contour>
  </outline>
</glyph>
<glyph name="AE" format="2">
  <advance width="1080"/>
  <unicode hex="00C6"/>
  <anchor x="655.804" y="700" name="t.uni0308"/>
  <anchor x="655.804" y="0" name="b.uni0324_3"/>
  <outline>
    <contour>
      <point x="-9.34651" y="0" type="line"/>
      <point x="385.597" y="700" type="line"/>
      <point x="547.196" y="700" type="line"/>
      <point x="547.196" y="569.664" type="line"/>
      <point x="407.927" y="569.664" type="line"/>
      <point x="506.486" y="637.72" type="line"/>
      <point x="157.046" y="0" type="line"/>
    </contour>
    <contour>
      <point x="196.676" y="149.754" type="line"/>
      <point x="199.693" y="272.693" type="line"/>
      <point x="547.196" y="272.693" type="line"/>
      <point x="547.196" y="149.754" type="line"/>
    </contour>
    <contour>
      <point x="641.169" y="418.28" type="line"/>
      <point x="978.509" y="418.28" type="line"/>
      <point x="978.509" y="292.324" type="line"/>
      <point x="640.565" y="292.324" type="line"/>
    </contour>
    <contour>
      <point x="652.945" y="130.336" type="line"/>
      <point x="1034.32" y="130.336" type="line"/>
      <point x="1034.32" y="0" type="line"/>
      <point x="492.14" y="0" type="line"/>
      <point x="492.14" y="700" type="line"/>
      <point x="1020.72" y="700" type="line"/>
      <point x="1020.72" y="569.664" type="line"/>
      <point x="652.945" y="569.664" type="line"/>
    </contour>
  </outline>
</glyph>
<glyph name="multiply" format="2">
  <advance width="599"/>
  <unicode hex="00D7"/>
  <outline>
    <contour>
      <point x="89.9103" y="224.57" type="line"/>
      <point x="425.777" y="562.85" type="line"/>
      <point x="510.179" y="475.43" type="line"/>
      <point x="173.71" y="137.15" type="line"/>
    </contour>
    <contour>
      <point x="89.9103" y="475.43" type="line"/>
      <point x="173.71" y="562.85" type="line"/>
      <point x="510.179" y="224.57" type="line"/>
      <point x="425.777" y="137.15" type="line"/>
    </contour>
  </outline>
</glyph>
<glyph name="Thorn" format="2">
  <advance width="732"/>
  <unicode hex="00DE"/>
  <outline>
    <contour>
      <point x="210.609" y="115.257" type="line"/>
      <point x="210.609" y="247.179" type="line"/>
      <point x="377.19" y="247.179" type="line" smooth="yes"/>
      <point x="451.53" y="247.179"/>
      <point x="526.284" y="311.693"/>
      <point x="526.284" y="369" type="qcurve" smooth="yes"/>
      <point x="526.284" y="426.91"/>
      <point x="451.53" y="490.821"/>
      <point x="377.19" y="490.821" type="qcurve" smooth="yes"/>
      <point x="210.609" y="490.821" type="line"/>
      <point x="210.609" y="622.743" type="line"/>
      <point x="385.553" y="622.743" type="line" smooth="yes"/>
      <point x="479.933" y="622.743"/>
      <point x="616.296" y="561.157"/>
      <point x="690.073" y="447.587"/>
      <point x="690.073" y="369.603" type="qcurve" smooth="yes"/>
      <point x="690.073" y="291.017"/>
      <point x="616.296" y="176.843"/>
      <point x="479.933" y="115.257"/>
      <point x="385.553" y="115.257" type="qcurve" smooth="yes"/>
    </contour>
    <contour>
      <point x="82.9437" y="0" type="line"/>
      <point x="82.9437" y="700.397" type="line"/>
      <point x="245.336" y="700.397" type="line"/>
      <point x="245.336" y="0" type="line"/>
    </contour>
  </outline>
</glyph>
<glyph name="germandbls" format="2">
  <advance width="693"/>
  <unicode hex="00DF"/>
  <outline>
    <contour>
      <point x="409.486" y="-7.58663" type="qcurve" smooth="yes"/>
      <point x="379.09" y="-7.58663"/>
      <point x="312.916" y="0.810029"/>
      <point x="290.503" y="8.41337" type="qcurve"/>
      <point x="309.486" y="132.146" type="line"/>
      <point x="327.9" y="125.543"/>
      <point x="367.14" y="119.543"/>
      <point x="392.983" y="119.543" type="qcurve" smooth="yes"/>
      <point x="426.86" y="119.543"/>
      <point x="475.564" y="140.593"/>
      <point x="503.217" y="182.09"/>
      <point x="503.217" y="211.157" type="qcurve" smooth="yes"/>
      <point x="503.217" y="255.257"/>
      <point x="438.067" y="301.77"/>
      <point x="381.967" y="301.77" type="qcurve" smooth="yes"/>
      <point x="327.553" y="301.77" type="line"/>
      <point x="327.553" y="425.313" type="line"/>
      <point x="384.274" y="426.71"/>
      <point x="449.804" y="483.017"/>
      <point x="449.804" y="529.704" type="qcurve" smooth="yes"/>
      <point x="449.804" y="571.77"/>
      <point x="394.497" y="623.251"/>
      <point x="344.983" y="623.251" type="qcurve" smooth="yes"/>
      <point x="290.866" y="623.251"/>
      <point x="228.336" y="561.324"/>
      <point x="228.336" y="501.793" type="qcurve" smooth="yes"/>
      <point x="228.336" y="0" type="line"/>
      <point x="72.3237" y="0" type="line"/>
      <point x="72.3237" y="483.464" type="line" smooth="yes"/>
      <point x="72.3237" y="571.843"/>
      <point x="144.877" y="690.207"/>
      <point x="268.81" y="749.587"/>
      <point x="344.587" y="749.587" type="qcurve" smooth="yes"/>
      <point x="425.33" y="749.587"/>
      <point x="539.263" y="694.207"/>
      <point x="599.833" y="600.033"/>
      <point x="599.833" y="541.447" type="qcurve" smooth="yes"/>
      <point x="599.833" y="494.653"/>
      <point x="560.866" y="421.274"/>
      <point x="496.536" y="370.29"/>
      <point x="418.637" y="343.1"/>
      <point x="379.497" y="343.1" type="qcurve"/>
      <point x="417.43" y="407.726" type="line"/>
      <point x="489.536" y="407.726"/>
      <point x="598.85" y="360.933"/>
      <point x="661.023" y="271.553"/>
      <point x="661.023" y="206.967" type="qcurve" smooth="yes"/>
      <point x="661.023" y="139.38"/>
      <point x="597.23" y="43"/>
      <point x="484.056" y="-7.58663"/>
    </contour>
  </outline>
</glyph>
<glyph name="ae" format="2">
  <advance width="996"/>
  <unicode hex="00E6"/>
  <anchor x="484.033" y="556.05" name="t.uni0308"/>
  <anchor x="478.62" y="0" name="b.uni0324_3"/>
  <outline>
    <contour>
      <point x="262.76" y="-7.58663" type="qcurve" smooth="yes"/>
      <point x="157.017" y="-7.58663"/>
      <point x="37.4802" y="85.5866"/>
      <point x="37.4802" y="160.76" type="qcurve" smooth="yes"/>
      <point x="37.4802" y="205.33"/>
      <point x="84.2401" y="275.123"/>
      <point x="186.19" y="316.536"/>
      <point x="268.173" y="316.536" type="qcurve" smooth="yes"/>
      <point x="408.15" y="316.536" type="line"/>
      <point x="408.15" y="225.637" type="line"/>
      <point x="285.47" y="225.637" type="line" smooth="yes"/>
      <point x="230.369" y="225.637"/>
      <point x="189.319" y="189.777"/>
      <point x="189.319" y="163.95" type="qcurve" smooth="yes"/>
      <point x="189.319" y="132.693"/>
      <point x="236.023" y="97.0395"/>
      <point x="278.503" y="97.0395" type="qcurve" smooth="yes"/>
      <point x="332.62" y="97.0395"/>
      <point x="392.15" y="153.933"/>
      <point x="392.15" y="200.603" type="qcurve" smooth="yes"/>
      <point x="392.15" y="316.05" type="line" smooth="yes"/>
      <point x="392.15" y="365.514"/>
      <point x="331.084" y="421.581"/>
      <point x="268.637" y="421.581" type="qcurve" smooth="yes"/>
      <point x="225.413" y="421.581"/>
      <point x="141.967" y="394.96"/>
      <point x="112.553" y="371.944" type="qcurve"/>
      <point x="56.8435" y="480.52" type="line"/>
      <point x="101.223" y="512.33"/>
      <point x="224.173" y="545.536"/>
      <point x="287.967" y="545.536" type="qcurve" smooth="yes"/>
      <point x="375.207" y="545.536"/>
      <point x="491.363" y="482.47"/>
      <point x="515.106" y="419.626" type="qcurve"/>
      <point x="447.62" y="422.643" type="line"/>
      <point x="483.19" y="479.883"/>
      <point x="607.173" y="545.536"/>
      <point x="683.793" y="545.536" type="qcurve" smooth="yes"/>
      <point x="741.793" y="545.536"/>
      <point x="842.967" y="506.726"/>
      <point x="919.726" y="435.123"/>
      <point x="963.296" y="333.743"/>
      <point x="963.296" y="271.173" type="qcurve" smooth="yes"/>
      <point x="963.296" y="258.19"/>
      <point x="961.9" y="235.223"/>
      <point x="959.9" y="225.637" type="qcurve"/>
      <point x="528.939" y="225.637" type="line"/>
      <point x="528.939" y="316.536" type="line"/>
      <point x="858.267" y="316.536" type="line"/>
      <point x="813.854" y="288.933" type="line"/>
      <point x="814.457" y="334.81"/>
      <point x="777.374" y="396.1"/>
      <point x="716.653" y="428.34"/>
      <point x="681.603" y="428.34" type="qcurve" smooth="yes"/>
      <point x="647.157" y="428.34"/>
      <point x="585.643" y="396.1"/>
      <point x="547.559" y="333.603"/>
      <point x="547.559" y="287.123" type="qcurve" smooth="yes"/>
      <point x="547.559" y="262.777" type="line" smooth="yes"/>
      <point x="547.559" y="218.726"/>
      <point x="586.023" y="152.436"/>
      <point x="656.726" y="116.576"/>
      <point x="705.19" y="116.576" type="qcurve" smooth="yes"/>
      <point x="746.033" y="116.576"/>
      <point x="811.497" y="142.609"/>
      <point x="840.704" y="169.246" type="qcurve"/>
      <point x="924.313" y="79.2067" type="line"/>
      <point x="885.726" y="36.2067"/>
      <point x="772.363" y="-7.58663"/>
      <point x="701.587" y="-7.58663" type="qcurve" smooth="yes"/>
      <point x="639.983" y="-7.58663"/>
      <point x="530.397" y="27.8267"/>
      <point x="445.827" y="104.05"/>
      <point x="420.447" y="165.257" type="qcurve"/>
      <point x="504.14" y="164.653" type="line"/>
      <point x="487.173" y="97.8435"/>
      <point x="412.967" y="22.2234"/>
      <point x="315.347" y="-7.58663"/>
    </contour>
  </outline>
</glyph>
<glyph name="eth" format="2">
  <advance width="657"/>
  <unicode hex="00F0"/>
  <outline>
    <contour>
      <point x="301.553" y="-11.7766" type="qcurve" smooth="yes"/>
      <point x="225.983" y="-11.7766"/>
      <point x="104.033" y="45.6033"/>
      <point x="32.4635" y="150.173"/>
      <point x="32.4635" y="221.157" type="qcurve" smooth="yes"/>
      <point x="32.4635" y="289.76"/>
      <point x="100.067" y="390.363"/>
      <point x="215.48" y="445.76"/>
      <point x="285.497" y="445.76" type="qcurve" smooth="yes"/>
      <point x="340.117" y="445.76"/>
      <point x="425.77" y="412.313"/>
      <point x="487.201" y="348.626"/>
      <point x="503.184" y="302.766" type="qcurve"/>
      <point x="455.821" y="277.833" type="line"/>
      <point x="460.044" y="300.073"/>
      <point x="462.457" y="347.347"/>
      <point x="462.457" y="376.14" type="qcurve" smooth="yes"/>
      <point x="462.457" y="458.207"/>
      <point x="409.804" y="566.894"/>
      <point x="309.53" y="621.34"/>
      <point x="237.307" y="621.34" type="qcurve" smooth="yes"/>
      <point x="200.653" y="621.34"/>
      <point x="131.223" y="610.324"/>
      <point x="102.43" y="600.324" type="qcurve"/>
      <point x="83.2401" y="721.09" type="line"/>
      <point x="118.62" y="730.296"/>
      <point x="197.447" y="741.106"/>
      <point x="242.86" y="741.106" type="qcurve" smooth="yes"/>
      <point x="359.777" y="741.106"/>
      <point x="530.676" y="650.933"/>
      <point x="624.23" y="473.38"/>
      <point x="624.23" y="341.62" type="qcurve" smooth="yes"/>
      <point x="624.23" y="231.43"/>
      <point x="546.073" y="73.4301"/>
      <point x="401.933" y="-11.7766"/>
    </contour>
    <contour>
      <point x="313.52" y="108.989" type="qcurve" smooth="yes"/>
      <point x="353.017" y="108.989"/>
      <point x="410.547" y="138.056"/>
      <point x="441.804" y="186.95"/>
      <point x="441.804" y="216.793" type="qcurve" smooth="yes"/>
      <point x="441.804" y="248.447"/>
      <point x="408.737" y="297.34"/>
      <point x="353.017" y="324.994"/>
      <point x="316.536" y="324.994" type="qcurve" smooth="yes"/>
      <point x="259.799" y="324.994"/>
      <point x="190.666" y="266.084"/>
      <point x="190.666" y="216.793" type="qcurve" smooth="yes"/>
      <point x="190.666" y="183.933"/>
      <point x="222.526" y="135.643"/>
      <point x="278.04" y="108.989"/>
    </contour>
    <contour>
      <point x="150.637" y="463.274" type="line"/>
      <point x="119.257" y="542.207" type="line"/>
      <point x="565.23" y="713.173" type="line"/>
      <point x="596.609" y="633.637" type="line"/>
    </contour>
  </outline>
</glyph>
<glyph name="divide" format="2">
  <advance width="599"/>
  <unicode hex="00F7"/>
  <outline>
    <contour>
      <point x="61.6368" y="289.134" type="line"/>
      <point x="61.6368" y="410.866" type="line"/>
      <point x="537.85" y="410.866" type="line"/>
      <point x="537.85" y="289.134" type="line"/>
    </contour>
    <contour>
      <point x="299.743" y="58.614" type="qcurve" smooth="yes"/>
      <point x="265.413" y="58.614"/>
      <point x="217.307" y="106.134"/>
      <point x="217.307" y="142.67" type="qcurve" smooth="yes"/>
      <point x="217.307" y="179.603"/>
      <point x="265.413" y="224.726"/>
      <point x="299.743" y="224.726" type="qcurve" smooth="yes"/>
      <point x="334.676" y="224.726"/>
      <point x="382.783" y="179.603"/>
      <point x="382.783" y="142.67" type="qcurve" smooth="yes"/>
      <point x="382.783" y="106.134"/>
      <point x="334.676" y="58.614"/>
    </contour>
    <contour>
      <point x="299.743" y="475.274" type="qcurve" smooth="yes"/>
      <point x="265.413" y="475.274"/>
      <point x="217.307" y="522.793"/>
      <point x="217.307" y="558.726" type="qcurve" smooth="yes"/>
      <point x="217.307" y="595.66"/>
      <point x="265.413" y="641.386"/>
      <point x="299.743" y="641.386" type="qcurve" smooth="yes"/>
      <point x="334.676" y="641.386"/>
      <point x="382.783" y="595.66"/>
      <point x="382.783" y="558.726" type="qcurve" smooth="yes"/>
      <point x="382.783" y="522.793"/>
      <point x="334.676" y="475.274"/>
    </contour>
  </outline>
</glyph>
<glyph name="eogonek" format="2">
  <advance width="631"/>
  <unicode hex="0119"/>
  <anchor x="348.257" y="556.05" name="t.uni0308"/>
  <anchor x="348.257" y="0" name="b.uni0324_3"/>
  <outline>
    <contour>
      <point x="448.916" y="-231.553" type="qcurve" smooth="yes"/>
      <point x="384.173" y="-231.553"/>
      <point x="310.827" y="-168.38"/>
      <point x="310.827" y="-115.81" type="qcurve" smooth="yes"/>
      <point x="310.827" y="-77.2401"/>
      <point x="358.347" y="0.156541"/>
      <point x="402.52" y="24.6033" type="qcurve"/>
      <point x="435.38" y="4.63677" type="line"/>
      <point x="413.57" y="-1.17326"/>
      <point x="365.14" y="-7.58663"/>
      <point x="338.726" y="-7.58663" type="qcurve" smooth="yes"/>
      <point x="246.57" y="-7.58663"/>
      <point x="108.43" y="64"/>
      <point x="32.4635" y="189.38"/>
      <point x="32.4635" y="269.173" type="qcurve" smooth="yes"/>
      <point x="32.4635" y="349.76"/>
      <point x="106.827" y="474.743"/>
      <point x="236.967" y="545.536"/>
      <point x="318.933" y="545.536" type="qcurve" smooth="yes"/>
      <point x="398.123" y="545.536"/>
      <point x="524.866" y="478.52"/>
      <point x="598.816" y="353.726"/>
      <point x="598.816" y="266.76" type="qcurve" smooth="yes"/>
      <point x="598.816" y="257.777"/>
      <point x="597.419" y="234.81"/>
      <point x="596.419" y="225.223" type="qcurve"/>
      <point x="159.129" y="225.223" type="line"/>
      <point x="159.129" y="316.123" type="line"/>
      <point x="513.827" y="316.123" type="line"/>
      <point x="453.564" y="288.933" type="line"/>
      <point x="454.167" y="330.587"/>
      <point x="419.704" y="393.084"/>
      <point x="359.793" y="428.34"/>
      <point x="319.726" y="428.34" type="qcurve" smooth="yes"/>
      <point x="279.66" y="428.34"/>
      <point x="218.749" y="393.084"/>
      <point x="185.286" y="329.983"/>
      <point x="185.286" y="287.123" type="qcurve" smooth="yes"/>
      <point x="185.286" y="262.777" type="line" smooth="yes"/>
      <point x="185.286" y="218.726"/>
      <point x="224.146" y="152.436"/>
      <point x="295.453" y="116.576"/>
      <point x="343.313" y="116.576" type="qcurve" smooth="yes"/>
      <point x="386.14" y="116.576"/>
      <point x="450.827" y="142.609"/>
      <point x="478.43" y="169.246" type="qcurve"/>
      <point x="561.833" y="79.2067" type="line"/>
      <point x="553.04" y="69.2067"/>
      <point x="532.643" y="51.4134"/>
      <point x="521.246" y="42.81" type="qcurve" smooth="yes"/>
      <point x="476.66" y="10.19"/>
      <point x="428.056" y="-41.2401"/>
      <point x="409.643" y="-82.4635"/>
      <point x="409.643" y="-101.67" type="qcurve" smooth="yes"/>
      <point x="409.643" y="-126.29"/>
      <point x="441.66" y="-153.084"/>
      <point x="467.66" y="-153.084" type="qcurve" smooth="yes"/>
      <point x="483.263" y="-153.084"/>
      <point x="515.47" y="-144.084"/>
      <point x="527.073" y="-137.877" type="qcurve"/>
      <point x="549.85" y="-208.553" type="line"/>
      <point x="531.246" y="-218.553"/>
      <point x="477.296" y="-231.553"/>
    </contour>
  </outline>
</glyph>
<glyph name="dotlessi" format="2">
  <advance width="301"/>
  <unicode hex="0131"/>
  <anchor x="173.257" y="556.05" name="t.uni0308"/>
  <anchor x="173.257" y="0" name="b.uni0324_3"/>
  <anchor x="313.407" y="0" name="m.uni0328_4"/>
  <outline>
    <contour>
      <point x="72.3237" y="0" type="line"/>
      <point x="72.3237" y="537.95" type="line"/>
      <point x="228.336" y="537.95" type="line"/>
      <point x="228.336" y="0" type="line"/>
    </contour>
  </outline>
</glyph>
<glyph name="IJ" format="2">
  <advance width="724"/>
  <unicode hex="0132"/>
  <anchor x="159.347" y="700" name="t.uni0308"/>
  <outline>
    <contour>
      <point x="327.397" y="-11.7766" type="qcurve" smooth="yes"/>
      <point x="247.653" y="-11.7766"/>
      <point x="111.34" y="30.6033"/>
      <point x="61.1672" y="65.3799" type="qcurve"/>
      <point x="121.827" y="187.129" type="line"/>
      <point x="168.207" y="156.733"/>
      <point x="273.603" y="124.336"/>
      <point x="324.24" y="124.336" type="qcurve" smooth="yes"/>
      <point x="403.72" y="124.336"/>
      <point x="484.837" y="213.056"/>
      <point x="484.837" y="306.57" type="qcurve" smooth="yes"/>
      <point x="484.837" y="700" type="line"/>
      <point x="647.23" y="700" type="line"/>
      <point x="647.23" y="315.347" type="line" smooth="yes"/>
      <point x="647.23" y="208.967"/>
      <point x="567.47" y="63"/>
      <point x="423.95" y="-11.7766"/>
    </contour>
    <contour>
      <point x="76.9437" y="321.52" type="line"/>
      <point x="76.9437" y="700" type="line"/>
      <point x="239.336" y="700" type="line"/>
      <point x="239.336" y="321.52" type="line"/>
    </contour>
  </outline>
</glyph>
<glyph name="kgreenlandic" format="2">
  <advance width="645"/>
  <unicode hex="0138"/>
  <anchor x="337.48" y="556.05" name="t.uni0308"/>
  <anchor x="337.48" y="0" name="b.uni0324_3"/>
  <outline>
    <contour>
      <point x="200.989" y="109.91" type="line"/>
      <point x="204.783" y="300.492" type="line"/>
      <point x="455.927" y="537.95" type="line"/>
      <point x="642.079" y="537.95" type="line"/>
      <point x="400.526" y="292.843" type="line"/>
      <point x="320.106" y="226.581" type="line"/>
    </contour>
    <contour>
      <point x="72.3237" y="0" type="line"/>
      <point x="72.3237" y="537.95" type="line"/>
      <point x="228.336" y="537.95" type="line"/>
      <point x="228.336" y="0" type="line"/>
    </contour>
    <contour>
      <point x="472.754" y="0" type="line"/>
      <point x="291.38" y="225.597" type="line"/>
      <point x="388.749" y="347.123" type="line"/>
      <point x="661.889" y="0" type="line"/>
    </contour>
  </outline>
</glyph>
<glyph name="Eng" format="2">
  <advance width="808"/>
  <unicode hex="014A"/>
  <outline>
    <contour>
      <point x="82.9437" y="0" type="line"/>
      <point x="82.9437" y="700" type="line"/>
      <point x="216.609" y="700" type="line"/>
      <point x="629.927" y="195.565" type="line"/>
      <point x="591.614" y="0" type="line"/>
      <point x="178.296" y="504.435" type="line"/>
      <point x="242.956" y="504.435" type="line"/>
      <point x="242.956" y="0" type="line"/>
    </contour>
    <contour>
      <point x="476.084" y="-201.587" type="qcurve" smooth="yes"/>
      <point x="421.497" y="-201.587"/>
      <point x="325.514" y="-169.14"/>
      <point x="288.737" y="-136.106" type="qcurve"/>
      <point x="364.76" y="-23.3571" type="line"/>
      <point x="385.983" y="-45.0106"/>
      <point x="437.48" y="-69.4741"/>
      <point x="468.15" y="-69.4741" type="qcurve" smooth="yes"/>
      <point x="565.267" y="-69.4741"/>
      <point x="565.267" y="47.0897" type="qcurve" smooth="yes"/>
      <point x="565.267" y="700" type="line"/>
      <point x="725.28" y="700" type="line"/>
      <point x="725.28" y="70.6262" type="line" smooth="yes"/>
      <point x="725.28" y="-69.6702"/>
      <point x="598.983" y="-201.587"/>
    </contour>
  </outline>
</glyph>
<glyph name="eng" format="2">
  <advance width="691"/>
  <unicode hex="014B"/>
  <outline>
    <contour>
      <point x="398.626" y="545.536" type="qcurve" smooth="yes"/>
      <point x="462.833" y="545.536"/>
      <point x="563.626" y="495.14"/>
      <point x="622.023" y="390.157"/>
      <point x="622.023" y="307.777" type="qcurve" smooth="yes"/>
      <point x="622.023" y="1.45291" type="line" smooth="yes"/>
      <point x="622.023" y="-91.8769"/>
      <point x="516.536" y="-201.587"/>
      <point x="419.827" y="-201.587" type="qcurve" smooth="yes"/>
      <point x="383.447" y="-201.587"/>
      <point x="317.084" y="-186.983"/>
      <point x="294.1" y="-172.173" type="qcurve"/>
      <point x="336.033" y="-59.2173" type="line"/>
      <point x="363.05" y="-78.2507"/>
      <point x="402.117" y="-78.2507" type="qcurve" smooth="yes"/>
      <point x="431.77" y="-78.2507"/>
      <point x="466.011" y="-39.2006"/>
      <point x="466.011" y="0.436192" type="qcurve" smooth="yes"/>
      <point x="466.011" y="284.464" type="line" smooth="yes"/>
      <point x="466.011" y="349.34"/>
      <point x="408.894" y="411.044"/>
      <point x="357.38" y="411.044" type="qcurve" smooth="yes"/>
      <point x="319.9" y="411.044"/>
      <point x="260.989" y="379.787"/>
      <point x="228.336" y="316.1"/>
      <point x="228.336" y="266.05" type="qcurve" smooth="yes"/>
      <point x="228.336" y="0" type="line"/>
      <point x="72.3237" y="0" type="line"/>
      <point x="72.3237" y="537.95" type="line"/>
      <point x="220.956" y="537.95" type="line"/>
      <point x="220.956" y="388.81" type="line"/>
      <point x="193.04" y="433.603" type="line"/>
      <point x="222.023" y="488.363"/>
      <point x="329.816" y="545.536"/>
    </contour>
  </outline>
</glyph>
<glyph name="OE" format="2">
  <advance width="1136"/>
  <unicode hex="0152"/>
  <anchor x="665.29" y="700" name="t.uni0308"/>
  <anchor x="665.29" y="0" name="b.uni0324_3"/>
  <outline>
    <contour>
      <point x="425.207" y="0" type="line" smooth="yes"/>
      <point x="310.62" y="0"/>
      <point x="136.843" y="86.81"/>
      <point x="39.2568" y="243.81"/>
      <point x="39.2568" y="349.793" type="qcurve" smooth="yes"/>
      <point x="39.2568" y="455.983"/>
      <point x="136.843" y="613.19"/>
      <point x="310.62" y="700"/>
      <point x="425.207" y="700" type="qcurve" smooth="yes"/>
      <point x="589.38" y="700" type="line"/>
      <point x="589.38" y="567.284" type="line"/>
      <point x="432.793" y="567.284" type="line" smooth="yes"/>
      <point x="363.883" y="567.284"/>
      <point x="260.129" y="514.201"/>
      <point x="203.046" y="416.67"/>
      <point x="203.046" y="350.397" type="qcurve" smooth="yes"/>
      <point x="203.046" y="283.123"/>
      <point x="260.129" y="185.799"/>
      <point x="363.883" y="132.716"/>
      <point x="432.793" y="132.716" type="qcurve" smooth="yes"/>
      <point x="589.38" y="132.716" type="line"/>
      <point x="589.38" y="0" type="line"/>
    </contour>
    <contour>
      <point x="697.113" y="418.28" type="line"/>
      <point x="1034.45" y="418.28" type="line"/>
      <point x="1034.45" y="292.324" type="line"/>
      <point x="697.113" y="292.324" type="line"/>
    </contour>
    <contour>
      <point x="708.889" y="130.336" type="line"/>
      <point x="1090.26" y="130.336" type="line"/>
      <point x="1090.26" y="0" type="line"/>
      <point x="548.084" y="0" type="line"/>
      <point x="548.084" y="700" type="line"/>
      <point x="1076.66" y="700" type="line"/>
      <point x="1076.66" y="569.664" type="line"/>
      <point x="708.889" y="569.664" type="line"/>
    </contour>
  </outline>
</glyph>
<glyph name="oe" format="2">
  <advance width="1064"/>
  <unicode hex="0153"/>
  <anchor x="538.19" y="556.05" name="t.uni0308"/>
  <anchor x="538.19" y="0" name="b.uni0324_3"/>
  <outline>
    <contour>
      <point x="325.95" y="-7.58663" type="qcurve" smooth="yes"/>
      <point x="241.38" y="-7.58663"/>
      <point x="109.033" y="63.6033"/>
      <point x="32.4635" y="188.587"/>
      <point x="32.4635" y="269.173" type="qcurve" smooth="yes"/>
      <point x="32.4635" y="350.363"/>
      <point x="109.033" y="474.743"/>
      <point x="241.38" y="545.536"/>
      <point x="325.95" y="545.536" type="qcurve" smooth="yes"/>
      <point x="410.52" y="545.536"/>
      <point x="535.09" y="474.743"/>
      <point x="603.28" y="350.363"/>
      <point x="603.28" y="269.173" type="qcurve" smooth="yes"/>
      <point x="603.28" y="188.587"/>
      <point x="535.09" y="63.6033"/>
      <point x="410.52" y="-7.58663"/>
    </contour>
    <contour>
      <point x="327.536" y="120.146" type="qcurve" smooth="yes"/>
      <point x="367.017" y="120.146"/>
      <point x="428.737" y="155.609"/>
      <point x="464.804" y="223.313"/>
      <point x="464.804" y="269.173" type="qcurve" smooth="yes"/>
      <point x="464.804" y="316.033"/>
      <point x="428.737" y="382.34"/>
      <point x="367.017" y="417.804"/>
      <point x="327.536" y="417.804" type="qcurve" smooth="yes"/>
      <point x="288.66" y="417.804"/>
      <point x="226.939" y="382.34"/>
      <point x="190.269" y="316.033"/>
      <point x="190.269" y="269.173" type="qcurve" smooth="yes"/>
      <point x="190.269" y="223.313"/>
      <point x="226.939" y="155.609"/>
      <point x="288.66" y="120.146"/>
    </contour>
    <contour>
      <point x="771.464" y="-7.58663" type="qcurve" smooth="yes"/>
      <point x="680.1" y="-7.58663"/>
      <point x="547.944" y="64"/>
      <point x="476.96" y="189.38"/>
      <point x="476.96" y="269.173" type="qcurve" smooth="yes"/>
      <point x="476.96" y="349.76"/>
      <point x="546.34" y="474.743"/>
      <point x="670.497" y="545.536"/>
      <point x="751.67" y="545.536" type="qcurve" smooth="yes"/>
      <point x="830.464" y="545.536"/>
      <point x="957.207" y="478.52"/>
      <point x="1031.95" y="354.123"/>
      <point x="1031.95" y="267.95" type="qcurve" smooth="yes"/>
      <point x="1031.95" y="257.38"/>
      <point x="1030.55" y="234.81"/>
      <point x="1029.16" y="225.223" type="qcurve"/>
      <point x="599.799" y="225.223" type="line"/>
      <point x="599.799" y="316.123" type="line"/>
      <point x="927.524" y="316.123" type="line"/>
      <point x="885.111" y="288.933" type="line"/>
      <point x="885.714" y="330.587"/>
      <point x="852.044" y="393.084"/>
      <point x="792.134" y="428.34"/>
      <point x="751.67" y="428.34" type="qcurve" smooth="yes"/>
      <point x="711.603" y="428.34"/>
      <point x="650.9" y="393.084"/>
      <point x="616.833" y="329.983"/>
      <point x="616.833" y="287.123" type="qcurve" smooth="yes"/>
      <point x="616.833" y="262.777" type="line" smooth="yes"/>
      <point x="616.833" y="218.726"/>
      <point x="655.296" y="152.436"/>
      <point x="727.397" y="116.576"/>
      <point x="775.653" y="116.576" type="qcurve" smooth="yes"/>
      <point x="816.497" y="116.576"/>
      <point x="881.977" y="142.609"/>
      <point x="909.977" y="169.246" type="qcurve"/>
      <point x="994.173" y="79.2067" type="line"/>
      <point x="956.19" y="36.81"/>
      <point x="841.843" y="-7.58663"/>
    </contour>
  </outline>
</glyph>
<glyph name="Uogonek" format="2">
  <advance width="788"/>
  <unicode hex="0172"/>
  <outline>
    <contour>
      <point x="551.077" y="700" type="line"/>
      <point x="710.676" y="700" type="line"/>
      <point x="710.676" y="308.363" type="line" smooth="yes"/>
      <point x="710.676" y="184.967"/>
      <point x="608.503" y="39.19"/>
      <point x="524.313" y="7.60334" type="qcurve" smooth="yes"/>
      <point x="468.296" y="-13.3967"/>
      <point x="407.296" y="-53.0167"/>
      <point x="383.9" y="-89.4468"/>
      <point x="383.9" y="-106.653" type="qcurve" smooth="yes"/>
      <point x="383.9" y="-127.877"/>
      <point x="414.33" y="-153.084"/>
      <point x="441.123" y="-153.084" type="qcurve" smooth="yes"/>
      <point x="457.52" y="-153.084"/>
      <point x="489.726" y="-144.084"/>
      <point x="501.33" y="-137.877" type="qcurve"/>
      <point x="524.106" y="-208.553" type="line"/>
      <point x="505.503" y="-218.553"/>
      <point x="451.553" y="-231.553"/>
      <point x="423.173" y="-231.553" type="qcurve" smooth="yes"/>
      <point x="357.827" y="-231.553"/>
      <point x="285.084" y="-169.983"/>
      <point x="285.084" y="-120.017" type="qcurve" smooth="yes"/>
      <point x="285.084" y="-88.4468"/>
      <point x="317.447" y="-29.6702"/>
      <point x="385.207" y="21.5365"/>
      <point x="438.207" y="40.5532" type="qcurve"/>
      <point x="439.587" y="-9.7766" type="line"/>
      <point x="428.397" y="-10.7766"/>
      <point x="405.603" y="-11.7766"/>
      <point x="393.81" y="-11.7766" type="qcurve" smooth="yes"/>
      <point x="244.877" y="-11.7766"/>
      <point x="76.9437" y="153.777"/>
      <point x="76.9437" y="308.363" type="qcurve" smooth="yes"/>
      <point x="76.9437" y="700" type="line"/>
      <point x="239.336" y="700" type="line"/>
      <point x="239.336" y="313.553" type="line" smooth="yes"/>
      <point x="239.336" y="214.246"/>
      <point x="321.47" y="125.526"/>
      <point x="395.207" y="125.526" type="qcurve" smooth="yes"/>
      <point x="469.34" y="125.526"/>
      <point x="551.077" y="214.246"/>
      <point x="551.077" y="313.553" type="qcurve" smooth="yes"/>
    </contour>
  </outline>
</glyph>
<glyph name="longs" format="2">
  <advance width="333"/>
  <unicode hex="017F"/>
  <outline>
    <contour>
      <point x="102.48" y="0" type="line"/>
      <point x="102.48" y="550.167" type="line" smooth="yes"/>
      <point x="102.48" y="641.084"/>
      <point x="210.173" y="749.587"/>
      <point x="310.28" y="749.587" type="qcurve" smooth="yes"/>
      <point x="343.866" y="749.587"/>
      <point x="407.213" y="735.983"/>
      <point x="429.196" y="721.38" type="qcurve"/>
      <point x="388.47" y="608.424" type="line"/>
      <point x="375.66" y="617.044"/>
      <point x="343.023" y="627.457"/>
      <point x="325.403" y="627.457" type="qcurve" smooth="yes"/>
      <point x="292.353" y="627.457"/>
      <point x="258.492" y="588.407"/>
      <point x="258.492" y="548.77" type="qcurve" smooth="yes"/>
      <point x="258.492" y="0" type="line"/>
    </contour>
    <contour>
      <point x="19.0334" y="406.301" type="line"/>
      <point x="19.0334" y="526.05" type="line"/>
      <point x="183.263" y="526.05" type="line"/>
      <point x="183.263" y="406.301" type="line"/>
    </contour>
  </outline>
</glyph>
<glyph name="uni018F" format="2">
  <advance width="817"/>
  <unicode hex="018F"/>
  <outline>
    <contour>
      <point x="409" y="-11.7766" type="qcurve" smooth="yes"/>
      <point x="328.62" y="-11.7766"/>
      <point x="192.843" y="41.8267"/>
      <point x="93.6535" y="140.223"/>
      <point x="39.2568" y="275.603"/>
      <point x="39.2568" y="356.983" type="qcurve" smooth="yes"/>
      <point x="39.2568" y="390.76" type="line"/>
      <point x="632.111" y="390.76" type="line"/>
      <point x="632.111" y="280.67" type="line"/>
      <point x="149.973" y="280.67" type="line"/>
      <point x="202.442" y="334.134" type="line"/>
      <point x="202.442" y="284.257"/>
      <point x="231.302" y="204.123"/>
      <point x="285.403" y="147.23"/>
      <point x="361.33" y="116.576"/>
      <point x="409" y="116.576" type="qcurve" smooth="yes"/>
      <point x="456.67" y="116.576"/>
      <point x="532.597" y="146.626"/>
      <point x="586.094" y="203.52"/>
      <point x="614.351" y="281.843"/>
      <point x="614.351" y="330.514" type="qcurve" smooth="yes"/>
      <point x="614.351" y="356.983" type="line" smooth="yes"/>
      <point x="614.351" y="403.843"/>
      <point x="581.301" y="483.547"/>
      <point x="522.614" y="542.027"/>
      <point x="443.307" y="574.474"/>
      <point x="396.653" y="574.474" type="qcurve" smooth="yes"/>
      <point x="361.207" y="574.474"/>
      <point x="286.967" y="556.077"/>
      <point x="219.743" y="519.681"/>
      <point x="194.123" y="492.474" type="qcurve"/>
      <point x="97.3571" y="596.86" type="line"/>
      <point x="130.357" y="631.05"/>
      <point x="224.514" y="682.81"/>
      <point x="337.464" y="711.777"/>
      <point x="398.05" y="711.777" type="qcurve" smooth="yes"/>
      <point x="481.223" y="711.777"/>
      <point x="620.38" y="658.777"/>
      <point x="722.553" y="561.38"/>
      <point x="778.14" y="429.19"/>
      <point x="778.14" y="350.603" type="qcurve" smooth="yes"/>
      <point x="778.14" y="271.413"/>
      <point x="722.95" y="138.827"/>
      <point x="623.363" y="41.8267"/>
      <point x="488.587" y="-11.7766"/>
    </contour>
  </outline>
</glyph>
<glyph name="florin" format="2">
  <advance width="481"/>
  <unicode hex="0192"/>
  <outline>
    <contour>
      <point x="29.9331" y="-201.587" type="qcurve" smooth="yes"/>
      <point x="-6.4468" y="-201.587"/>
      <point x="-71.4134" y="-186.38"/>
      <point x="-93.3967" y="-171.57" type="qcurve"/>
      <point x="-40.307" y="-59.2173" type="line"/>
      <point x="-13.8936" y="-78.2507"/>
      <point x="21.7599" y="-78.2507" type="qcurve" smooth="yes"/>
      <point x="52.0167" y="-78.2507"/>
      <point x="92.6702" y="-39.2006"/>
      <point x="97.2735" y="0.436192" type="qcurve" smooth="yes"/>
      <point x="165.72" y="550.167" type="line"/>
      <point x="176.307" y="641.48"/>
      <point x="295.38" y="749.587"/>
      <point x="393.073" y="749.587" type="qcurve" smooth="yes"/>
      <point x="426.66" y="749.587"/>
      <point x="492.023" y="735.38"/>
      <point x="512.609" y="719.57" type="qcurve"/>
      <point x="458.916" y="607.217" type="line"/>
      <point x="446.71" y="615.837"/>
      <point x="415.676" y="626.251"/>
      <point x="398.056" y="626.251" type="qcurve" smooth="yes"/>
      <point x="364.403" y="626.251"/>
      <point x="321.353" y="587.201"/>
      <point x="316.146" y="547.564" type="qcurve" smooth="yes"/>
      <point x="310.129" y="498.637" type="line"/>
      <point x="307.336" y="431.581" type="line"/>
      <point x="252.889" y="-2.16715" type="line" smooth="yes"/>
      <point x="241.699" y="-93.0836"/>
      <point x="124.833" y="-201.587"/>
    </contour>
    <contour>
      <point x="63.0836" y="397.251" type="line"/>
      <point x="77.6535" y="517" type="line"/>
      <point x="450.23" y="517" type="line"/>
      <point x="436.263" y="397.251" type="line"/>
    </contour>
  </outline>
</glyph>
<glyph name="Ohorn" format="2">
  <advance width="844"/>
  <unicode hex="01A0"/>
  <anchor x="425.81" y="700" name="t.uni0308"/>
  <anchor x="425.81" y="0" name="b.uni0324_3"/>
  <outline>
    <contour>
      <point x="422.19" y="-11.7766" type="qcurve" smooth="yes"/>
      <point x="339.603" y="-11.7766"/>
      <point x="199.43" y="42.2234"/>
      <point x="96.4468" y="140.017"/>
      <point x="39.2568" y="272.207"/>
      <point x="39.2568" y="350" type="qcurve" smooth="yes"/>
      <point x="39.2568" y="428.793"/>
      <point x="96.4468" y="560.587"/>
      <point x="200.827" y="658.38"/>
      <point x="343.793" y="711.777"/>
      <point x="428.57" y="711.777" type="qcurve" smooth="yes"/>
      <point x="485.19" y="711.777"/>
      <point x="574.587" y="698.173"/>
      <point x="611.62" y="698.173" type="qcurve" smooth="yes"/>
      <point x="650.067" y="698.173"/>
      <point x="693.704" y="731.793"/>
      <point x="693.704" y="764.017" type="qcurve" smooth="yes"/>
      <point x="693.704" y="781.62"/>
      <point x="682.1" y="812.223"/>
      <point x="673.704" y="824.033" type="qcurve"/>
      <point x="765.503" y="857.57" type="line"/>
      <point x="780.693" y="837.38"/>
      <point x="797.676" y="787.207"/>
      <point x="797.676" y="758.033" type="qcurve" smooth="yes"/>
      <point x="797.676" y="683.514"/>
      <point x="694.777" y="604.167"/>
      <point x="605.43" y="604.167" type="qcurve" smooth="yes"/>
      <point x="567.29" y="604.167"/>
      <point x="492.754" y="613.754"/>
      <point x="458.391" y="618.15" type="qcurve"/>
      <point x="649.006" y="641.894" type="line"/>
      <point x="695.436" y="613.1"/>
      <point x="765.486" y="524.877"/>
      <point x="804.52" y="413.827"/>
      <point x="804.52" y="350" type="qcurve" smooth="yes"/>
      <point x="804.52" y="271.603"/>
      <point x="747.33" y="139.413"/>
      <point x="644.347" y="41.6201"/>
      <point x="505.173" y="-11.7766"/>
    </contour>
    <contour>
      <point x="422.19" y="125.526" type="qcurve" smooth="yes"/>
      <point x="469.067" y="125.526"/>
      <point x="548.391" y="158.576"/>
      <point x="607.681" y="218.056"/>
      <point x="640.731" y="300.553"/>
      <point x="640.731" y="350" type="qcurve" smooth="yes"/>
      <point x="640.731" y="399.447"/>
      <point x="607.681" y="481.944"/>
      <point x="548.391" y="541.424"/>
      <point x="469.067" y="574.474"/>
      <point x="422.19" y="574.474" type="qcurve" smooth="yes"/>
      <point x="375.313" y="574.474"/>
      <point x="295.386" y="542.027"/>
      <point x="236.096" y="481.944"/>
      <point x="203.046" y="400.05"/>
      <point x="203.046" y="350" type="qcurve" smooth="yes"/>
      <point x="203.046" y="300.553"/>
      <point x="236.096" y="218.056"/>
      <point x="295.386" y="157.973"/>
      <point x="375.313" y="125.526"/>
    </contour>
  </outline>
</glyph>
<glyph name="ohorn" format="2">
  <advance width="655"/>
  <unicode hex="01A1"/>
  <anchor x="348.05" y="556.05" name="t.uni0308"/>
  <anchor x="348.05" y="0" name="b.uni0324_3"/>
  <outline>
    <contour>
      <point x="327.536" y="-7.58663" type="qcurve" smooth="yes"/>
      <point x="241.777" y="-7.58663"/>
      <point x="109.033" y="63.6033"/>
      <point x="32.4635" y="188.587"/>
      <point x="32.4635" y="269.173" type="qcurve" smooth="yes"/>
      <point x="32.4635" y="350.363"/>
      <point x="109.033" y="474.743"/>
      <point x="243.173" y="545.536"/>
      <point x="329.33" y="545.536" type="qcurve" smooth="yes"/>
      <point x="355.536" y="545.536"/>
      <point x="394.916" y="541.743"/>
      <point x="429.916" y="537.347"/>
      <point x="448.14" y="537.347" type="qcurve" smooth="yes"/>
      <point x="480.983" y="537.347"/>
      <point x="512.017" y="573.967"/>
      <point x="512.017" y="601.967" type="qcurve" smooth="yes"/>
      <point x="512.017" y="619.57"/>
      <point x="499.62" y="650.173"/>
      <point x="490.62" y="661.983" type="qcurve"/>
      <point x="582.419" y="695.52" type="line"/>
      <point x="597.006" y="675.33"/>
      <point x="615.989" y="625.157"/>
      <point x="615.989" y="595.983" type="qcurve" smooth="yes"/>
      <point x="615.989" y="549.827"/>
      <point x="571.246" y="480.497"/>
      <point x="490.33" y="442.737"/>
      <point x="435.967" y="442.737" type="qcurve" smooth="yes"/>
      <point x="413.413" y="442.737"/>
      <point x="369.29" y="447.927"/>
      <point x="348.307" y="451.72" type="qcurve"/>
      <point x="448.626" y="522.76" type="line"/>
      <point x="528.609" y="492.173"/>
      <point x="622.609" y="358.777"/>
      <point x="622.609" y="269.173" type="qcurve" smooth="yes"/>
      <point x="622.609" y="188.587"/>
      <point x="546.643" y="63.6033"/>
      <point x="413.296" y="-7.58663"/>
    </contour>
    <contour>
      <point x="327.536" y="120.146" type="qcurve" smooth="yes"/>
      <point x="366.413" y="120.146"/>
      <point x="428.134" y="155.609"/>
      <point x="464.804" y="223.313"/>
      <point x="464.804" y="269.173" type="qcurve" smooth="yes"/>
      <point x="464.804" y="316.033"/>
      <point x="428.737" y="382.34"/>
      <point x="367.017" y="417.804"/>
      <point x="327.536" y="417.804" type="qcurve" smooth="yes"/>
      <point x="288.66" y="417.804"/>
      <point x="226.939" y="382.34"/>
      <point x="190.269" y="316.033"/>
      <point x="190.269" y="269.173" type="qcurve" smooth="yes"/>
      <point x="190.269" y="223.313"/>
      <point x="226.939" y="155.609"/>
      <point x="288.66" y="120.146"/>
    </contour>
  </outline>
</glyph>
<glyph name="uni01E5" format="2">
  <advance width="711"/>
  <unicode hex="01E5"/>
  <outline>
    <contour>
      <point x="323.397" y="-201.587" type="qcurve" smooth="yes"/>
      <point x="248.017" y="-201.587"/>
      <point x="107.223" y="-163.777"/>
      <point x="60.6368" y="-128.157" type="qcurve"/>
      <point x="122.76" y="-19.7538" type="line"/>
      <point x="156.38" y="-47.3738"/>
      <point x="260.413" y="-80.9939"/>
      <point x="314.24" y="-80.9939" type="qcurve" smooth="yes"/>
      <point x="394.927" y="-80.9939"/>
      <point x="471.201" y="-7.70363"/>
      <point x="471.201" y="66.19" type="qcurve" smooth="yes"/>
      <point x="471.201" y="146.581" type="line"/>
      <point x="481.201" y="286.157" type="line"/>
      <point x="478.581" y="422.369" type="line"/>
      <point x="478.581" y="537.95" type="line"/>
      <point x="627.213" y="537.95" type="line"/>
      <point x="627.213" y="89.693" type="line" smooth="yes"/>
      <point x="627.213" y="-57.6702"/>
      <point x="472.503" y="-201.587"/>
    </contour>
    <contour>
      <point x="273.464" y="-38.1504" type="line"/>
      <point x="273.464" y="38.2295" type="line"/>
      <point x="690.816" y="39.2295" type="line"/>
      <point x="690.816" y="-37.7538" type="line"/>
    </contour>
    <contour>
      <point x="296.927" y="65.4529" type="qcurve" smooth="yes"/>
      <point x="219.324" y="65.4529"/>
      <point x="99.8936" y="126.66"/>
      <point x="32.4635" y="235.28"/>
      <point x="32.4635" y="305.9" type="qcurve" smooth="yes"/>
      <point x="32.4635" y="376.52"/>
      <point x="99.8936" y="484.536"/>
      <point x="218.927" y="545.14"/>
      <point x="296.53" y="545.14" type="qcurve" smooth="yes"/>
      <point x="363.927" y="545.14"/>
      <point x="469.374" y="493.14"/>
      <point x="531.027" y="387.726"/>
      <point x="531.027" y="305.106" type="qcurve" smooth="yes"/>
      <point x="531.027" y="222.883"/>
      <point x="469.77" y="116.66"/>
      <point x="364.324" y="65.4529"/>
    </contour>
    <contour>
      <point x="331.933" y="180.856" type="qcurve" smooth="yes"/>
      <point x="374.207" y="180.856"/>
      <point x="437.927" y="211.923"/>
      <point x="473.201" y="268.23"/>
      <point x="473.201" y="305.9" type="qcurve" smooth="yes"/>
      <point x="473.201" y="343.967"/>
      <point x="437.927" y="399.274"/>
      <point x="374.207" y="430.34"/>
      <point x="331.933" y="430.34" type="qcurve" smooth="yes"/>
      <point x="290.263" y="430.34"/>
      <point x="225.543" y="399.274"/>
      <point x="190.269" y="343.967"/>
      <point x="190.269" y="305.9" type="qcurve" smooth="yes"/>
      <point x="190.269" y="268.23"/>
      <point x="225.543" y="211.923"/>
      <point x="290.263" y="180.856"/>
    </contour>
  </outline>
</glyph>
<glyph name="uni01EA" format="2">
  <advance width="844"/>
  <unicode hex="01EA"/>
  <anchor x="425.81" y="700" name="t.uni0308"/>
  <outline>
    <contour>
      <point x="442.71" y="-231.553" type="qcurve" smooth="yes"/>
      <point x="377.363" y="-231.553"/>
      <point x="304.62" y="-169.983"/>
      <point x="304.62" y="-120.017" type="qcurve" smooth="yes"/>
      <point x="304.62" y="-88.4468"/>
      <point x="336.38" y="-29.0669"/>
      <point x="404.743" y="22.1398"/>
      <point x="457.743" y="40.5532" type="qcurve"/>
      <point x="466.726" y="-9.37994" type="line"/>
      <point x="452.553" y="-10.3799"/>
      <point x="431.38" y="-11.7766"/>
      <point x="422.19" y="-11.7766" type="qcurve" smooth="yes"/>
      <point x="339.603" y="-11.7766"/>
      <point x="200.033" y="41.6201"/>
      <point x="96.4468" y="139.413"/>
      <point x="39.2568" y="271.603"/>
      <point x="39.2568" y="350" type="qcurve" smooth="yes"/>
      <point x="39.2568" y="428.793"/>
      <point x="96.4468" y="560.587"/>
      <point x="200.033" y="658.38"/>
      <point x="339.603" y="711.777"/>
      <point x="422.19" y="711.777" type="qcurve" smooth="yes"/>
      <point x="505.173" y="711.777"/>
      <point x="644.347" y="658.38"/>
      <point x="747.33" y="560.587"/>
      <point x="804.52" y="428.793"/>
      <point x="804.52" y="350" type="qcurve" smooth="yes"/>
      <point x="804.52" y="262.19"/>
      <point x="735.106" y="122.38"/>
      <point x="616.486" y="27.5866"/>
      <point x="542.28" y="5.60334" type="qcurve" smooth="yes"/>
      <point x="495.296" y="-8.37994"/>
      <point x="433.073" y="-44.19"/>
      <point x="403.436" y="-84.8267"/>
      <point x="403.436" y="-106.653" type="qcurve" smooth="yes"/>
      <point x="403.436" y="-127.877"/>
      <point x="433.866" y="-153.084"/>
      <point x="460.66" y="-153.084" type="qcurve" smooth="yes"/>
      <point x="477.056" y="-153.084"/>
      <point x="509.263" y="-144.084"/>
      <point x="520.866" y="-137.877" type="qcurve"/>
      <point x="543.643" y="-208.553" type="line"/>
      <point x="525.04" y="-218.553"/>
      <point x="471.09" y="-231.553"/>
    </contour>
    <contour>
      <point x="422.19" y="125.526" type="qcurve" smooth="yes"/>
      <point x="469.067" y="125.526"/>
      <point x="548.391" y="157.973"/>
      <point x="607.681" y="218.056"/>
      <point x="640.731" y="300.553"/>
      <point x="640.731" y="350" type="qcurve" smooth="yes"/>
      <point x="640.731" y="400.05"/>
      <point x="607.681" y="481.944"/>
      <point x="548.391" y="542.027"/>
      <point x="469.067" y="574.474"/>
      <point x="422.19" y="574.474" type="qcurve" smooth="yes"/>
      <point x="375.313" y="574.474"/>
      <point x="295.386" y="542.027"/>
      <point x="236.096" y="481.944"/>
      <point x="203.046" y="400.05"/>
      <point x="203.046" y="350" type="qcurve" smooth="yes"/>
      <point x="203.046" y="300.553"/>
      <point x="236.096" y="218.056"/>
      <point x="295.386" y="157.973"/>
      <point x="375.313" y="125.526"/>
    </contour>
  </outline>
</glyph>
<glyph name="uni01EB" format="2">
  <advance width="655"/>
  <unicode hex="01EB"/>
  <anchor x="344.447" y="556.05" name="t.uni0308"/>
  <anchor x="344.447" y="278.223" name="t.uni0307_1"/>
  <anchor x="422.95" y="555.447" name="t.uni031B_2"/>
  <anchor x="344.447" y="0" name="b.uni0324_3"/>
  <outline>
    <contour>
      <point x="357.726" y="-231.553" type="qcurve" smooth="yes"/>
      <point x="292.38" y="-231.553"/>
      <point x="219.637" y="-169.983"/>
      <point x="219.637" y="-121.223" type="qcurve" smooth="yes"/>
      <point x="219.637" y="-89.0501"/>
      <point x="251.397" y="-29.4635"/>
      <point x="318.553" y="20.1565"/>
      <point x="370.347" y="36.5866" type="qcurve"/>
      <point x="378.157" y="-3.58663" type="line"/>
      <point x="363.743" y="-5.18997"/>
      <point x="339.536" y="-7.58663"/>
      <point x="327.536" y="-7.58663" type="qcurve" smooth="yes"/>
      <point x="241.777" y="-7.58663"/>
      <point x="109.033" y="63.6033"/>
      <point x="32.4635" y="188.587"/>
      <point x="32.4635" y="269.173" type="qcurve" smooth="yes"/>
      <point x="32.4635" y="350.363"/>
      <point x="109.033" y="474.743"/>
      <point x="241.777" y="545.536"/>
      <point x="327.536" y="545.536" type="qcurve" smooth="yes"/>
      <point x="413.296" y="545.536"/>
      <point x="547.04" y="474.743"/>
      <point x="622.609" y="350.363"/>
      <point x="622.609" y="269.173" type="qcurve" smooth="yes"/>
      <point x="622.609" y="179.587"/>
      <point x="527.66" y="45.81"/>
      <point x="447.9" y="13.4134" type="qcurve" smooth="yes"/>
      <point x="395.883" y="-7.60334"/>
      <point x="339.866" y="-48.8267"/>
      <point x="318.453" y="-87.4468"/>
      <point x="318.453" y="-105.653" type="qcurve" smooth="yes"/>
      <point x="318.453" y="-127.084"/>
      <point x="348.883" y="-153.084"/>
      <point x="375.676" y="-153.084" type="qcurve" smooth="yes"/>
      <point x="392.073" y="-153.084"/>
      <point x="424.28" y="-144.084"/>
      <point x="435.883" y="-137.877" type="qcurve"/>
      <point x="458.66" y="-208.553" type="line"/>
      <point x="440.056" y="-218.553"/>
      <point x="386.106" y="-231.553"/>
    </contour>
    <contour>
      <point x="327.536" y="120.146" type="qcurve" smooth="yes"/>
      <point x="367.017" y="120.146"/>
      <point x="428.737" y="155.609"/>
      <point x="464.804" y="223.313"/>
      <point x="464.804" y="269.173" type="qcurve" smooth="yes"/>
      <point x="464.804" y="316.033"/>
      <point x="428.737" y="382.34"/>
      <point x="367.017" y="417.804"/>
      <point x="327.536" y="417.804" type="qcurve" smooth="yes"/>
      <point x="288.66" y="417.804"/>
      <point x="226.939" y="382.34"/>
      <point x="190.269" y="316.033"/>
      <point x="190.269" y="269.173" type="qcurve" smooth="yes"/>
      <point x="190.269" y="223.313"/>
      <point x="226.939" y="155.609"/>
      <point x="288.66" y="120.146"/>
    </contour>
  </outline>
</glyph>
<glyph name="uni0237" format="2">
  <advance width="307"/>
  <unicode hex="0237"/>
  <anchor x="181.257" y="556.05" name="t.uni0308"/>
  <outline>
    <contour>
      <point x="32.3298" y="-201.587" type="qcurve" smooth="yes"/>
      <point x="-4.05015" y="-201.587"/>
      <point x="-70.4134" y="-186.983"/>
      <point x="-93.3967" y="-172.173" type="qcurve"/>
      <point x="-51.4635" y="-59.2173" type="line"/>
      <point x="-24.4468" y="-78.2507"/>
      <point x="14.6201" y="-78.2507" type="qcurve" smooth="yes"/>
      <point x="44.2735" y="-78.2507"/>
      <point x="78.5137" y="-39.2006"/>
      <point x="78.5137" y="0.436192" type="qcurve" smooth="yes"/>
      <point x="78.5137" y="537.95" type="line"/>
      <point x="234.526" y="537.95" type="line"/>
      <point x="234.526" y="1.45291" type="line" smooth="yes"/>
      <point x="234.526" y="-91.8769"/>
      <point x="129.04" y="-201.587"/>
    </contour>
  </outline>
</glyph>
<glyph name="uni0259" format="2">
  <advance width="631"/>
  <unicode hex="0259"/>
  <anchor x="335.05" y="556.05" name="t.uni0308"/>
  <anchor x="335.05" y="0" name="b.uni0324_3"/>
  <anchor x="99.3967" y="556.05" name="m.uni0328_4"/>
  <outline>
    <contour>
      <point x="292.553" y="545.536" type="qcurve" smooth="yes"/>
      <point x="385.71" y="545.536"/>
      <point x="522.85" y="473.95"/>
      <point x="598.816" y="349.57"/>
      <point x="598.816" y="268.777" type="qcurve" smooth="yes"/>
      <point x="598.816" y="188.19"/>
      <point x="524.453" y="63.2067"/>
      <point x="394.71" y="-7.58663"/>
      <point x="312.347" y="-7.58663" type="qcurve" smooth="yes"/>
      <point x="233.157" y="-7.58663"/>
      <point x="106.413" y="59.4301"/>
      <point x="32.4635" y="185.223"/>
      <point x="32.4635" y="271.19" type="qcurve" smooth="yes"/>
      <point x="32.4635" y="280.173"/>
      <point x="33.8602" y="303.14"/>
      <point x="34.8602" y="312.726" type="qcurve"/>
      <point x="472.15" y="312.726" type="line"/>
      <point x="472.15" y="221.827" type="line"/>
      <point x="117.453" y="221.827" type="line"/>
      <point x="177.716" y="249.017" type="line"/>
      <point x="177.716" y="207.76"/>
      <point x="211.576" y="144.866"/>
      <point x="271.883" y="109.609"/>
      <point x="311.553" y="109.609" type="qcurve" smooth="yes"/>
      <point x="351.62" y="109.609"/>
      <point x="412.53" y="144.866"/>
      <point x="445.994" y="208.967"/>
      <point x="445.994" y="250.827" type="qcurve" smooth="yes"/>
      <point x="445.994" y="275.173" type="line" smooth="yes"/>
      <point x="445.994" y="320.223"/>
      <point x="407.134" y="385.514"/>
      <point x="336.43" y="421.374"/>
      <point x="287.967" y="421.374" type="qcurve" smooth="yes"/>
      <point x="245.536" y="421.374"/>
      <point x="181.056" y="395.34"/>
      <point x="152.85" y="368.704" type="qcurve"/>
      <point x="69.8435" y="458.743" type="line"/>
      <point x="107.43" y="501.536"/>
      <point x="219.603" y="545.536"/>
    </contour>
  </outline>
</glyph>
<glyph name="uni02BE" format="2">
  <advance width="600"/>
  <unicode hex="02BE"/>
  <outline>
    <contour>
      <point x="299.397" y="592.413" type="qcurve"/>
      <point x="299.397" y="653.106" type="line"/>
      <point x="326.017" y="653.106"/>
      <point x="360.033" y="686.726"/>
      <point x="360.033" y="712.536" type="qcurve" smooth="yes"/>
      <point x="360.033" y="738.95"/>
      <point x="325.413" y="772.57"/>
      <point x="299.397" y="772.57" type="qcurve"/>
      <point x="299.397" y="833.866" type="line"/>
      <point x="335.777" y="833.866"/>
      <point x="392.14" y="800.883"/>
      <point x="424.916" y="746.313"/>
      <point x="424.916" y="712.536" type="qcurve" smooth="yes"/>
      <point x="424.916" y="679.157"/>
      <point x="392.14" y="624.793"/>
      <point x="335.777" y="592.413"/>
    </contour>
  </outline>
</glyph>
<glyph name="uni02BF" format="2">
  <advance width="600"/>
  <unicode hex="02BF"/>
  <outline>
    <contour>
      <point x="299.397" y="592.413" type="line"/>
      <point x="264.017" y="592.413"/>
      <point x="206.653" y="624.793"/>
      <point x="173.877" y="679.157"/>
      <point x="173.877" y="712.536" type="qcurve" smooth="yes"/>
      <point x="173.877" y="746.313"/>
      <point x="206.653" y="800.883"/>
      <point x="264.017" y="833.866"/>
      <point x="299.397" y="833.866" type="qcurve"/>
      <point x="299.397" y="772.57" type="line"/>
      <point x="274.38" y="772.57"/>
      <point x="239.363" y="738.95"/>
      <point x="239.363" y="712.536" type="qcurve" smooth="yes"/>
      <point x="239.363" y="686.726"/>
      <point x="273.777" y="653.106"/>
      <point x="299.397" y="653.106" type="qcurve"/>
    </contour>
  </outline>
</glyph>
<glyph name="uni02C8" format="2">
  <advance width="186"/>
  <unicode hex="02C8"/>
  <outline>
    <contour>
      <point x="41.6702" y="503.637" type="line"/>
      <point x="41.6702" y="700.397" type="line"/>
      <point x="144.04" y="700.397" type="line"/>
      <point x="144.04" y="503.637" type="line"/>
    </contour>
  </outline>
</glyph>
<glyph name="uni02C9" format="2">
  <advance width="600"/>
  <unicode hex="02C9"/>
  <outline>
    <contour>
      <point x="115.34" y="635.24" type="line"/>
      <point x="115.34" y="723.073" type="line"/>
      <point x="484.66" y="723.073" type="line"/>
      <point x="484.66" y="635.24" type="line"/>
    </contour>
  </outline>
</glyph>
<glyph name="uni02CA" format="2">
  <advance width="600"/>
  <unicode hex="02CA"/>
  <outline>
    <contour>
      <point x="209.48" y="607" type="line"/>
      <point x="343.894" y="751.313" type="line"/>
      <point x="511.833" y="751.313" type="line"/>
      <point x="330.52" y="607" type="line"/>
    </contour>
  </outline>
</glyph>
<glyph name="uni02CB" format="2">
  <advance width="600"/>
  <unicode hex="02CB"/>
  <outline>
    <contour>
      <point x="269.48" y="607" type="line"/>
      <point x="88.1672" y="751.313" type="line"/>
      <point x="256.106" y="751.313" type="line"/>
      <point x="390.52" y="607" type="line"/>
    </contour>
  </outline>
</glyph>
<glyph name="uni02CC" format="2">
  <advance width="188"/>
  <unicode hex="02CC"/>
  <outline>
    <contour>
      <point x="41.6702" y="-226.76" type="line"/>
      <point x="41.6702" y="-30" type="line"/>
      <point x="146.23" y="-30" type="line"/>
      <point x="146.23" y="-226.76" type="line"/>
    </contour>
  </outline>
</glyph>
<glyph name="gravecomb" format="2">
  <unicode hex="0300"/>
  <anchor x="300" y="556.05" name="_t.uni0308"/>
  <anchor x="300" y="556.05" name="_t.uni0308_2"/>
  <anchor x="300" y="556.05" name="_m.uni0308"/>
  <anchor x="300" y="789.564" name="m.uni0308"/>
  <outline>
    <contour>
      <point x="269.48" y="607" type="line"/>
      <point x="88.1672" y="751.313" type="line"/>
      <point x="256.106" y="751.313" type="line"/>
      <point x="390.52" y="607" type="line"/>
    </contour>
  </outline>
</glyph>
<glyph name="acutecomb" format="2">
  <unicode hex="0301"/>
  <anchor x="300" y="556.05" name="_t.uni0308"/>
  <anchor x="300" y="556.05" name="_t.uni0308_2"/>
  <anchor x="300" y="556.05" name="_m.uni0308"/>
  <anchor x="300" y="789.564" name="m.uni0308"/>
  <outline>
    <contour>
      <point x="221.067" y="607" type="line"/>
      <point x="271.603" y="751.313" type="line"/>
      <point x="421.369" y="751.313" type="line"/>
      <point x="323.933" y="607" type="line"/>
    </contour>
  </outline>
</glyph>
<glyph name="uni0302" format="2">
  <unicode hex="0302"/>
  <anchor x="300" y="556.05" name="_t.uni0308"/>
  <anchor x="300" y="556.05" name="_t.uni0308_2"/>
  <anchor x="300" y="556.05" name="_m.uni0308"/>
  <anchor x="300" y="779.564" name="m.uni0308"/>
  <outline>
    <contour>
      <point x="98.927" y="607" type="line"/>
      <point x="231.15" y="751.313" type="line"/>
      <point x="368.85" y="751.313" type="line"/>
      <point x="501.073" y="607" type="line"/>
      <point x="387.017" y="607" type="line"/>
      <point x="248.637" y="726.743" type="line"/>
      <point x="351.363" y="726.743" type="line"/>
      <point x="212.983" y="607" type="line"/>
    </contour>
  </outline>
</glyph>
<glyph name="tildecomb" format="2">
  <unicode hex="0303"/>
  <anchor x="300" y="556.05" name="_t.uni0308"/>
  <anchor x="300" y="556.05" name="_t.uni0308_2"/>
  <anchor x="300" y="556.05" name="_m.uni0308"/>
  <anchor x="300" y="779.564" name="m.uni0308"/>
  <outline>
    <contour>
      <point x="374.967" y="603.637" type="qcurve" smooth="yes"/>
      <point x="349.38" y="603.637"/>
      <point x="309.397" y="622.843"/>
      <point x="276.81" y="648.257"/>
      <point x="249.413" y="667.464"/>
      <point x="235.413" y="667.464" type="qcurve" smooth="yes"/>
      <point x="214.603" y="667.464"/>
      <point x="189.397" y="637.843"/>
      <point x="187.397" y="611.223" type="qcurve"/>
      <point x="108.15" y="611.223" type="line"/>
      <point x="110.15" y="678.157"/>
      <point x="171.894" y="757.073"/>
      <point x="225.033" y="757.073" type="qcurve" smooth="yes"/>
      <point x="250.62" y="757.073"/>
      <point x="291.207" y="737.866"/>
      <point x="323.793" y="712.453"/>
      <point x="351.587" y="693.246"/>
      <point x="364.587" y="693.246" type="qcurve" smooth="yes"/>
      <point x="385.793" y="693.246"/>
      <point x="411.603" y="721.866"/>
      <point x="412.603" y="747.09" type="qcurve"/>
      <point x="491.85" y="747.09" type="line"/>
      <point x="490.85" y="683.157"/>
      <point x="428.106" y="603.637"/>
    </contour>
  </outline>
</glyph>
<glyph name="uni0304" format="2">
  <unicode hex="0304"/>
  <anchor x="300" y="556.05" name="_t.uni0308"/>
  <anchor x="300" y="556.05" name="_t.uni0308_2"/>
  <anchor x="300" y="556.05" name="_m.uni0308"/>
  <anchor x="300" y="759.564" name="m.uni0308"/>
  <outline>
    <contour>
      <point x="115.34" y="635.24" type="line"/>
      <point x="115.34" y="723.073" type="line"/>
      <point x="484.66" y="723.073" type="line"/>
      <point x="484.66" y="635.24" type="line"/>
    </contour>
  </outline>
</glyph>
<glyph name="uni0306" format="2">
  <unicode hex="0306"/>
  <anchor x="300" y="556.05" name="_t.uni0308"/>
  <anchor x="300" y="556.05" name="_t.uni0308_2"/>
  <anchor x="300" y="556.05" name="_m.uni0308"/>
  <anchor x="300" y="779.564" name="m.uni0308"/>
  <outline>
    <contour>
      <point x="300" y="599.413" type="qcurve" smooth="yes"/>
      <point x="222.067" y="599.413"/>
      <point x="119.134" y="680.76"/>
      <point x="115.737" y="751.313" type="qcurve"/>
      <point x="213.933" y="751.313" type="line"/>
      <point x="215.933" y="718.486"/>
      <point x="264.777" y="680.056"/>
      <point x="300" y="680.056" type="qcurve" smooth="yes"/>
      <point x="335.223" y="680.056"/>
      <point x="384.67" y="718.486"/>
      <point x="386.067" y="751.313" type="qcurve"/>
      <point x="484.263" y="751.313" type="line"/>
      <point x="480.866" y="680.76"/>
      <point x="377.933" y="599.413"/>
    </contour>
  </outline>
</glyph>
<glyph name="uni0307" format="2">
  <unicode hex="0307"/>
  <anchor x="300" y="556.05" name="_t.uni0308"/>
  <anchor x="300" y="721.067" name="_t.uni0307_1"/>
  <anchor x="300" y="556.05" name="_t.uni0308_2"/>
  <anchor x="300" y="556.05" name="_m.uni0308"/>
  <anchor x="300" y="850.077" name="m.uni0308"/>
  <outline>
    <contour>
      <point x="300" y="612.084" type="qcurve" smooth="yes"/>
      <point x="263.274" y="612.084"/>
      <point x="215.564" y="659.793"/>
      <point x="215.564" y="696.52" type="qcurve" smooth="yes"/>
      <point x="215.564" y="733.246"/>
      <point x="263.274" y="780.956"/>
      <point x="300" y="780.956" type="qcurve" smooth="yes"/>
      <point x="336.726" y="780.956"/>
      <point x="384.436" y="733.246"/>
      <point x="384.436" y="696.52" type="qcurve" smooth="yes"/>
      <point x="384.436" y="659.793"/>
      <point x="336.726" y="612.084"/>
    </contour>
  </outline>
</glyph>
<glyph name="uni0308" format="2">
  <unicode hex="0308"/>
  <anchor x="300" y="556.05" name="_t.uni0308"/>
  <anchor x="300" y="556.05" name="_t.uni0308_2"/>
  <anchor x="300" y="556.05" name="_m.uni0308"/>
  <anchor x="300" y="771.977" name="m.uni0308"/>
  <outline>
    <contour>
      <point x="401.347" y="612.274" type="qcurve" smooth="yes"/>
      <point x="372.397" y="612.274"/>
      <point x="331.86" y="650.017"/>
      <point x="331.86" y="680.967" type="qcurve" smooth="yes"/>
      <point x="331.86" y="711.916"/>
      <point x="372.397" y="750.056"/>
      <point x="401.347" y="750.056" type="qcurve" smooth="yes"/>
      <point x="430.296" y="750.056"/>
      <point x="470.833" y="711.916"/>
      <point x="470.833" y="680.967" type="qcurve" smooth="yes"/>
      <point x="470.833" y="650.017"/>
      <point x="430.296" y="612.274"/>
    </contour>
    <contour>
      <point x="198.653" y="612.274" type="qcurve" smooth="yes"/>
      <point x="169.704" y="612.274"/>
      <point x="129.167" y="650.017"/>
      <point x="129.167" y="680.967" type="qcurve" smooth="yes"/>
      <point x="129.167" y="711.916"/>
      <point x="169.704" y="750.056"/>
      <point x="198.653" y="750.056" type="qcurve" smooth="yes"/>
      <point x="227.603" y="750.056"/>
      <point x="268.14" y="711.916"/>
      <point x="268.14" y="680.967" type="qcurve" smooth="yes"/>
      <point x="268.14" y="650.017"/>
      <point x="227.603" y="612.274"/>
    </contour>
  </outline>
</glyph>
<glyph name="hookabovecomb" format="2">
  <unicode hex="0309"/>
  <anchor x="300" y="556.05" name="_t.uni0308"/>
  <anchor x="300" y="556.05" name="_t.uni0308_2"/>
  <anchor x="300" y="556.05" name="_m.uni0308"/>
  <anchor x="300" y="859.564" name="m.uni0308"/>
  <outline>
    <contour>
      <point x="330.33" y="597" type="qcurve"/>
      <point x="281.033" y="648.726" type="line"/>
      <point x="310.033" y="662.726"/>
      <point x="332.464" y="692.743"/>
      <point x="332.464" y="709.967" type="qcurve" smooth="yes"/>
      <point x="332.464" y="729.173"/>
      <point x="306.447" y="752.19"/>
      <point x="285.033" y="752.19" type="qcurve" smooth="yes"/>
      <point x="255.223" y="752.19"/>
      <point x="226.223" y="732.793" type="qcurve"/>
      <point x="193.497" y="796.28" type="line"/>
      <point x="215.877" y="813.263"/>
      <point x="272.62" y="830.246"/>
      <point x="301.983" y="830.246" type="qcurve" smooth="yes"/>
      <point x="355.33" y="830.246"/>
      <point x="421.866" y="771.296"/>
      <point x="421.866" y="722.933" type="qcurve" smooth="yes"/>
      <point x="421.866" y="679.967"/>
      <point x="376.106" y="618.19"/>
    </contour>
  </outline>
</glyph>
<glyph name="uni030A" format="2">
  <unicode hex="030A"/>
  <anchor x="300" y="556.05" name="_t.uni0308"/>
  <anchor x="300" y="556.05" name="_t.uni0308_2"/>
  <anchor x="300" y="556.05" name="_m.uni0308"/>
  <anchor x="300" y="861.977" name="m.uni0308"/>
  <outline>
    <contour>
      <point x="299.397" y="592.413" type="qcurve" smooth="yes"/>
      <point x="264.62" y="592.413"/>
      <point x="208.464" y="624.793"/>
      <point x="175.687" y="679.157"/>
      <point x="175.687" y="712.536" type="qcurve" smooth="yes"/>
      <point x="175.687" y="746.313"/>
      <point x="208.464" y="800.883"/>
      <point x="264.62" y="833.866"/>
      <point x="299.397" y="833.866" type="qcurve" smooth="yes"/>
      <point x="335.173" y="833.866"/>
      <point x="390.933" y="800.883"/>
      <point x="423.71" y="746.313"/>
      <point x="423.71" y="712.536" type="qcurve" smooth="yes"/>
      <point x="423.71" y="679.157"/>
      <point x="390.933" y="624.793"/>
      <point x="335.173" y="592.413"/>
    </contour>
    <contour>
      <point x="299.397" y="651.9" type="qcurve" smooth="yes"/>
      <point x="326.017" y="651.9"/>
      <point x="360.033" y="686.123"/>
      <point x="360.033" y="712.536" type="qcurve" smooth="yes"/>
      <point x="360.033" y="738.95"/>
      <point x="325.413" y="773.777"/>
      <point x="299.397" y="773.777" type="qcurve" smooth="yes"/>
      <point x="274.38" y="773.777"/>
      <point x="239.363" y="739.553"/>
      <point x="239.363" y="712.536" type="qcurve" smooth="yes"/>
      <point x="239.363" y="686.123"/>
      <point x="273.777" y="651.9"/>
    </contour>
  </outline>
</glyph>
<glyph name="uni030B" format="2">
  <unicode hex="030B"/>
  <anchor x="300" y="556.05" name="_t.uni0308"/>
  <anchor x="300" y="556.05" name="_t.uni0308_2"/>
  <anchor x="300" y="556.05" name="_m.uni0308"/>
  <anchor x="300" y="789.564" name="m.uni0308"/>
  <outline>
    <contour>
      <point x="343.81" y="607" type="line"/>
      <point x="415.72" y="751.313" type="line"/>
      <point x="561.85" y="751.313" type="line"/>
      <point x="458.213" y="607" type="line"/>
    </contour>
    <contour>
      <point x="141.787" y="607" type="line"/>
      <point x="214.301" y="751.313" type="line"/>
      <point x="360.43" y="751.313" type="line"/>
      <point x="256.19" y="607" type="line"/>
    </contour>
  </outline>
</glyph>
<glyph name="uni030F" format="2">
  <unicode hex="030F"/>
  <anchor x="300" y="556.05" name="_t.uni0308"/>
  <anchor x="300" y="556.05" name="_t.uni0308_2"/>
  <anchor x="300" y="556.05" name="_m.uni0308"/>
  <anchor x="300" y="789.564" name="m.uni0308"/>
  <outline>
    <contour>
      <point x="343.81" y="607" type="line"/>
      <point x="239.57" y="751.313" type="line"/>
      <point x="385.699" y="751.313" type="line"/>
      <point x="458.213" y="607" type="line"/>
    </contour>
    <contour>
      <point x="141.787" y="607" type="line"/>
      <point x="38.1504" y="751.313" type="line"/>
      <point x="184.28" y="751.313" type="line"/>
      <point x="256.19" y="607" type="line"/>
    </contour>
  </outline>
</glyph>
<glyph name="uni0311" format="2">
  <unicode hex="0311"/>
  <anchor x="300" y="556.05" name="_t.uni0308"/>
  <anchor x="300" y="556.05" name="_t.uni0308_2"/>
  <anchor x="300" y="556.05" name="_m.uni0308"/>
  <anchor x="300" y="779.564" name="m.uni0308"/>
  <outline>
    <contour>
      <point x="115.737" y="607" type="line"/>
      <point x="119.134" y="677.553"/>
      <point x="222.067" y="758.9"/>
      <point x="300" y="758.9" type="qcurve" smooth="yes"/>
      <point x="377.933" y="758.9"/>
      <point x="480.866" y="677.553"/>
      <point x="484.263" y="607" type="qcurve"/>
      <point x="386.067" y="607" type="line"/>
      <point x="384.67" y="639.827"/>
      <point x="335.223" y="678.257"/>
      <point x="300" y="678.257" type="qcurve" smooth="yes"/>
      <point x="264.777" y="678.257"/>
      <point x="215.933" y="639.827"/>
      <point x="213.933" y="607" type="qcurve"/>
    </contour>
  </outline>
</glyph>
<glyph name="uni0312" format="2">
  <unicode hex="0312"/>
  <anchor x="300" y="556.05" name="_t.uni0308"/>
  <anchor x="300" y="556.05" name="_t.uni0308_2"/>
  <anchor x="300" y="556.05" name="_m.uni0308"/>
  <anchor x="300" y="831.977" name="m.uni0308"/>
  <outline>
    <contour>
      <point x="300" y="599.413" type="qcurve" smooth="yes"/>
      <point x="260.48" y="599.413"/>
      <point x="220.754" y="632.57"/>
      <point x="220.754" y="658.726" type="qcurve" smooth="yes"/>
      <point x="220.754" y="670.916"/>
      <point x="229.737" y="701.073"/>
      <point x="242.307" y="723.04" type="qcurve"/>
      <point x="287.257" y="812.866" type="line"/>
      <point x="371.47" y="812.866" type="line"/>
      <point x="320.347" y="663.553" type="line"/>
      <point x="300" y="717.246" type="line"/>
      <point x="338.52" y="717.246"/>
      <point x="379.246" y="686.486"/>
      <point x="379.246" y="658.726" type="qcurve" smooth="yes"/>
      <point x="379.246" y="631.967"/>
      <point x="339.52" y="599.413"/>
    </contour>
  </outline>
</glyph>
<glyph name="uni031B" format="2">
  <unicode hex="031B"/>
  <anchor x="300" y="556.05" name="_t.uni031B_2"/>
  <outline>
    <contour>
      <point x="276.637" y="433.737" type="line"/>
      <point x="276.637" y="537.95" type="line"/>
      <point x="303.967" y="537.95" type="line" smooth="yes"/>
      <point x="331.603" y="537.95"/>
      <point x="363.793" y="573.363"/>
      <point x="363.793" y="601.363" type="qcurve" smooth="yes"/>
      <point x="363.793" y="618.967"/>
      <point x="352.793" y="650.173"/>
      <point x="343.793" y="661.38" type="qcurve"/>
      <point x="436.196" y="694.916" type="line"/>
      <point x="451.386" y="675.33"/>
      <point x="468.369" y="625.157"/>
      <point x="468.369" y="595.38" type="qcurve" smooth="yes"/>
      <point x="468.369" y="520.067"/>
      <point x="379.09" y="433.737"/>
      <point x="300" y="433.737" type="qcurve" smooth="yes"/>
    </contour>
  </outline>
</glyph>
<glyph name="dotbelowcomb" format="2">
  <unicode hex="0323"/>
  <anchor x="300" y="-213.927" name="t.uni0324"/>
  <outline>
    <contour>
      <point x="300" y="-210.313" type="qcurve" smooth="yes"/>
      <point x="271.05" y="-210.313"/>
      <point x="230.514" y="-173.57"/>
      <point x="230.514" y="-142.62" type="qcurve" smooth="yes"/>
      <point x="230.514" y="-111.67"/>
      <point x="271.05" y="-72.927"/>
      <point x="300" y="-72.927" type="qcurve" smooth="yes"/>
      <point x="328.95" y="-72.927"/>
      <point x="369.486" y="-111.67"/>
      <point x="369.486" y="-142.62" type="qcurve" smooth="yes"/>
      <point x="369.486" y="-173.57"/>
      <point x="328.95" y="-210.313"/>
    </contour>
  </outline>
</glyph>
<glyph name="uni0324" format="2">
  <unicode hex="0324"/>
  <anchor x="300" y="-196.084" name="t.uni0324"/>
  <outline>
    <contour>
      <point x="395.743" y="-204.33" type="qcurve" smooth="yes"/>
      <point x="368.19" y="-204.33"/>
      <point x="329.447" y="-167.983"/>
      <point x="329.447" y="-138.827" type="qcurve" smooth="yes"/>
      <point x="329.447" y="-109.877"/>
      <point x="368.19" y="-72.927"/>
      <point x="395.743" y="-72.927" type="qcurve" smooth="yes"/>
      <point x="423.296" y="-72.927"/>
      <point x="462.04" y="-109.877"/>
      <point x="462.04" y="-138.827" type="qcurve" smooth="yes"/>
      <point x="462.04" y="-167.983"/>
      <point x="423.296" y="-204.33"/>
    </contour>
    <contour>
      <point x="204.257" y="-204.33" type="qcurve" smooth="yes"/>
      <point x="176.704" y="-204.33"/>
      <point x="138.564" y="-167.983"/>
      <point x="138.564" y="-138.827" type="qcurve" smooth="yes"/>
      <point x="138.564" y="-109.877"/>
      <point x="176.704" y="-72.927"/>
      <point x="204.257" y="-72.927" type="qcurve" smooth="yes"/>
      <point x="232.413" y="-72.927"/>
      <point x="271.157" y="-109.877"/>
      <point x="271.157" y="-138.827" type="qcurve" smooth="yes"/>
      <point x="271.157" y="-167.983"/>
      <point x="232.413" y="-204.33"/>
    </contour>
  </outline>
</glyph>
<glyph name="uni0326" format="2">
  <unicode hex="0326"/>
  <anchor x="300" y="-213.927" name="t.uni0324"/>
  <outline>
    <contour>
      <point x="243.29" y="-266.38" type="line"/>
      <point x="283.447" y="-137.67" type="line"/>
      <point x="300" y="-191.363" type="line"/>
      <point x="266.464" y="-191.363"/>
      <point x="230.514" y="-159.603"/>
      <point x="230.514" y="-132.843" type="qcurve" smooth="yes"/>
      <point x="230.514" y="-106.084"/>
      <point x="268.257" y="-72.927"/>
      <point x="300" y="-72.927" type="qcurve" smooth="yes"/>
      <point x="332.347" y="-72.927"/>
      <point x="369.486" y="-106.687"/>
      <point x="369.486" y="-132.843" type="qcurve" smooth="yes"/>
      <point x="369.486" y="-145.033"/>
      <point x="362.296" y="-176.793"/>
      <point x="350.52" y="-197.76" type="qcurve"/>
      <point x="316.347" y="-266.38" type="line"/>
    </contour>
  </outline>
</glyph>
<glyph name="uni0327" format="2">
  <unicode hex="0327"/>
  <outline>
    <contour>
      <point x="267.447" y="-231.553" type="qcurve" smooth="yes"/>
      <point x="241.24" y="-231.553"/>
      <point x="191.877" y="-220.157"/>
      <point x="173.67" y="-210.553" type="qcurve"/>
      <point x="198.05" y="-144.447" type="line"/>
      <point x="212.67" y="-150.86"/>
      <point x="244.877" y="-158.86"/>
      <point x="263.48" y="-158.86" type="qcurve" smooth="yes"/>
      <point x="291.29" y="-158.86"/>
      <point x="315.1" y="-141.24"/>
      <point x="315.1" y="-127.017" type="qcurve" smooth="yes"/>
      <point x="315.1" y="-113.793"/>
      <point x="291.877" y="-97.9666"/>
      <point x="265.653" y="-97.9666" type="qcurve" smooth="yes"/>
      <point x="231.894" y="-97.9666" type="line"/>
      <point x="258.29" y="8.18997" type="line"/>
      <point x="341.106" y="8.18997" type="line"/>
      <point x="327.106" y="-50.19" type="line"/>
      <point x="372.296" y="-54.9833"/>
      <point x="413.916" y="-102.38"/>
      <point x="413.916" y="-132.603" type="qcurve" smooth="yes"/>
      <point x="413.916" y="-178.38"/>
      <point x="333.587" y="-231.553"/>
    </contour>
  </outline>
</glyph>
<glyph name="uni0328" format="2">
  <unicode hex="0328"/>
  <anchor x="300" y="0" name="_m.uni0328_4"/>
  <outline>
    <contour>
      <point x="223.464" y="-231.553" type="qcurve" smooth="yes"/>
      <point x="158.117" y="-231.553"/>
      <point x="85.3738" y="-169.983"/>
      <point x="85.3738" y="-120.017" type="qcurve" smooth="yes"/>
      <point x="85.3738" y="-88.4468"/>
      <point x="117.737" y="-29.6702"/>
      <point x="186.1" y="21.5365"/>
      <point x="238.497" y="40.5532" type="qcurve"/>
      <point x="300.603" y="0" type="line"/>
      <point x="258.207" y="-19"/>
      <point x="207" y="-54.0167"/>
      <point x="184.19" y="-88.2401"/>
      <point x="184.19" y="-106.653" type="qcurve" smooth="yes"/>
      <point x="184.19" y="-127.877"/>
      <point x="214.62" y="-153.084"/>
      <point x="241.413" y="-153.084" type="qcurve" smooth="yes"/>
      <point x="257.81" y="-153.084"/>
      <point x="290.017" y="-144.084"/>
      <point x="301.62" y="-137.877" type="qcurve"/>
      <point x="324.397" y="-208.553" type="line"/>
      <point x="305.793" y="-218.553"/>
      <point x="251.843" y="-231.553"/>
    </contour>
  </outline>
</glyph>
<glyph name="uni032E" format="2">
  <unicode hex="032E"/>
  <anchor x="300" y="-218.514" name="t.uni0324"/>
  <outline>
    <contour>
      <point x="300" y="-216.553" type="qcurve" smooth="yes"/>
      <point x="222.067" y="-216.553"/>
      <point x="119.53" y="-138.603"/>
      <point x="115.737" y="-74.2401" type="qcurve"/>
      <point x="208.95" y="-74.2401" type="line"/>
      <point x="210.14" y="-104.67"/>
      <point x="261.777" y="-140.894"/>
      <point x="300" y="-140.894" type="qcurve" smooth="yes"/>
      <point x="338.62" y="-140.894"/>
      <point x="389.86" y="-104.67"/>
      <point x="391.05" y="-74.2401" type="qcurve"/>
      <point x="484.263" y="-74.2401" type="line"/>
      <point x="480.866" y="-138.603"/>
      <point x="377.933" y="-216.553"/>
    </contour>
  </outline>
</glyph>
<glyph name="uni0331" format="2">
  <unicode hex="0331"/>
  <anchor x="300" y="-192.894" name="t.uni0324"/>
  <outline>
    <contour>
      <point x="115.34" y="-182.347" type="line"/>
      <point x="115.34" y="-94.5137" type="line"/>
      <point x="484.66" y="-94.5137" type="line"/>
      <point x="484.66" y="-182.347" type="line"/>
    </contour>
  </outline>
</glyph>
<glyph name="uni0335" format="2">
  <unicode hex="0335"/>
  <anchor x="300" y="430.587" name="_t.uni0307_1"/>
  <outline>
    <contour>
      <point x="94.4468" y="390.67" type="line"/>
      <point x="94.4468" y="480.76" type="line"/>
      <point x="505.553" y="480.76" type="line"/>
      <point x="505.553" y="390.67" type="line"/>
    </contour>
  </outline>
</glyph>
<glyph name="uni0336" format="2">
  <unicode hex="0336"/>
  <anchor x="526.547" y="430.587" name="_t.uni0307_1"/>
  <outline>
    <contour>
      <point x="49.693" y="380.894" type="line"/>
      <point x="49.693" y="489.14" type="line"/>
      <point x="882.129" y="489.14" type="line"/>
      <point x="882.129" y="380.894" type="line"/>
    </contour>
  </outline>
</glyph>
<glyph name="uni0337" format="2">
  <unicode hex="0337"/>
  <anchor x="338.614" y="407.637" name="_t.uni0307_1"/>
  <outline>
    <contour>
      <point x="116.676" y="231.547" type="line"/>
      <point x="59.3465" y="310.43" type="line"/>
      <point x="383.169" y="553.973" type="line"/>
      <point x="440.499" y="474.486" type="line"/>
    </contour>
  </outline>
</glyph>
<glyph name="uni0338" format="2">
  <unicode hex="0338"/>
  <anchor x="333.033" y="278.827" name="_t.uni0307_1"/>
  <outline>
    <contour>
      <point x="59.6033" y="-70" type="line"/>
      <point x="500" y="604.57" type="line"/>
      <point x="577.503" y="604.57" type="line"/>
      <point x="137.106" y="-70" type="line"/>
    </contour>
  </outline>
</glyph>
<glyph name="tonos" format="2">
  <advance width="196"/>
  <unicode hex="0384"/>
  <anchor x="-45.7432" y="789.564" name="t.uni0308"/>
  <anchor x="-45.7432" y="0" name="b.uni0324_3"/>
  <anchor x="94.4073" y="0" name="m.uni0328_4"/>
  <outline>
    <contour>
      <point x="-2.15654" y="607" type="line"/>
      <point x="48.3799" y="751.313" type="line"/>
      <point x="198.146" y="751.313" type="line"/>
      <point x="100.71" y="607" type="line"/>
    </contour>
  </outline>
</glyph>
<glyph name="Epsilontonos" format="2">
  <advance width="851"/>
  <unicode hex="0388"/>
  <anchor x="518.012" y="700" name="t.uni0308"/>
  <anchor x="513.185" y="0" name="b.uni0324_3"/>
  <anchor x="829.492" y="0" name="m.uni0328_4"/>
  <outline>
    <contour>
      <point x="412.208" y="418.28" type="line"/>
      <point x="749.549" y="418.28" type="line"/>
      <point x="749.549" y="292.324" type="line"/>
      <point x="412.208" y="292.324" type="line"/>
    </contour>
    <contour>
      <point x="423.985" y="130.336" type="line"/>
      <point x="805.359" y="130.336" type="line"/>
      <point x="805.359" y="0" type="line"/>
      <point x="263.179" y="0" type="line"/>
      <point x="263.179" y="700" type="line"/>
      <point x="791.755" y="700" type="line"/>
      <point x="791.755" y="569.664" type="line"/>
      <point x="423.985" y="569.664" type="line"/>
    </contour>
    <contour>
      <point x="12.0501" y="607" type="line"/>
      <point x="62.5866" y="751.313" type="line"/>
      <point x="212.353" y="751.313" type="line"/>
      <point x="114.916" y="607" type="line"/>
    </contour>
  </outline>
</glyph>
